<svg width="39" height="31" viewBox="0 0 39 31" fill="none" xmlns="http://www.w3.org/2000/svg">
<path d="M35.1 0H3.9C1.755 0 0.0195 1.74375 0.0195 3.875L0 27.125C0 29.2563 1.755 31 3.9 31H35.1C37.245 31 39 29.2563 39 27.125V3.875C39 1.74375 37.245 0 35.1 0ZM34.32 8.23438L20.5335 16.7981C19.9095 17.1856 19.0905 17.1856 18.4665 16.7981L4.68 8.23438C4.1925 7.92438 3.9 7.40125 3.9 6.83938C3.9 5.54125 5.3235 4.76625 6.435 5.44438L19.5 13.5625L32.565 5.44438C33.6765 4.76625 35.1 5.54125 35.1 6.83938C35.1 7.40125 34.8075 7.92438 34.32 8.23438Z" fill="white"/>
</svg>
