<svg width="309" height="104" viewBox="0 0 309 104" fill="none" xmlns="http://www.w3.org/2000/svg">
<path d="M104.131 66V65.3062L105.38 64.8899C106.305 64.5661 106.929 64.1267 107.253 63.5716C107.577 63.0166 107.739 62.2765 107.739 61.3514C107.785 58.5761 107.808 55.7776 107.808 52.9561C107.808 50.1345 107.808 47.313 107.808 44.4914V41.7161C107.808 38.9408 107.808 36.1655 107.808 33.3902C107.808 30.5687 107.785 27.7702 107.739 24.9949C107.739 24.0698 107.6 23.3298 107.323 22.7747C107.091 22.2196 106.536 21.7802 105.657 21.4564L104.131 20.9014V20.2075H137.712L138.198 31.725H137.504L133.549 24.4399C133.087 23.561 132.555 22.8672 131.953 22.3584C131.352 21.8496 130.52 21.5952 129.456 21.5952H118.285C118.239 24.8793 118.216 28.2328 118.216 31.6557C118.216 35.0785 118.216 38.4783 118.216 41.8549H125.431C126.495 41.8549 127.282 41.6236 127.79 41.1611C128.299 40.6985 128.785 40.0278 129.248 39.149L130.705 36.5124H131.398V48.6544H130.705L129.178 46.0178C128.716 45.1852 128.23 44.5145 127.721 44.0057C127.259 43.4969 126.495 43.2425 125.431 43.2425H118.216C118.216 46.4804 118.216 49.5795 118.216 52.5398C118.216 55.4539 118.239 58.3217 118.285 61.1432C118.285 62.9472 119.164 64.1267 120.922 64.6817L123.003 65.3062V66H104.131ZM143.903 66V65.3062L144.736 65.0286C146.401 64.4736 147.233 63.3172 147.233 61.5595V24.4399C147.233 23.5148 147.048 22.8209 146.678 22.3584C146.308 21.8496 145.661 21.4795 144.736 21.2483L143.834 21.0401V20.3463L156.531 17.3629L157.363 17.9873L157.086 27.7008V51.4297C157.086 53.1411 157.086 54.8525 157.086 56.564C157.132 58.2292 157.155 59.8943 157.155 61.5595C157.155 62.4846 157.34 63.2478 157.71 63.8491C158.08 64.4042 158.705 64.8205 159.583 65.098L160.485 65.3062V66H143.903ZM183.738 31.5863C186.744 31.5863 189.311 32.2107 191.439 33.4596C193.567 34.6622 195.186 36.3274 196.296 38.4551C197.452 40.5366 198.031 42.9187 198.031 45.6015C198.031 46.1103 198.007 46.6423 197.961 47.1973C197.915 47.7061 197.822 48.1687 197.684 48.585H177.008C177.054 53.5805 177.933 57.1884 179.644 59.4087C181.402 61.5826 183.992 62.6696 187.415 62.6696C189.728 62.6696 191.601 62.2996 193.035 61.5595C194.469 60.8194 195.81 59.7324 197.059 58.2985L197.753 58.923C196.319 61.467 194.399 63.456 191.994 64.8899C189.635 66.3238 186.791 67.0407 183.46 67.0407C180.176 67.0407 177.262 66.3469 174.718 64.9593C172.174 63.5254 170.185 61.4901 168.751 58.8536C167.317 56.2171 166.6 53.0717 166.6 49.4176C166.6 45.6247 167.433 42.4099 169.098 39.7734C170.763 37.0906 172.891 35.0554 175.481 33.6677C178.118 32.2801 180.87 31.5863 183.738 31.5863ZM183.53 32.9739C182.188 32.9739 181.032 33.3902 180.06 34.2228C179.135 35.0091 178.395 36.443 177.84 38.5245C177.331 40.5597 177.054 43.4507 177.008 47.1973H188.872C189.335 42.1555 189.15 38.5245 188.317 36.3043C187.484 34.084 185.889 32.9739 183.53 32.9739ZM216.822 67.0407C215.018 67.0407 213.353 66.6938 211.826 66C210.346 65.3062 209.167 64.1961 208.288 62.6696C207.455 61.097 207.062 59.0386 207.108 56.4946L207.316 38.6633C207.316 37.5994 207.131 36.8362 206.761 36.3737C206.391 35.9111 205.813 35.5873 205.027 35.4023L204.194 35.1248V34.431L216.614 32.0026L217.307 32.6964L216.961 42.5487V59.2699C216.961 60.7501 217.377 61.837 218.209 62.5309C219.088 63.2247 220.175 63.5716 221.47 63.5716C222.766 63.5716 223.922 63.3866 224.94 63.0166C225.957 62.6465 226.975 62.0915 227.992 61.3514L228.27 38.7327C228.27 37.6688 228.108 36.9287 227.784 36.5124C227.46 36.0499 226.859 35.7261 225.98 35.5411L225.286 35.3329V34.6391L237.428 32.0026L238.122 32.6964L237.914 42.5487V61.3514C237.914 62.369 238.053 63.1553 238.33 63.7104C238.608 64.2654 239.209 64.728 240.134 65.098L240.828 65.3062V66L228.686 66.6938L228.062 62.6003C226.535 63.8491 224.87 64.913 223.066 65.7919C221.309 66.6244 219.227 67.0407 216.822 67.0407ZM246.405 66V65.3062L247.446 65.0286C248.371 64.7511 248.996 64.3348 249.319 63.7798C249.689 63.2247 249.874 62.5077 249.874 61.6289V39.9122C249.874 38.8946 249.689 38.1545 249.319 37.6919C248.996 37.1831 248.371 36.8362 247.446 36.6512L246.405 36.3737V35.6798L258.339 31.6557L259.033 32.3495L259.657 38.3164V38.8714C260.305 37.5763 261.138 36.3968 262.155 35.3329C263.219 34.2228 264.375 33.3208 265.624 32.627C266.919 31.9332 268.191 31.5863 269.44 31.5863C271.198 31.5863 272.539 32.0719 273.464 33.0433C274.39 34.0147 274.852 35.2404 274.852 36.7206C274.852 38.2932 274.39 39.519 273.464 40.3979C272.586 41.2304 271.522 41.6467 270.273 41.6467C268.33 41.6467 266.619 40.6754 265.139 38.7327L265 38.5939C264.537 37.9463 264.005 37.5994 263.404 37.5532C262.803 37.4607 262.248 37.7382 261.739 38.3858C261.276 38.8021 260.883 39.3109 260.559 39.9122C260.282 40.4672 260.004 41.1148 259.727 41.8549V61.2126C259.727 63.0628 260.536 64.2192 262.155 64.6817L264.375 65.3062V66H246.405ZM291.132 67.0407C288.866 67.0407 286.83 66.7632 285.026 66.2081C283.222 65.6993 281.557 65.0518 280.031 64.2654L280.1 56.0089H280.794L283.153 60.1719C284.171 62.0221 285.281 63.4097 286.483 64.3348C287.732 65.2137 289.305 65.6531 291.201 65.6531C293.422 65.6531 295.203 65.1674 296.544 64.1961C297.932 63.1784 298.625 61.837 298.625 60.1719C298.625 58.6455 298.14 57.3966 297.168 56.4252C296.197 55.4539 294.393 54.575 291.757 53.7887L288.842 52.8867C286.021 52.0541 283.801 50.759 282.182 49.0013C280.563 47.2436 279.753 45.0927 279.753 42.5487C279.753 39.4959 280.956 36.9056 283.361 34.7779C285.767 32.6501 289.212 31.5863 293.699 31.5863C295.503 31.5863 297.191 31.7944 298.764 32.2107C300.383 32.5808 301.933 33.1589 303.413 33.9453L302.996 41.4386H302.303L299.874 37.1369C298.995 35.6105 298.117 34.5466 297.238 33.9453C296.405 33.2977 295.133 32.9739 293.422 32.9739C291.849 32.9739 290.369 33.4133 288.981 34.2922C287.594 35.171 286.9 36.4199 286.9 38.0388C286.9 39.6115 287.478 40.8604 288.634 41.7855C289.837 42.7106 291.595 43.5663 293.907 44.3527L297.03 45.2546C300.36 46.2722 302.742 47.683 304.176 49.487C305.61 51.2447 306.327 53.3724 306.327 55.8702C306.327 59.2468 304.985 61.9527 302.303 63.9879C299.666 66.0231 295.943 67.0407 291.132 67.0407Z" fill="white"/>
<path d="M138.655 96.2559L132.162 82.8767H134.396L139.282 93.5382L144.182 82.8767H146.416L139.91 96.2559H138.655ZM148.216 96.2559V82.8767H150.124V96.2559H148.216ZM149.183 80.1983C148.948 80.1983 148.734 80.1417 148.543 80.0285C148.36 79.9152 148.212 79.7628 148.098 79.5712C147.985 79.3795 147.929 79.1705 147.929 78.944C147.929 78.7175 147.985 78.5129 148.098 78.3299C148.212 78.1383 148.36 77.9859 148.543 77.8726C148.734 77.7594 148.948 77.7028 149.183 77.7028C149.409 77.7028 149.614 77.7594 149.797 77.8726C149.98 77.9859 150.128 78.134 150.241 78.3169C150.363 78.4998 150.424 78.7088 150.424 78.944C150.424 79.1705 150.363 79.3795 150.241 79.5712C150.128 79.7628 149.98 79.9152 149.797 80.0285C149.614 80.1417 149.409 80.1983 149.183 80.1983ZM153.928 96.2559V82.8767H155.835V84.8496C156.262 84.0657 156.811 83.4734 157.482 83.0727C158.161 82.6633 158.945 82.4586 159.834 82.4586C160.226 82.4586 160.622 82.5022 161.023 82.5893C161.432 82.6764 161.785 82.7896 162.081 82.929L161.297 84.5361C161.036 84.4054 160.735 84.3052 160.395 84.2356C160.064 84.1659 159.746 84.131 159.442 84.131C158.823 84.131 158.24 84.2878 157.691 84.6014C157.142 84.915 156.693 85.3244 156.345 85.8296C156.005 86.326 155.835 86.8574 155.835 87.4236V96.2559H153.928ZM169.47 96.674C168.216 96.674 167.084 96.3691 166.073 95.7594C165.072 95.1409 164.275 94.296 163.682 93.2247C163.099 92.1533 162.807 90.9295 162.807 89.5532C162.807 88.1944 163.094 86.9837 163.669 85.921C164.253 84.8496 165.046 84.0047 166.047 83.3863C167.058 82.7679 168.199 82.4586 169.47 82.4586C170.681 82.4586 171.779 82.7417 172.763 83.3079C173.747 83.8741 174.496 84.658 175.01 85.6597V82.8767H176.918V96.2559H175.01V93.4337C174.435 94.4441 173.664 95.2367 172.698 95.8116C171.731 96.3865 170.655 96.674 169.47 96.674ZM169.941 95.0146C170.942 95.0146 171.827 94.7838 172.593 94.3222C173.368 93.8518 173.978 93.2072 174.422 92.3885C174.866 91.561 175.089 90.6203 175.089 89.5663C175.089 88.5036 174.866 87.5629 174.422 86.7441C173.987 85.9254 173.381 85.2852 172.606 84.8235C171.831 84.3532 170.942 84.118 169.941 84.118C168.939 84.118 168.051 84.3532 167.275 84.8235C166.5 85.2852 165.89 85.9254 165.446 86.7441C165.002 87.5629 164.78 88.5036 164.78 89.5663C164.78 90.6203 165.002 91.561 165.446 92.3885C165.89 93.2072 166.5 93.8518 167.275 94.3222C168.051 94.7838 168.939 95.0146 169.941 95.0146ZM170.672 80.7209L169.693 80.0023L172.175 75.0505L173.678 76.1219L170.672 80.7209ZM186.619 103.442C184.929 103.442 183.501 103.111 182.333 102.449C181.166 101.787 180.3 100.82 179.733 99.5484L181.34 98.8036C181.75 99.7269 182.429 100.459 183.379 100.999C184.328 101.547 185.408 101.822 186.619 101.822C187.638 101.822 188.548 101.617 189.35 101.208C190.16 100.807 190.796 100.223 191.257 99.4569C191.728 98.6904 191.963 97.7715 191.963 96.7001V93.4337C191.405 94.4441 190.639 95.2367 189.663 95.8116C188.696 96.3865 187.616 96.674 186.423 96.674C185.177 96.674 184.049 96.3691 183.039 95.7594C182.037 95.1496 181.24 94.3091 180.648 93.2377C180.064 92.1663 179.773 90.9425 179.773 89.5663C179.773 88.1988 180.064 86.9837 180.648 85.921C181.232 84.8496 182.024 84.0047 183.026 83.3863C184.036 82.7679 185.182 82.4586 186.462 82.4586C187.647 82.4586 188.722 82.7417 189.689 83.3079C190.665 83.8741 191.423 84.658 191.963 85.6597V82.8767H193.87V96.6217C193.87 98.1025 193.579 99.348 192.995 100.358C192.411 101.378 191.575 102.144 190.486 102.658C189.406 103.181 188.117 103.442 186.619 103.442ZM186.88 95.0146C187.891 95.0146 188.783 94.7838 189.559 94.3222C190.334 93.8518 190.944 93.2072 191.388 92.3885C191.832 91.561 192.054 90.6246 192.054 89.5794C192.054 88.5167 191.832 87.576 191.388 86.7572C190.944 85.9297 190.334 85.2852 189.559 84.8235C188.783 84.3532 187.895 84.118 186.893 84.118C185.892 84.118 185.003 84.3532 184.228 84.8235C183.453 85.2852 182.843 85.9297 182.399 86.7572C181.955 87.576 181.732 88.5167 181.732 89.5794C181.732 90.6246 181.95 91.561 182.386 92.3885C182.83 93.2072 183.44 93.8518 184.215 94.3222C184.999 94.7838 185.887 95.0146 186.88 95.0146ZM203.075 96.674C201.045 96.674 199.595 96.2167 198.724 95.3021C197.853 94.3875 197.418 92.8588 197.418 90.7161V82.8767H199.325V90.3764C199.325 92.0662 199.613 93.2726 200.187 93.9955C200.762 94.7098 201.725 95.0669 203.075 95.0669C204.434 95.0669 205.396 94.7098 205.962 93.9955C206.537 93.2726 206.825 92.0662 206.825 90.3764V82.8767H208.732V90.7161C208.732 92.8588 208.297 94.3875 207.426 95.3021C206.563 96.2167 205.113 96.674 203.075 96.674ZM206.172 79.1531C205.849 79.1531 205.575 79.0398 205.348 78.8134C205.122 78.5869 205.009 78.3125 205.009 77.9902C205.009 77.668 205.122 77.3936 205.348 77.1671C205.575 76.9406 205.849 76.8274 206.172 76.8274C206.494 76.8274 206.768 76.9406 206.995 77.1671C207.221 77.3936 207.334 77.668 207.334 77.9902C207.334 78.3125 207.221 78.5869 206.995 78.8134C206.768 79.0398 206.494 79.1531 206.172 79.1531ZM200.005 79.1531C199.682 79.1531 199.408 79.0398 199.181 78.8134C198.955 78.5869 198.842 78.3125 198.842 77.9902C198.842 77.668 198.955 77.3936 199.181 77.1671C199.408 76.9406 199.682 76.8274 200.005 76.8274C200.327 76.8274 200.601 76.9406 200.828 77.1671C201.054 77.3936 201.167 77.668 201.167 77.9902C201.167 78.3125 201.054 78.5869 200.828 78.8134C200.601 79.0398 200.327 79.1531 200.005 79.1531ZM210.532 96.2559L220.436 84.4446H211.551V82.8767H223.911L213.995 94.688H223.611V96.2559H210.532ZM226.11 96.2559V73.7831H228.017V96.2559H226.11ZM238.08 96.674C236.678 96.674 235.424 96.3647 234.317 95.7463C233.22 95.1279 232.358 94.2873 231.73 93.2247C231.103 92.1533 230.79 90.9513 230.79 89.6186C230.79 88.6169 230.968 87.6849 231.325 86.8225C231.691 85.9515 232.196 85.1893 232.841 84.5361C233.485 83.8828 234.235 83.3732 235.088 83.0074C235.942 82.6416 236.852 82.4586 237.819 82.4586C239.143 82.4586 240.319 82.7504 241.347 83.334C242.383 83.9089 243.202 84.7059 243.803 85.725C244.413 86.7441 244.735 87.92 244.77 89.2527C244.77 89.3573 244.765 89.4444 244.757 89.514C244.757 89.575 244.748 89.6534 244.731 89.7492H232.684C232.684 90.7945 232.919 91.7178 233.39 92.5191C233.86 93.3205 234.505 93.952 235.323 94.4136C236.151 94.8666 237.096 95.093 238.159 95.093C239.169 95.093 240.075 94.884 240.876 94.4659C241.686 94.0391 242.361 93.4293 242.901 92.6367L244.312 93.3945C243.677 94.431 242.81 95.2367 241.712 95.8116C240.624 96.3865 239.413 96.674 238.08 96.674ZM232.789 88.312H242.862C242.749 87.4758 242.457 86.7398 241.987 86.1039C241.516 85.4594 240.92 84.9542 240.197 84.5883C239.483 84.2225 238.699 84.0396 237.845 84.0396C236.965 84.0396 236.164 84.2225 235.441 84.5883C234.718 84.9455 234.121 85.4463 233.651 86.0909C233.189 86.7267 232.902 87.4671 232.789 88.312ZM250.638 96.674C249.637 96.674 248.857 96.3386 248.3 95.6679C247.751 94.9885 247.477 94.0347 247.477 92.8066V84.314H246.118V82.8767H247.477V77.8726H249.384V82.8767H252.716V84.314H249.384V92.702C249.384 93.4424 249.528 94.0086 249.815 94.4006C250.103 94.7925 250.512 94.9885 251.043 94.9885C251.557 94.9885 252.01 94.8448 252.402 94.5573L252.886 96.0729C252.59 96.2559 252.241 96.3996 251.84 96.5041C251.44 96.6173 251.039 96.674 250.638 96.674Z" fill="white"/>
<path d="M45.4834 14.1047C42.0269 13.7668 38.8423 14.3004 36.0124 14.9408C32.9968 15.6232 30.7483 16.3151 28.2022 16.7C27.8841 16.7482 26.8285 16.8625 25.9727 17.0871C24.9951 17.3437 23.6895 17.8594 22.6147 19.0548C21.8838 19.8685 21.4272 20.8246 21.2315 21.2058C21.1737 21.3183 21.1204 21.4062 21.0813 21.4783C20.7411 21.6422 20.3184 21.8992 19.9142 22.3099L19.6026 22.2572C16.7022 21.7631 14.5995 23.0542 13.3098 24.0599L12.2906 24.8937C11.4882 25.5233 10.1943 26.4775 9.07139 27.473C7.93894 28.4771 6.62699 29.8163 5.77485 31.484C4.63569 33.7152 4.81442 36.1353 4.88986 37.4627C4.97558 38.9711 4.98399 39.6145 4.87394 40.0328L4.81934 40.2001C4.60341 40.7478 4.44684 40.7162 3.24728 42.1196C2.74837 42.7034 2.12339 43.5322 1.7139 44.6531C1.29109 45.8107 1.17737 47.0575 1.359 48.3984C1.52792 49.6442 1.95462 51.2118 2.51927 52.643C2.62828 52.9193 2.75612 53.2126 2.89465 53.518C2.235 54.0428 1.18952 54.9652 0.599134 56.2714L0.478557 56.5624C0.161484 57.3925 0.0613368 58.2456 0.0235481 58.8782C-0.0167849 59.5538 0.000343438 60.2418 0.0326483 60.8505C0.0649824 61.4597 0.118631 62.0593 0.163441 62.5601L0.175497 62.6948C0.218064 63.1698 0.248578 63.5103 0.262428 63.7734C0.446777 67.2825 1.04487 70.5158 1.71845 73.6279C2.18319 75.7743 3.0165 77.3398 3.948 78.6857C4.36995 79.2954 4.82151 79.8735 5.2167 80.3795L5.26069 80.4358C5.68407 80.9779 6.06982 81.477 6.45282 82.0278C7.17396 83.0645 8.15949 84.6533 9.37852 85.7983C10.8571 87.187 12.6541 88.0017 15.0206 88.247C17.3537 88.4886 20.4901 89.0668 23.5862 89.2389C25.8809 91.7006 28.9284 93.4325 31.5215 94.3998L32.5476 94.7708C34.828 95.5695 36.3585 95.9469 38.2898 96.8851L38.9017 97.1532C40.3782 97.7381 42.1626 98.0324 43.743 98.1129C45.0407 98.1791 46.6144 98.1213 48.0724 97.7419C48.8432 98.063 49.6366 98.3515 50.4453 98.6077C50.4662 98.6308 50.4793 98.6473 50.4908 98.6604L50.302 99.4965C51.6914 99.9744 53.2715 100.439 54.8566 100.136L58.8584 97.6594C59.4751 97.3001 60.1209 97.0877 61.3041 96.6607C62.3841 96.2709 63.8177 95.7272 65.2354 94.7113C66.6529 93.6946 67.7314 92.4545 68.409 90.9935C68.5916 90.5999 68.7351 90.2031 68.8504 89.8092C69.0407 89.7495 69.2254 89.6932 69.401 89.6329C69.8819 89.4675 70.3454 89.2921 70.7478 89.1381C71.1685 88.9771 71.5129 88.8426 71.8444 88.7257L72.7407 88.3959C73.6357 88.0444 74.5179 87.6179 75.332 86.9757C76.4295 86.11 77.1597 85.0446 77.8323 83.9772C78.2447 83.3228 78.7847 82.7024 79.5613 81.8102L79.6091 81.7552C80.3395 80.916 81.2962 79.8117 82.057 78.507C83.5621 75.9222 82.9646 73.3881 82.6647 72.1162L82.6485 72.0473C82.3137 70.6235 82.3212 70.3864 82.3596 70.2675L82.3664 70.2606C82.4062 70.2085 82.4501 70.155 82.5399 70.0457L82.5641 70.0162C82.6493 69.9125 82.7828 69.7498 82.917 69.5688C83.2094 69.1742 83.5982 68.5742 83.8429 67.7638C84.0932 66.9346 84.1336 66.0837 84.0135 65.2349L83.9203 64.7447C83.6517 63.6216 83.0638 62.6764 82.7441 62.1791C82.519 61.829 82.2877 61.4965 82.1071 61.2399L82.0538 61.1643C81.8842 60.9233 81.7779 60.7724 81.6998 60.6512L81.2175 59.9022C81.1432 59.7805 81.1089 59.7116 81.0924 59.6777C81.0918 59.651 81.0939 59.6059 81.0992 59.5379L81.1006 59.5337C81.1103 59.5023 81.1257 59.4526 81.1516 59.3822C81.1879 59.2833 81.2301 59.1772 81.2877 59.0325L81.3108 58.9744C81.3739 58.8157 81.458 58.6037 81.5383 58.3834C81.794 57.682 82.4951 55.7219 81.4723 53.683L80.8672 52.4781C81.0172 51.8607 81.0826 51.3089 81.1197 51.0189C81.1653 50.6629 81.1947 50.5162 81.213 50.444L81.7999 49.8232C82.6527 48.9195 83.5454 47.6377 84.2593 46.3918C84.9478 45.1901 85.6964 43.6294 85.9792 42.1609C86.5557 39.1671 86.0717 35.7612 85.2967 32.847C84.5059 29.8735 83.2932 26.9727 82.0274 24.8502C79.488 20.5917 74.5182 20.7208 71.4894 21.3684C68.1596 22.0804 65.3832 25.2105 62.3506 23.6934C61.8625 23.2604 61.1856 22.6823 60.3281 22.2022C59.6611 21.8293 59.1583 21.5392 58.7014 21.2172C57.8232 20.5992 56.9499 20.352 56.4742 20.2253C56.1524 20.1397 56.1169 20.136 55.9395 20.0856C55.831 20.0547 55.7985 20.0398 55.7985 20.0398C55.6964 19.9945 55.5943 19.9531 55.4936 19.9138L55.3366 19.8565C54.4194 19.5236 53.5674 19.4336 52.8045 19.4557C52.8101 19.134 52.7816 18.7795 52.6839 18.4043V18.3997L52.5884 18.0881C52.065 16.5837 50.8223 15.8309 50.4112 15.5913C49.7618 15.2129 49.057 14.9497 48.4956 14.769C47.3756 14.4084 46.1544 14.1707 45.4834 14.1047Z" fill="white"/>
<path d="M13.6479 26.7617C15.1687 25.5766 16.2801 24.4267 18.3567 24.778C15.5125 28.6218 12.359 28.7478 12.359 36.1232C12.3589 37.9389 11.4999 42.9205 11.8865 44.5701C12.2094 45.9393 15.9415 45.0659 15.3929 46.3292C14.8427 47.5958 13.78 47.9982 15.3415 49.1807C16.21 49.8379 17.9207 50.0152 19 50.5935C19.8422 51.0459 20.4477 53.218 20.462 53.2696C17.7792 51.6366 17.1772 54.2262 16.2023 54.2006C16.4014 54.1982 14.3012 53.2168 14.1391 53.1994C13.814 53.3583 13.5557 53.4614 13.3391 53.5339C12.8107 53.8531 12.2236 54.0486 11.5052 54.2451C11.725 54.5729 11.7392 54.9372 11.9192 55.0474C10.8016 55.049 9.66399 55.0208 8.56011 55.0848C8.67612 56.1148 8.9701 57.1703 9.50282 58.1632C8.93139 58.1346 8.44117 58.2456 7.92853 58.0205C8.01326 58.1021 8.22928 58.3104 8.35427 58.3925C7.60331 59.4596 6.57306 58.87 6.43377 60.2919C6.3261 61.3921 7.56412 61.8228 7.87707 62.7738C5.75883 62.8765 5.30773 64.9949 7.32033 65.6978C9.09107 66.3168 11.8376 65.6509 13.7134 65.7937C12.2813 66.4807 9.91515 66.5158 8.92503 67.6394C10.4427 69.0988 14.7932 68.1907 16.89 68.2943C16.8818 68.3287 16.8792 68.8096 16.8854 68.8557C14.7008 70.2226 12.7765 72.1414 10.4315 73.5178C8.95719 74.3836 8.06926 74.5404 8.32386 76.8629C8.54098 78.8387 9.56707 79.1602 11.4327 79.6278C11.621 86.5938 20.3996 80.2419 23.2433 82.7764C23.1327 82.2214 23.084 81.6493 23.1147 81.0594C24.0757 80.4091 25.7708 79.0373 26.4574 78.0254L26.834 78.2126C26.8653 79.1965 26.0795 79.8443 26.0784 80.6477C26.0774 81.4341 26.61 82.347 26.834 83.0922C27.3667 84.8649 28.2714 85.9786 28.8644 87.3729C28.4837 87.3941 28.2269 87.6378 27.8001 87.6209C27.8748 88.8304 29.9786 88.6909 30.9276 89.1273C30.98 89.0787 30.9346 89.6303 30.9346 89.6303C30.815 89.6784 30.6903 89.6876 30.5627 89.6607C31.2273 91.0963 33.9439 90.881 35.468 91.5297C37.4947 92.3913 38.198 93.2254 40.7172 93.2233C42.5093 93.2217 43.8964 92.9475 45.3839 92.6244C42.8885 90.6973 41.4063 88.1954 41.7114 85.1577C44.1713 87.1452 45.2906 89.7463 48.7313 91.4712C50.9935 92.604 58.155 94.2946 57.0589 90.1823C58.089 90.6769 59.2432 91.0789 60.4999 91.001C60.6529 90.8997 60.5312 90.5585 60.5864 90.4115C60.88 90.4105 61.4069 90.4415 61.6788 90.346C62.2858 88.7515 58.5303 88.1771 60.5443 86.8653C61.6356 87.2634 62.7575 87.3586 64.0415 87.2887C64.1767 85.3228 64.8653 82.0773 63.0894 80.4793C63.4686 80.6895 63.8628 80.8719 64.3315 81.0313C64.975 82.4559 65.7001 84.0041 66.0883 85.5483C66.639 85.4022 67.2113 85.2159 67.4988 84.7319C68.2753 83.4273 66.7193 82.2763 67.8731 80.7927C69.3468 78.8975 73.3027 77.6208 75.265 77.0874C74.7402 76.6611 74.0361 76.159 73.569 75.6231C74.0576 75.7155 74.5724 75.5928 75.017 75.7494C75.419 73.9627 68.972 72.9928 67.8941 72.2102C70.3125 71.9514 72.9023 72.6194 74.8907 71.8336C74.371 71.9013 74.0576 71.6736 73.5784 71.6183C73.71 70.833 74.4314 70.7426 75.0217 70.1914C73.2923 68.9942 70.7484 69.7375 69.3047 67.8896C71.0824 67.2457 76.0449 65.3071 76.5632 63.2089C76.7173 62.5846 75.8198 61.5133 75.9784 60.7597C76.1213 60.0807 76.7351 59.4715 77.155 58.9305C78.0755 57.7416 78.4854 55.7957 79.3656 54.9468C79.9741 56.1516 78.7445 57.6052 78.6147 58.8884C78.4517 60.5025 78.9968 61.1752 79.7913 62.3995C80.3463 63.2553 81.482 64.6134 81.6276 65.6323C81.8644 67.2947 80.6793 67.6011 80.1633 68.8768C79.047 71.6388 81.6333 74.2018 80.0744 76.8605C78.9009 78.859 77.0209 80.4083 75.796 82.3389C74.4789 84.4148 73.8714 84.8858 71.4848 85.7214C69.9 86.2763 68.1508 87.1029 66.3596 87.2419C66.4605 89.0736 65.8478 90.832 63.7912 92.297C61.73 93.7639 59.4946 93.9821 57.5151 95.1297C54.7907 96.7088 55.6902 98.0798 51.6834 96.711C50.3023 96.6395 49.3603 94.932 48.3758 94.4537C48.3235 94.4806 48.2703 94.5063 48.2144 94.5332C46.1334 95.5188 41.776 95.1939 39.7324 94.2081C37.2968 93.0329 34.9038 92.4418 32.4598 91.5367C29.728 90.5246 26.6214 88.6241 24.7638 86.0957H24.6843C21.2054 86.0841 17.9557 85.3914 14.614 85.0477C11.1443 84.6906 10.2466 82.8754 8.38 80.2103C6.54986 77.5964 4.78527 76.1727 4.07819 72.9283C3.39979 69.8154 2.83253 66.7356 2.65829 63.4405C2.57879 61.9406 2.11568 58.938 2.6466 57.5574C3.11258 56.3469 5.02767 55.2633 6.00804 54.5796C6.20875 54.4397 6.43322 54.2751 6.67471 54.0977L6.56945 54.0135C5.16098 52.7093 4.01189 49.3068 3.75772 47.445C3.29171 44.0288 6.05893 43.4957 7.09577 40.8835C8.14538 38.2367 6.62124 34.8575 7.93555 32.3009C9.07526 30.0853 11.7404 28.2482 13.6479 26.7617Z" fill="#474747"/>
<path d="M20.3567 58.2661C20.1033 55.3771 23.093 49.3382 26.7428 52.1327C26.6904 55.2395 24.3586 57.1967 25.3673 60.4042C25.9747 62.3361 27.246 63.8673 27.4796 65.5434C28.3836 64.6362 29.1425 63.6874 30.1767 62.9258C31.156 62.2048 32.8428 60.3553 33.9008 60.3293C34.1938 66.1162 31.0135 68.8614 28.1369 73.2043C28.4746 73.2452 28.6614 73.4431 29.0235 73.4616C28.7889 73.9504 28.9474 74.1943 28.6492 74.3716C30.6844 74.8169 33.8759 71.2195 34.8762 69.747C34.8634 70.3134 34.6439 70.9176 34.2797 71.5248C35.3089 71.0096 36.0929 72.2211 35.6902 74.388C35.6802 74.443 36.2951 80.6037 38.2026 71.5809C38.587 69.7618 39.0804 70.0184 40.7967 68.8978C40.8526 68.7926 44.6638 62.1904 41.2739 60.217C53.7995 65.1478 46.1896 68.2928 40.6868 72.2242C40.1281 74.1429 40.5431 76.3775 39.6084 78.2009C36.5542 84.0357 30.5227 77.939 32.668 73.6909C32.7378 73.5264 32.8094 73.3826 32.8809 73.2371C30.4461 75.6046 26.4236 77.4642 24.5486 76.4348L25.4866 76.2476C24.6727 75.9177 23.7834 75.5505 23.8305 74.5915C24.538 74.163 25.3653 73.7267 25.4586 72.8979C24.0266 72.8688 20.1799 73.1456 19.8912 71.2137C21.6312 70.4131 22.629 70.6629 24.0316 69.1645C24.729 68.4206 25.3243 67.713 26.0036 66.9961C25.7573 66.8835 25.521 66.7611 25.3322 66.6148L24.8106 67.1505C22.8164 66.2181 20.5426 60.39 20.3567 58.2661Z" fill="#474747"/>
<path d="M62.128 79.8874C62.5091 80.0426 62.8262 80.2432 63.0894 80.4793C62.7718 80.3035 62.462 80.1092 62.128 79.8874Z" fill="#474747"/>
<path d="M58.9139 48.3807C59.3016 47.9379 59.5102 47.6438 60.2098 47.8567C58.9191 51.6105 63.5989 50.4138 65.6742 50.8158C69.8616 51.6277 65.012 53.6048 63.2718 53.8638C60.8863 54.2186 58.6539 55.0721 56.3642 55.6907C57.1547 55.8316 57.9401 56.125 58.5466 56.6825C60.0468 58.062 61.8907 59.1863 62.9186 60.8135C64.0705 62.6396 65.6571 65.407 64.8087 67.4522C64.1386 69.068 62.6705 71.4607 61.2297 72.4651L60.5841 71.9271C62.7601 69.5373 65.1817 63.7483 62.0414 61.6042C59.9972 60.2082 57.5938 60.0035 55.6624 58.9539C55.6624 59.1058 55.6592 59.2665 55.6507 59.4428C55.5877 60.7798 55.2424 62.7121 54.8718 63.9551C53.9556 67.0293 52.0961 69.9833 50.0132 72.3224C52.2887 75.3878 47.9587 77.1298 48.2752 76.3014C49.5005 73.0993 47.3208 71.9645 50.0857 69.0756C51.9997 67.0754 52.8565 65.4563 52.8507 62.5399C52.8485 61.2476 52.3491 58.866 52.5466 57.1433C51.2788 57.5585 50.1842 57.7328 50.1302 57.0427C52.0566 56.1526 52.582 54.2614 54.7454 53.5924C56.2277 53.1343 60.6263 53.9871 60.9537 51.9737C60.2418 51.9734 59.5305 51.7154 58.9467 51.3491C58.7857 50.1768 59.5751 49.2855 59.1034 48.1935L58.9139 48.3807Z" fill="#474747"/>
<path fill-rule="evenodd" clip-rule="evenodd" d="M36.3218 45.3116L36.4598 45.6976C36.4862 45.7577 36.4847 45.834 36.4973 45.9011C36.5073 45.9696 36.5149 46.0394 36.5207 46.1069C36.5323 46.1737 36.5137 46.2468 36.509 46.3151L36.4809 46.5186C36.4722 46.585 36.4419 46.6478 36.4224 46.7105L36.3522 46.8929C36.2867 47.0044 36.2185 47.113 36.1487 47.2134C36.0651 47.305 35.9806 47.3949 35.8938 47.4754C35.7985 47.5484 35.7072 47.6221 35.6131 47.6882C35.5139 47.7478 35.4112 47.8005 35.3136 47.8543L35.5218 47.59C35.5843 47.4984 35.6401 47.4035 35.6973 47.314C35.7458 47.219 35.7816 47.1189 35.8259 47.0286C35.854 46.9306 35.8785 46.833 35.9008 46.7409L35.9055 46.6005C35.9044 46.5542 35.9163 46.5096 35.9055 46.4648L35.8774 46.3338C35.8663 46.2915 35.8701 46.2472 35.8446 46.2075C35.8273 46.1724 35.812 46.1384 35.7979 46.1046L35.6832 46.1724L35.3019 46.4368L34.944 46.7198L34.6236 47.0286L34.3358 47.3561L34.0972 47.7023C34.0461 47.8108 33.992 47.9092 33.9335 48.0087L33.7464 48.4812L33.744 48.4836H33.7277L33.7347 48.4976L33.7323 48.5678L33.7206 48.7339C33.7153 48.8561 33.7154 48.9886 33.7206 49.1362C33.7307 49.4338 33.7649 49.773 33.7464 50.1935C33.7373 50.4025 33.7089 50.6447 33.6364 50.9117C33.593 51.0486 33.537 51.1968 33.4657 51.3374C33.3736 51.4809 33.2918 51.6342 33.1616 51.7538C33.0507 51.8627 32.9294 51.9664 32.806 52.0415C32.8487 52.1373 32.8957 52.2388 32.951 52.3456L33.1826 52.7807C33.2625 52.939 33.3532 53.1104 33.4353 53.3094C33.5178 53.5005 33.5972 53.7217 33.6528 53.9573C33.7119 54.1888 33.7491 54.4429 33.7534 54.6918C33.7613 54.8115 33.7552 54.953 33.7393 55.0965L33.716 55.307L33.6902 55.438L33.6645 55.562L33.6388 55.6837L33.6084 55.7842C33.5766 55.8771 33.5369 55.9756 33.5008 56.065C33.5284 56.0512 33.5536 56.0337 33.5803 56.0228C33.6956 55.9705 33.8186 55.9138 33.9218 55.8778L34.2353 55.7632L34.5183 55.6649C34.6001 55.6328 34.6961 55.6023 34.7686 55.569C34.839 55.5357 34.9215 55.5047 34.9861 55.4708C35.0384 55.4381 35.0965 55.4071 35.1499 55.3749C35.1419 55.2881 35.1316 55.2012 35.1265 55.1152C35.1413 54.8735 35.1539 54.6309 35.1756 54.3971C35.2148 54.1714 35.2593 53.9456 35.3043 53.7257L35.4657 53.0895C35.5218 52.8841 35.574 52.6773 35.6364 52.4719L35.7932 51.8614C35.8255 51.6644 35.8626 51.4616 35.9055 51.2509C35.9192 51.0369 35.9296 50.82 35.9476 50.6029C36.0194 50.808 36.0824 51.0143 36.1464 51.2205C36.1861 51.4355 36.2212 51.6607 36.2493 51.8895L36.2844 52.5515C36.2918 52.7689 36.2873 52.9843 36.2867 53.2018L36.2891 53.8334L36.3242 54.4345C36.3496 54.6249 36.3812 54.8101 36.406 54.9936C36.4621 55.1644 36.5144 55.3297 36.5604 55.4942L36.6587 55.838L36.4365 56.1211C36.3476 56.2342 36.2538 56.3474 36.1581 56.4579C36.0589 56.5582 35.9513 56.6458 35.8446 56.7386C35.7374 56.8247 35.6293 56.8888 35.5195 56.9632C35.4104 57.0347 35.3091 57.0842 35.2037 57.1457L34.6516 57.4474C34.5611 57.493 34.4991 57.5391 34.4271 57.5831C34.3506 57.6257 34.3052 57.672 34.2516 57.7141L34.2306 57.7305L34.123 57.8451L34.0692 57.9012C34.0488 57.9221 34.0308 57.9416 34.0364 57.9457C34.0364 57.9613 34.0335 57.9739 34.0294 57.9854L33.7721 58.4626C33.6805 58.5949 33.6102 58.721 33.4891 58.8533C33.3633 58.9796 33.2453 59.1276 33.0937 59.2182C32.9507 59.3098 32.7849 59.4339 32.6446 59.4779C32.4996 59.5371 32.3507 59.5926 32.2025 59.6439L31.7791 59.7913L31.3814 59.5106C31.1834 59.3719 30.9962 59.2677 30.7849 59.0474C30.7338 58.9953 30.6858 58.9538 30.6352 58.8907C30.5828 58.8219 30.5313 58.7496 30.4832 58.6755C30.3841 58.5447 30.3075 58.3397 30.2493 58.1422C30.1949 57.949 30.1882 57.7176 30.2025 57.5246C30.2274 57.3424 30.2687 57.1387 30.3264 57.01C30.3539 56.9387 30.3847 56.8642 30.4153 56.7971L30.5066 56.6264C30.5704 56.5056 30.6265 56.4228 30.6867 56.3293C30.9238 55.981 31.1267 55.732 31.2691 55.5176C31.339 55.4123 31.3928 55.3193 31.4235 55.2462C31.4379 55.222 31.4218 55.2036 31.4072 55.1877H31.4212L31.4399 55.1807L31.4516 55.1644L31.461 55.1339L31.4867 55.0076C31.4936 54.9696 31.5069 54.9185 31.5101 54.8907C31.5085 54.8765 31.5054 54.8623 31.5054 54.8486C31.5065 54.824 31.5146 54.7962 31.5101 54.748C31.5111 54.6601 31.5001 54.5761 31.4773 54.4813C31.4577 54.3882 31.4265 54.2863 31.3767 54.1679C31.3328 54.0542 31.2669 53.9257 31.1966 53.7819L30.9721 53.3117C30.8948 53.1433 30.8138 52.9595 30.7428 52.762C30.6694 52.5706 30.6049 52.3606 30.5557 52.1491C30.5012 51.9368 30.4771 51.7151 30.4528 51.4965L30.3405 50.4696L31.4352 50.3245C31.5207 50.3135 31.6282 50.315 31.6621 50.3011C31.6969 50.3011 31.7019 50.2965 31.7019 50.2965C31.7183 50.3023 31.7008 50.3007 31.7019 50.3128C31.7058 50.3273 31.6946 50.3167 31.7066 50.3292C31.7115 50.3211 31.7211 50.313 31.7346 50.2941C31.7574 50.2385 31.7863 50.1469 31.8048 50.0204C31.8435 49.7694 31.8569 49.4322 31.8961 49.0567C31.9146 48.8674 31.9432 48.6641 31.9849 48.4532C32.0124 48.3433 32.0398 48.235 32.0715 48.1257L32.1347 47.9549L32.1697 47.8707L32.1861 47.8286L32.2282 47.735L32.4879 47.2976C32.6157 47.118 32.7493 46.939 32.8855 46.7689C33.0263 46.625 33.1694 46.4891 33.3113 46.3526C33.4626 46.2298 33.6179 46.1134 33.7698 45.997C33.9302 45.8927 34.0953 45.7974 34.2563 45.6999C34.4236 45.6131 34.5938 45.5332 34.7616 45.4543C34.9344 45.3867 35.1115 45.3285 35.2832 45.2672L36.2166 45.0192L36.3218 45.3116ZM33.5873 48.4321V48.4368L33.6598 48.4415C33.6565 48.404 33.5903 48.4491 33.5873 48.4321Z" fill="#474747"/>
<path d="M40.5301 40.8765C43.8158 40.5502 43.2537 46.2557 43.3792 48.1748C44.7408 46.6607 46.4279 45.4566 47.8027 43.8917C47.9049 45.4778 47.7369 45.5984 46.9489 46.7339C46.4193 47.4969 45.5226 47.8738 45.8097 49.1035C46.9857 49.3031 48.2134 47.8324 49.1688 47.2555C50.2961 46.5756 51.7319 45.8179 53.0706 45.9713C53.2436 49.3527 52.213 49.4321 49.7559 51.0403C49.4165 52.458 50.783 53.0937 50.4834 54.3948C50.2853 55.2548 49.1048 55.9171 48.4132 56.2661C46.0427 57.4599 44.5989 56.4536 43.4985 59.417C41.742 59.9312 41.5208 58.3399 41.6552 57.0123H41.8424C41.8503 54.5355 42.5895 52.5707 40.9043 50.8205C39.0339 48.8774 39.0182 48.3515 41.8096 47.4099C42.151 46.0114 37.1349 41.2138 40.5301 40.8765Z" fill="#474747"/>
<path fill-rule="evenodd" clip-rule="evenodd" d="M51.9875 22.1301C52.9717 21.9205 53.7825 21.8436 54.7244 22.2587C55.5484 22.6214 56.3745 22.6094 57.101 23.1172C57.7401 23.5646 58.4024 23.9394 59.087 24.3196C59.8003 24.7162 60.2974 25.1857 60.9186 25.7301C61.6946 26.4107 62.4463 27.0297 63.0356 27.7746C64.5268 27.692 66.0462 27.8157 67.5456 27.7442C69.0067 27.6743 70.517 27.0866 72.0486 27.3699C73.8259 27.699 75.3213 28.9308 76.5211 30.3477C76.6269 29.551 76.6709 28.6931 76.8556 27.9266C75.4322 27.9964 75.3672 26.7483 74.7153 26.0085C74.0238 25.2246 72.9171 24.943 71.8567 24.9254C70.2704 24.8984 67.1148 25.7289 66.5748 27.5219C66.3974 27.5749 66.2101 27.5023 66.0438 27.5547L65.8567 27.3675C68.7504 24.5512 77.4185 21.3284 80.0627 25.7324C82.2794 29.4243 84.5634 36.3154 83.6791 40.8765C83.3264 42.6967 81.5444 45.6033 80.3036 46.9093C80.2417 46.7589 80.186 46.592 80.1352 46.4204C80.1119 46.4966 80.0951 46.5701 80.0697 46.6473C79.824 47.3935 79.205 48.0049 78.9375 48.7479C78.6025 49.6782 78.677 50.619 78.3831 51.5292C77.9011 53.0232 76.4591 54.1041 75.7679 55.4778C74.8973 55.6113 73.2342 55.5368 72.21 55.3C71.7296 55.2599 71.4358 55.2834 71.5152 54.6006C72.2987 54.4959 73.0568 54.5863 73.7 54.9304C73.7784 54.7586 73.9052 54.376 73.9433 54.1983C73.3699 53.8224 72.9551 53.2605 73.0146 52.5374C73.4134 52.5242 72.6506 52.3047 72.8275 51.2228C74.5048 51.0116 74.7614 49.6246 75.6556 48.6122C76.6857 47.4461 77.6827 47.0109 77.8358 45.2204C76.7894 45.2409 76.0677 44.4326 75.2369 44.4321C74.2166 44.4317 73.5408 45.1115 72.7948 45.5642C71.3427 46.4454 69.7627 47.2572 68.1327 47.5994C69.481 45.7559 68.421 45.5361 72.7667 44.5046C70.9025 44.4534 70.1253 45.272 67.0684 45.1619C68.7964 44.8494 70.3534 43.0007 71.4544 42.128C72.4816 41.3136 72.7994 41.1288 74.079 40.6566C74.1185 39.2547 73.5423 38.3939 75.1714 37.8659C70.9004 37.9411 74.6303 34.0676 74.6474 32.2658C71.3004 34.4167 71.5519 30.9095 69.0895 30.3945C68.679 31.3869 67.7415 31.7946 66.9678 31.005C67.1062 33.5188 66.2007 33.5208 65.0613 31.5477C64.7251 30.9654 64.4115 30.4378 64.1093 29.9243C64.6178 31.4098 65.1346 32.8322 65.9666 34.2004C66.9606 35.8352 67.1408 37.7215 67.045 39.6905C66.9941 40.7323 66.8265 41.4081 66.1538 42.1864C65.6126 42.8123 65.1396 43.3183 64.5444 43.8192C63.9158 44.3487 62.9469 46.2553 62.0414 46.1303L61.8543 46.1912C62.3814 45.7964 61.933 44.246 62.1771 43.6391C62.4487 43.664 62.5862 43.8983 62.7455 44.1186C63.3602 43.7336 63.977 43.1043 64.5303 42.6145C65.1304 42.0839 65.7582 41.6266 65.8567 40.7502C66.072 38.8313 65.5864 36.7555 65.2157 34.9489C65.0543 34.1608 64.5624 33.3733 64.3081 32.6074C64.029 31.7669 63.0942 30.3267 61.873 29.4635C60.8618 28.749 59.7809 28.3536 58.7946 27.6108C58.4436 27.3452 56.5906 24.7691 56.0343 24.9511C55.799 25.0281 55.6364 25.6467 55.3536 25.6459C55.1252 25.6432 54.9399 25.0835 54.7712 24.902C54.3253 25.2411 54.2275 25.2803 54.0367 25.8283C53.89 26.2488 53.719 26.6145 53.6507 27.0705C52.9554 27.2225 52.8111 25.6058 52.7735 25.1476C52.3069 25.4675 52.4557 25.6723 52.4249 26.1278C52.4081 26.3775 52.4395 26.4503 52.3337 26.6915C52.2674 26.842 52.0565 26.887 52.0249 27.1313C51.1846 27.2753 51.0584 25.9492 51.0869 25.4026C51.0383 25.3561 51.0071 25.3272 50.9606 25.2786C50.693 25.3665 50.2497 25.122 50.0787 25.2482C49.8626 25.4103 50.1778 26.381 50.2752 26.5722C50.1651 26.5998 50.0287 26.5852 49.9197 26.5699C49.7906 26.3773 49.5077 25.598 49.2717 25.5313C48.8191 25.4063 48.4527 26.1723 48.3968 26.5067C47.9244 26.5226 47.2723 25.6713 46.7453 25.8588C46.302 26.0189 43.4417 29.3725 43.0447 30.0717C42.5914 30.8686 41.8071 31.3158 41.3231 32.0413C41.3137 32.0554 41.3063 32.0721 41.2997 32.0904C41.3087 32.3961 41.3354 32.7084 41.3605 33.0167C41.4398 33.4776 41.5348 33.9884 41.4681 34.3127C41.3221 35.0211 40.1633 35.6084 39.5359 35.4893C39.5266 35.3046 39.5332 35.1181 39.5476 34.9302L39.0283 34.4975C39.3756 34.0186 39.6902 33.5037 40.0061 32.9863C40.3264 32.106 40.7529 31.2516 41.1032 30.4951C41.7413 29.116 42.643 27.8024 43.7652 26.7289C44.9312 25.6143 45.2864 25.0551 49.5196 22.8505C50.3351 22.427 51.0963 22.3207 51.9875 22.1301ZM77.4428 31.543C79.1341 33.9328 78.6741 36.3199 79.3609 39.0051C79.4874 39.4972 79.6216 39.9526 79.7539 40.3876C79.81 39.125 79.6836 38.3209 80.0697 37.4519C80.3644 36.7896 81.8641 35.9612 80.3364 35.4027C80.2866 34.5565 80.2423 33.5967 80.4112 32.8039C79.3542 32.5513 77.8891 32.8101 78.21 31.1477C77.8639 31.1746 77.4924 31.1365 77.1246 31.1079C77.2327 31.2525 77.3406 31.3979 77.4428 31.543Z" fill="#474747"/>
<path d="M31.3931 55.155C31.3873 55.1672 31.3965 55.1762 31.4072 55.1877L31.3884 55.1901C31.3931 55.1669 31.337 55.251 31.337 55.1339L31.3931 55.155Z" fill="#474747"/>
<path d="M28.3334 19.1125C33.8824 18.2794 39.2459 15.9057 45.2202 16.4856C46.0468 16.5663 49.2367 17.2273 49.4963 18.2119C49.6964 18.9755 47.2296 20.9501 46.8763 21.8938C45.3602 22.0907 45.0819 20.2467 44.0436 19.5382C43.0165 18.837 42.024 18.9561 40.7476 19.5335C41.9291 20.8739 43.3585 22.5937 44.2588 23.9617C42.033 23.3357 40.4514 21.1557 38.0505 20.654C36.8362 20.4003 35.2752 20.2331 33.9639 20.4248C31.9445 20.7203 32.5352 21.269 31.5288 22.4926C30.2811 24.0083 30.1549 22.7509 28.5323 22.8552C27.6877 22.9105 27.6696 24.7808 26.8808 25.1617C26.7203 25.239 26.5428 25.3594 26.3521 25.5055C26.3321 25.591 26.3199 25.6794 26.3194 25.7722C26.3173 26.0396 26.432 26.1007 26.3194 26.3827C26.2596 26.5326 26.074 26.6032 26.0363 26.8038C25.9924 27.04 26.2333 27.1998 26.0363 27.4143C25.8926 27.5695 25.7009 27.4701 25.4913 27.4588C25.8885 27.7014 26.2884 28.2185 26.2165 28.6728C25.8865 28.6516 25.4789 28.2027 25.1521 28.074C25.1484 28.3119 25.1719 28.5452 25.0539 28.7547C24.717 28.5926 23.514 27.9782 23.0819 28.0693C22.5063 28.1904 22.2351 27.8121 22.2304 28.2494C21.9641 28.2094 21.8055 28.0154 21.4913 28.081C21.6016 28.4241 24.1874 29.6832 24.1626 29.9921C24.1023 30.7236 23.2059 29.783 23.0024 29.653C22.6592 29.4337 22.7149 29.4928 22.4363 29.7231C22.2969 29.8382 22.0284 30.1095 22.0035 30.2752C21.9517 30.6259 22.2201 30.6413 22.3661 30.8974C22.4982 31.1308 22.5033 31.4155 22.4176 31.6764C22.1486 31.5752 21.4882 31.0407 21.1942 31.3886C20.9986 31.6202 21.2779 31.8652 21.3579 32.0436C21.4855 32.3306 21.5559 32.4628 21.5263 32.8015C21.2655 32.7549 20.9476 32.4761 20.7474 32.7594C20.6213 32.9374 18.8789 32.7625 18.9064 32.9489C18.9912 33.5155 19.0924 34.1646 19.283 34.6846L19.1895 34.2612C19.6396 35.3002 20.5489 36.4679 20.4924 37.6811C20.4824 37.6682 20.4665 37.6613 20.455 37.6507C20.6204 38.0795 20.7007 38.5366 20.8152 38.9841C20.955 38.5597 21.1877 38.1516 21.393 37.7817C21.8204 37.0117 21.6417 36.0128 22.4901 35.4752C23.333 34.9414 24.3017 35.0854 25.2012 34.7407C25.6002 34.5877 26.0153 34.3037 26.427 34.2167C26.906 34.1157 27.4003 34.1865 27.8656 34.0296C28.7727 33.723 29.7994 33.4195 30.7732 33.3723C31.2991 33.3469 31.6865 33.529 32.2118 33.529C32.7393 33.529 33.2452 33.4564 33.744 33.4331C33.8499 33.4284 34.0021 33.4432 34.1534 33.4776C35.125 33.2399 36.1153 33.2188 37.2061 33.6811C37.0979 34.3616 35.8973 34.563 35.344 34.7758C34.5392 35.0842 33.8077 35.1155 33.0165 35.3466C32.663 35.4498 32.3679 35.6722 32.0224 35.8168C31.6126 35.9878 31.1631 35.969 30.7756 36.1092C30.4589 36.2241 29.9993 36.4591 29.7837 36.6682C29.3913 37.049 29.687 37.1774 29.5732 37.7326C29.1294 37.4188 28.4796 37.1989 27.91 37.3911C27.7775 37.8393 28.1709 38.2182 28.5112 38.439C28.5121 38.7148 28.4092 38.9572 28.2165 39.1455C27.8278 38.949 27.4263 38.3745 27.0048 38.2776C26.5157 38.1664 25.9584 38.6031 25.6293 38.9232C24.3288 40.1898 26.2183 40.3832 26.2305 41.4379C25.9077 41.4198 25.5356 41.3706 25.2574 41.232C24.9636 41.0864 24.9626 40.7745 24.5369 40.8344C24.5459 41.3039 25.3708 41.4966 25.1919 41.997C24.7587 41.9165 24.4315 41.5754 23.9872 41.5315C24.2557 41.8074 24.6144 42.4419 24.4878 42.8671C24.0001 42.4504 22.4327 42.3479 22.8269 43.3467L22.6468 43.2578C22.6671 44.5276 23.3113 45.7568 23.6036 46.9912C23.8929 48.2115 24.7027 49.4984 24.4059 50.8134C23.9071 50.7841 23.696 50.5161 23.7463 50.0345C23.3609 49.9567 22.5418 50.2193 22.2983 49.7631C22.176 49.5333 22.4509 48.5424 22.462 48.2426C22.4749 47.8929 22.6939 47.0436 22.462 46.7783C22.1136 46.3816 21.4868 46.8268 21.124 46.8882C21.1851 46.4358 21.7631 46.3623 21.7626 45.8543C21.4279 45.9295 21.0028 46.0329 20.6702 45.99C20.7321 45.6163 20.997 45.8709 21.1427 45.6648C21.2889 45.4583 21.2427 45.3812 21.3041 45.1736C21.4293 44.7478 21.407 44.2838 21.2924 43.887C21.0938 43.2055 20.7413 42.5013 20.5205 41.8192C20.2975 41.1336 19.9491 40.3369 19.8983 39.5969C19.8578 39.0022 19.8171 38.0569 20.0246 37.4191L20.0199 37.4168C19.8876 37.2748 19.8678 36.9669 19.8 36.7922C19.6697 36.4566 19.4706 36.1478 19.3181 35.8191C19.1309 35.4147 19.1172 35.0656 19.0023 34.6331C18.9072 34.2759 18.5952 33.992 18.476 33.66C17.164 32.838 17.0045 30.9664 17.524 29.9687C17.6756 29.6778 18.0787 29.0082 18.2515 28.6845C18.2358 28.683 18.2184 28.6819 18.2023 28.6798L18.3029 28.5956C18.3912 28.4391 18.4865 28.2933 18.5906 28.1769C18.6293 28.134 18.6813 28.083 18.738 28.0295C18.5558 28.1561 19.8651 26.3339 22.0152 26.0786C22.0442 25.4238 21.4947 24.6598 21.5661 24.3687C21.806 23.3911 22.3182 23.8066 22.8878 23.2342C23.6926 22.4236 23.9683 21.206 24.7194 20.3757C25.6396 19.3591 27.1097 19.2967 28.3334 19.1125Z" fill="#474747"/>
<path d="M30.2446 41.597C32.165 40.1076 35.9767 37.1316 38.8482 37.5548C38.8145 38.7579 37.1807 39.3045 36.3897 40.1934C35.584 41.0999 35.0467 42.166 34.0762 43.0052C32.3 44.5401 29.8842 46.0008 29.2457 48.1327L29.1405 48.0064C24.5564 46.8443 28.0051 43.3334 30.2446 41.597Z" fill="#474747"/>
</svg>
