<svg width="20" height="20" viewBox="0 0 20 20" fill="none" xmlns="http://www.w3.org/2000/svg">
<path d="M14.272 4.768C14.0821 4.768 13.8965 4.8243 13.7387 4.92979C13.5808 5.03528 13.4577 5.18521 13.3851 5.36062C13.3124 5.53604 13.2934 5.72906 13.3304 5.91529C13.3675 6.10151 13.4589 6.27256 13.5932 6.40682C13.7274 6.54108 13.8985 6.63251 14.0847 6.66955C14.2709 6.7066 14.464 6.68758 14.6394 6.61492C14.8148 6.54226 14.9647 6.41922 15.0702 6.26135C15.1757 6.10348 15.232 5.91787 15.232 5.728C15.232 5.47339 15.1309 5.22921 14.9508 5.04918C14.7708 4.86914 14.5266 4.768 14.272 4.768ZM17.952 6.704C17.9364 6.04024 17.8121 5.38352 17.584 4.76C17.3806 4.22651 17.064 3.74342 16.656 3.344C16.2599 2.93394 15.7756 2.61934 15.24 2.424C14.6181 2.18893 13.9607 2.06177 13.296 2.048C12.448 2 12.176 2 10 2C7.824 2 7.552 2 6.704 2.048C6.03932 2.06177 5.38187 2.18893 4.76 2.424C4.22534 2.62132 3.74155 2.93565 3.344 3.344C2.93394 3.74014 2.61934 4.22435 2.424 4.76C2.18893 5.38187 2.06177 6.03932 2.048 6.704C2 7.552 2 7.824 2 10C2 12.176 2 12.448 2.048 13.296C2.06177 13.9607 2.18893 14.6181 2.424 15.24C2.61934 15.7756 2.93394 16.2599 3.344 16.656C3.74155 17.0644 4.22534 17.3787 4.76 17.576C5.38187 17.8111 6.03932 17.9382 6.704 17.952C7.552 18 7.824 18 10 18C12.176 18 12.448 18 13.296 17.952C13.9607 17.9382 14.6181 17.8111 15.24 17.576C15.7756 17.3807 16.2599 17.0661 16.656 16.656C17.0658 16.2581 17.3827 15.7746 17.584 15.24C17.8121 14.6165 17.9364 13.9598 17.952 13.296C17.952 12.448 18 12.176 18 10C18 7.824 18 7.552 17.952 6.704ZM16.512 13.2C16.5062 13.7078 16.4142 14.211 16.24 14.688C16.1123 15.0362 15.9071 15.3507 15.64 15.608C15.3805 15.8724 15.0666 16.0771 14.72 16.208C14.243 16.3822 13.7398 16.4742 13.232 16.48C12.432 16.52 12.136 16.528 10.032 16.528C7.928 16.528 7.632 16.528 6.832 16.48C6.30471 16.4899 5.77968 16.4087 5.28 16.24C4.94863 16.1025 4.64908 15.8982 4.4 15.64C4.13447 15.383 3.93187 15.0682 3.808 14.72C3.61269 14.2361 3.50435 13.7216 3.488 13.2C3.488 12.4 3.44 12.104 3.44 10C3.44 7.896 3.44 7.6 3.488 6.8C3.49159 6.28084 3.58636 5.76636 3.768 5.28C3.90884 4.94233 4.12501 4.64133 4.4 4.4C4.64305 4.12493 4.94343 3.90648 5.28 3.76C5.76764 3.58403 6.2816 3.49206 6.8 3.488C7.6 3.488 7.896 3.44 10 3.44C12.104 3.44 12.4 3.44 13.2 3.488C13.7078 3.49382 14.211 3.5858 14.688 3.76C15.0515 3.89492 15.3778 4.11428 15.64 4.4C15.9022 4.64574 16.107 4.94619 16.24 5.28C16.4178 5.76715 16.5098 6.28142 16.512 6.8C16.552 7.6 16.56 7.896 16.56 10C16.56 12.104 16.552 12.4 16.512 13.2ZM10 5.896C9.18865 5.89758 8.39597 6.13962 7.72212 6.59153C7.04828 7.04345 6.5235 7.68496 6.21411 8.435C5.90471 9.18505 5.82458 10.01 5.98384 10.8055C6.14309 11.6011 6.53459 12.3316 7.10886 12.9048C7.68313 13.4779 8.41441 13.868 9.21029 14.0257C10.0062 14.1834 10.8309 14.1017 11.5804 13.7908C12.3298 13.48 12.9703 12.954 13.4209 12.2792C13.8715 11.6045 14.112 10.8114 14.112 10C14.1131 9.46008 14.0074 8.92529 13.801 8.42636C13.5946 7.92744 13.2916 7.47425 12.9095 7.09284C12.5273 6.71143 12.0736 6.40934 11.5742 6.20394C11.0749 5.99854 10.5399 5.89389 10 5.896ZM10 12.664C9.47311 12.664 8.95805 12.5078 8.51996 12.215C8.08187 11.9223 7.74042 11.5063 7.53878 11.0195C7.33715 10.5327 7.2844 9.99705 7.38719 9.48028C7.48998 8.96351 7.7437 8.48883 8.11627 8.11627C8.48883 7.7437 8.96351 7.48998 9.48028 7.38719C9.99705 7.2844 10.5327 7.33715 11.0195 7.53878C11.5063 7.74042 11.9223 8.08187 12.215 8.51996C12.5078 8.95805 12.664 9.47311 12.664 10C12.664 10.3498 12.5951 10.6963 12.4612 11.0195C12.3273 11.3427 12.1311 11.6364 11.8837 11.8837C11.6364 12.1311 11.3427 12.3273 11.0195 12.4612C10.6963 12.5951 10.3498 12.664 10 12.664Z" fill="#323232"/>
</svg>
