<svg width="243" height="104" viewBox="0 0 243 104" fill="none" xmlns="http://www.w3.org/2000/svg">
<path d="M0 58.3114V57.4795L1.4973 56.9804C2.6064 56.5923 3.35505 56.0654 3.74324 55.4C4.13143 54.7345 4.32552 53.8472 4.32552 52.7381C4.38098 49.4108 4.40871 46.0557 4.40871 42.6729C4.40871 39.2902 4.40871 35.9074 4.40871 32.5246V29.1973C4.40871 25.87 4.40871 22.5426 4.40871 19.2153C4.40871 15.8325 4.38098 12.4775 4.32552 9.15015C4.32552 8.04104 4.15916 7.15375 3.82642 6.48828C3.54915 5.82282 2.88368 5.29599 1.83003 4.90781L0 4.24234V3.41051H40.2606L40.8429 17.2189H40.0111L35.2696 8.48468C34.7151 7.43103 34.0774 6.5992 33.3564 5.98919C32.6355 5.37918 31.6373 5.07417 30.3618 5.07417H16.9694C16.9139 9.01151 16.8862 13.032 16.8862 17.1357C16.8862 21.2394 16.8862 25.3154 16.8862 29.3636H25.5372C26.8127 29.3636 27.7554 29.0864 28.3654 28.5318C28.9755 27.9773 29.5577 27.1732 30.1123 26.1195L31.8591 22.9585H32.691V37.5156H31.8591L30.0291 34.3546C29.4746 33.3564 28.8923 32.5523 28.2823 31.9423C27.7277 31.3323 26.8127 31.0273 25.5372 31.0273H16.8862C16.8862 34.9092 16.8862 38.6247 16.8862 42.1738C16.8862 45.6675 16.9139 49.1058 16.9694 52.4886C16.9694 54.6513 18.023 56.0654 20.1303 56.7309L22.6258 57.4795V58.3114H0Z" fill="#D7D7D7"/>
<path d="M47.6828 58.3114V57.4795L48.681 57.1468C50.6774 56.4813 51.6756 55.095 51.6756 52.9877V8.48468C51.6756 7.37557 51.4537 6.54374 51.0101 5.98919C50.5665 5.37918 49.7901 4.93553 48.681 4.65825L47.5996 4.40871V3.57687L62.8221 0L63.8203 0.748648L63.4876 12.3943V40.8429C63.4876 42.8948 63.4876 44.9466 63.4876 46.9985C63.543 48.9949 63.5708 50.9913 63.5708 52.9877C63.5708 54.0968 63.7926 55.0118 64.2362 55.7327C64.6799 56.3982 65.4285 56.8973 66.4822 57.23L67.5636 57.4795V58.3114H47.6828Z" fill="#D7D7D7"/>
<path d="M95.4409 17.0525C99.0455 17.0525 102.123 17.8012 104.674 19.2985C107.225 20.7403 109.166 22.7367 110.497 25.2877C111.883 27.7832 112.577 30.6391 112.577 33.8555C112.577 34.4655 112.549 35.1033 112.493 35.7687C112.438 36.3788 112.327 36.9333 112.161 37.4324H87.3722C87.4276 43.4216 88.4813 47.7471 90.5331 50.409C92.6404 53.0154 95.7459 54.3186 99.8496 54.3186C102.622 54.3186 104.868 53.8749 106.587 52.9877C108.307 52.1004 109.915 50.7972 111.412 49.078L112.244 49.8267C110.525 52.8767 108.223 55.2613 105.34 56.9804C102.512 58.6996 99.101 59.5591 95.1082 59.5591C91.1709 59.5591 87.6772 58.7273 84.6271 57.0636C81.5771 55.3445 79.1925 52.9045 77.4734 49.7435C75.7543 46.5826 74.8947 42.8116 74.8947 38.4306C74.8947 33.8833 75.8929 30.0291 77.8893 26.8682C79.8857 23.6517 82.4366 21.2117 85.5422 19.548C88.7031 17.8844 92.0027 17.0525 95.4409 17.0525ZM95.1914 18.7162C93.5832 18.7162 92.1968 19.2153 91.0322 20.2135C89.9231 21.1562 89.0358 22.8754 88.3704 25.3709C87.7604 27.8109 87.4276 31.2769 87.3722 35.7687H101.596C102.151 29.7241 101.929 25.3709 100.931 22.709C99.9328 20.0471 98.0196 18.7162 95.1914 18.7162Z" fill="#D7D7D7"/>
<path d="M135.106 59.5591C132.943 59.5591 130.946 59.1432 129.116 58.3114C127.342 57.4795 125.928 56.1486 124.874 54.3186C123.876 52.4331 123.405 49.9653 123.46 46.9153L123.71 25.5372C123.71 24.2617 123.488 23.3467 123.044 22.7922C122.6 22.2376 121.907 21.8494 120.965 21.6276L119.966 21.2949V20.4631L134.856 17.5516L135.688 18.3835L135.272 30.1955V50.2426C135.272 52.0172 135.771 53.3204 136.769 54.1522C137.823 54.9841 139.126 55.4 140.679 55.4C142.232 55.4 143.618 55.1781 144.838 54.7345C146.058 54.2909 147.278 53.6254 148.498 52.7381L148.831 25.6204C148.831 24.3449 148.637 23.4576 148.249 22.9585C147.86 22.404 147.139 22.0158 146.086 21.794L145.254 21.5444V20.7126L159.811 17.5516L160.643 18.3835L160.393 30.1955V52.7381C160.393 53.9581 160.56 54.9009 160.892 55.5663C161.225 56.2318 161.946 56.7864 163.055 57.23L163.887 57.4795V58.3114L149.33 59.1432L148.581 54.2354C146.751 55.7327 144.755 57.0082 142.592 58.0618C140.485 59.06 137.989 59.5591 135.106 59.5591Z" fill="#D7D7D7"/>
<path d="M170.574 58.3114V57.4795L171.821 57.1468C172.93 56.8141 173.679 56.315 174.067 55.6495C174.511 54.9841 174.733 54.1245 174.733 53.0708V27.0345C174.733 25.8145 174.511 24.9272 174.067 24.3727C173.679 23.7626 172.93 23.3467 171.821 23.1249L170.574 22.7922V21.9603L184.881 17.1357L185.713 17.9676L186.461 25.1213V25.7868C187.238 24.234 188.236 22.8199 189.456 21.5444C190.732 20.2135 192.118 19.1321 193.615 18.3003C195.168 17.4685 196.693 17.0525 198.19 17.0525C200.298 17.0525 201.906 17.6348 203.015 18.7994C204.124 19.964 204.679 21.4335 204.679 23.2081C204.679 25.0936 204.124 26.5631 203.015 27.6168C201.961 28.615 200.686 29.1141 199.189 29.1141C196.859 29.1141 194.808 27.9495 193.033 25.6204L192.867 25.454C192.312 24.6777 191.674 24.2617 190.953 24.2063C190.232 24.0954 189.567 24.4281 188.957 25.2045C188.402 25.7036 187.931 26.3136 187.543 27.0345C187.21 27.7 186.877 28.4764 186.545 29.3636V52.5717C186.545 54.79 187.515 56.1763 189.456 56.7309L192.118 57.4795V58.3114H170.574Z" fill="#D7D7D7"/>
<path d="M224.197 59.5591C221.479 59.5591 219.039 59.2264 216.877 58.5609C214.714 57.9509 212.717 57.1745 210.887 56.2318L210.971 46.333H211.802L214.631 51.324C215.851 53.5422 217.182 55.2059 218.623 56.315C220.121 57.3686 222.006 57.8955 224.28 57.8955C226.942 57.8955 229.077 57.3132 230.685 56.1486C232.349 54.9286 233.18 53.3204 233.18 51.324C233.18 49.494 232.598 47.9967 231.434 46.8321C230.269 45.6675 228.106 44.6139 224.945 43.6711L221.452 42.5898C218.069 41.5916 215.407 40.0388 213.466 37.9315C211.525 35.8242 210.555 33.2455 210.555 30.1955C210.555 26.5354 211.997 23.4299 214.88 20.879C217.764 18.328 221.895 17.0525 227.274 17.0525C229.437 17.0525 231.461 17.3021 233.347 17.8012C235.288 18.2448 237.146 18.938 238.92 19.8808L238.421 28.8645H237.589L234.678 23.7072C233.624 21.8772 232.57 20.6017 231.517 19.8808C230.519 19.1044 228.994 18.7162 226.942 18.7162C225.056 18.7162 223.282 19.243 221.618 20.2967C219.954 21.3503 219.123 22.8476 219.123 24.7886C219.123 26.6741 219.816 28.1714 221.202 29.2805C222.644 30.3896 224.751 31.4155 227.524 32.3582L231.267 33.4396C235.26 34.6596 238.116 36.351 239.835 38.5138C241.554 40.6211 242.414 43.172 242.414 46.1666C242.414 50.2149 240.806 53.459 237.589 55.8991C234.428 58.3391 229.964 59.5591 224.197 59.5591Z" fill="#D7D7D7"/>
<path d="M55.7783 94.9732L47.9931 78.9329H50.6717L56.5301 91.715L62.4043 78.9329H65.0829L57.282 94.9732H55.7783Z" fill="#D7D7D7"/>
<path d="M67.2406 94.9732V78.9329H69.5276V94.9732H67.2406ZM68.3998 75.7217C68.1179 75.7217 67.862 75.6538 67.6322 75.518C67.4129 75.3823 67.2354 75.1995 67.0997 74.9698C66.9639 74.74 66.896 74.4894 66.896 74.2179C66.896 73.9464 66.9639 73.701 67.0997 73.4817C67.2354 73.2519 67.4129 73.0692 67.6322 72.9334C67.862 72.7976 68.1179 72.7298 68.3998 72.7298C68.6713 72.7298 68.9167 72.7976 69.136 72.9334C69.3553 73.0692 69.5329 73.2467 69.6686 73.466C69.8148 73.6853 69.8879 73.9359 69.8879 74.2179C69.8879 74.4894 69.8148 74.74 69.6686 74.9698C69.5329 75.1995 69.3553 75.3823 69.136 75.518C68.9167 75.6538 68.6713 75.7217 68.3998 75.7217Z" fill="#D7D7D7"/>
<path d="M74.0887 94.9732V78.9329H76.3757V81.2982C76.8874 80.3583 77.5453 79.6482 78.3494 79.1678C79.1639 78.677 80.1038 78.4316 81.1689 78.4316C81.6389 78.4316 82.114 78.4838 82.5944 78.5882C83.0852 78.6927 83.5082 78.8284 83.8632 78.9955L82.9234 80.9222C82.6101 80.7656 82.2498 80.6455 81.8425 80.562C81.4457 80.4784 81.0645 80.4366 80.699 80.4366C79.9576 80.4366 79.2579 80.6246 78.6 81.0005C77.9421 81.3765 77.4043 81.8673 76.9866 82.473C76.5793 83.0682 76.3757 83.7053 76.3757 84.3841V94.9732H74.0887Z" fill="#D7D7D7"/>
<path d="M92.7226 95.4744C91.2189 95.4744 89.8613 95.1089 88.6499 94.3779C87.449 93.6365 86.4934 92.6235 85.7833 91.339C85.0836 90.0546 84.7338 88.5873 84.7338 86.9373C84.7338 85.3083 85.0784 83.8567 85.7677 82.5826C86.4673 81.2982 87.4176 80.2852 88.6186 79.5438C89.8299 78.8023 91.198 78.4316 92.7226 78.4316C94.1742 78.4316 95.49 78.771 96.6701 79.4498C97.8501 80.1286 98.7482 81.0684 99.3643 82.2694V78.9329H101.651V94.9732H99.3643V91.5897C98.6751 92.801 97.7509 93.7513 96.5917 94.4406C95.4326 95.1298 94.1429 95.4744 92.7226 95.4744ZM93.2865 93.485C94.4875 93.485 95.5474 93.2083 96.4664 92.6548C97.3958 92.0909 98.1268 91.3181 98.6594 90.3365C99.192 89.3444 99.4583 88.2166 99.4583 86.953C99.4583 85.679 99.192 84.5511 98.6594 83.5695C98.1373 82.5879 97.4115 81.8203 96.4821 81.2668C95.5527 80.7029 94.4875 80.421 93.2865 80.421C92.0856 80.421 91.0204 80.7029 90.091 81.2668C89.1616 81.8203 88.4306 82.5879 87.898 83.5695C87.3654 84.5511 87.0991 85.679 87.0991 86.953C87.0991 88.2166 87.3654 89.3444 87.898 90.3365C88.4306 91.3181 89.1616 92.0909 90.091 92.6548C91.0204 93.2083 92.0856 93.485 93.2865 93.485ZM94.1637 76.3482L92.9889 75.4867L95.9652 69.5499L97.7666 70.8344L94.1637 76.3482Z" fill="#D7D7D7"/>
<path d="M113.282 103.589C111.256 103.589 109.544 103.192 108.144 102.398C106.745 101.604 105.706 100.445 105.027 98.9206L106.954 98.0277C107.445 99.1347 108.259 100.012 109.397 100.659C110.536 101.317 111.831 101.646 113.282 101.646C114.504 101.646 115.595 101.401 116.556 100.91C117.527 100.43 118.289 99.7299 118.843 98.8109C119.407 97.892 119.689 96.7902 119.689 95.5057V91.5897C119.02 92.801 118.102 93.7513 116.932 94.4406C115.773 95.1298 114.478 95.4744 113.047 95.4744C111.554 95.4744 110.201 95.1089 108.99 94.3779C107.789 93.6469 106.834 92.6392 106.123 91.3547C105.424 90.0702 105.074 88.603 105.074 86.953C105.074 85.3135 105.424 83.8567 106.123 82.5826C106.823 81.2982 107.773 80.2852 108.974 79.5438C110.186 78.8023 111.559 78.4316 113.094 78.4316C114.514 78.4316 115.804 78.771 116.963 79.4498C118.133 80.1286 119.041 81.0684 119.689 82.2694V78.9329H121.976V95.4118C121.976 97.1871 121.626 98.6804 120.926 99.8918C120.227 101.114 119.224 102.033 117.919 102.649C116.624 103.275 115.078 103.589 113.282 103.589ZM113.595 93.485C114.807 93.485 115.877 93.2083 116.807 92.6548C117.736 92.0909 118.467 91.3181 119 90.3365C119.532 89.3444 119.798 88.2218 119.798 86.9687C119.798 85.6946 119.532 84.5668 119 83.5852C118.467 82.5931 117.736 81.8203 116.807 81.2668C115.877 80.7029 114.812 80.421 113.611 80.421C112.41 80.421 111.345 80.7029 110.416 81.2668C109.486 81.8203 108.755 82.5931 108.223 83.5852C107.69 84.5668 107.424 85.6946 107.424 86.9687C107.424 88.2218 107.685 89.3444 108.207 90.3365C108.739 91.3181 109.47 92.0909 110.4 92.6548C111.34 93.2083 112.405 93.485 113.595 93.485Z" fill="#D7D7D7"/>
<path d="M133.011 95.4744C130.578 95.4744 128.839 94.9262 127.795 93.8297C126.751 92.7332 126.229 90.9004 126.229 88.3315V78.9329H128.516V87.9242C128.516 89.9501 128.86 91.3965 129.55 92.2632C130.239 93.1195 131.393 93.5477 133.011 93.5477C134.64 93.5477 135.794 93.1195 136.473 92.2632C137.162 91.3965 137.507 89.9501 137.507 87.9242V78.9329H139.794V88.3315C139.794 90.9004 139.272 92.7332 138.228 93.8297C137.194 94.9262 135.455 95.4744 133.011 95.4744ZM136.724 74.4685C136.337 74.4685 136.008 74.3328 135.737 74.0612C135.465 73.7897 135.33 73.4608 135.33 73.0744C135.33 72.688 135.465 72.3591 135.737 72.0875C136.008 71.816 136.337 71.6803 136.724 71.6803C137.11 71.6803 137.439 71.816 137.711 72.0875C137.982 72.3591 138.118 72.688 138.118 73.0744C138.118 73.4608 137.982 73.7897 137.711 74.0612C137.439 74.3328 137.11 74.4685 136.724 74.4685ZM129.33 74.4685C128.944 74.4685 128.615 74.3328 128.343 74.0612C128.072 73.7897 127.936 73.4608 127.936 73.0744C127.936 72.688 128.072 72.3591 128.343 72.0875C128.615 71.816 128.944 71.6803 129.33 71.6803C129.717 71.6803 130.046 71.816 130.317 72.0875C130.589 72.3591 130.724 72.688 130.724 73.0744C130.724 73.4608 130.589 73.7897 130.317 74.0612C130.046 74.3328 129.717 74.4685 129.33 74.4685Z" fill="#D7D7D7"/>
<path d="M141.952 94.9732L153.826 80.8126H143.174V78.9329H157.992L146.103 93.0934H157.632V94.9732H141.952Z" fill="#D7D7D7"/>
<path d="M160.628 94.9732V68.0305H162.915V94.9732H160.628Z" fill="#D7D7D7"/>
<path d="M174.979 95.4744C173.298 95.4744 171.794 95.1037 170.468 94.3623C169.152 93.6208 168.118 92.6131 167.366 91.339C166.615 90.0546 166.239 88.6134 166.239 87.0157C166.239 85.8147 166.453 84.6973 166.881 83.6635C167.319 82.6192 167.925 81.7055 168.698 80.9222C169.471 80.139 170.369 79.5281 171.392 79.0895C172.416 78.6509 173.507 78.4316 174.666 78.4316C176.253 78.4316 177.663 78.7814 178.895 79.4811C180.138 80.1703 181.12 81.1259 181.84 82.3477C182.571 83.5695 182.958 84.9793 182.999 86.5771C182.999 86.7024 182.994 86.8068 182.984 86.8904C182.984 86.9634 182.973 87.0574 182.952 87.1723H168.51C168.51 88.4255 168.792 89.5324 169.356 90.4931C169.92 91.4539 170.693 92.211 171.674 92.7645C172.666 93.3075 173.799 93.579 175.073 93.579C176.285 93.579 177.371 93.3284 178.332 92.8271C179.303 92.3154 180.112 91.5844 180.759 90.6341L182.451 91.5427C181.689 92.7854 180.65 93.7513 179.334 94.4406C178.029 95.1298 176.577 95.4744 174.979 95.4744ZM168.635 85.4492H180.712C180.577 84.4467 180.227 83.5643 179.663 82.8019C179.099 82.0292 178.384 81.4235 177.517 80.9849C176.661 80.5463 175.721 80.327 174.697 80.327C173.643 80.327 172.682 80.5463 171.815 80.9849C170.948 81.413 170.233 82.0135 169.669 82.7863C169.116 83.5486 168.771 84.4363 168.635 85.4492Z" fill="#D7D7D7"/>
<path d="M190.035 95.4744C188.835 95.4744 187.9 95.0724 187.232 94.2683C186.574 93.4537 186.245 92.3102 186.245 90.8378V80.6559H184.616V78.9329H186.245V72.9334H188.532V78.9329H192.526V80.6559H188.532V90.7125C188.532 91.6001 188.704 92.2789 189.049 92.7488C189.393 93.2188 189.884 93.4537 190.521 93.4537C191.137 93.4537 191.68 93.2814 192.15 92.9368L192.73 94.7539C192.375 94.9732 191.957 95.1455 191.477 95.2708C190.996 95.4065 190.516 95.4744 190.035 95.4744Z" fill="#D7D7D7"/>
</svg>
