<svg width="38" height="47" viewBox="0 0 38 47" fill="none" xmlns="http://www.w3.org/2000/svg">
<path d="M37.9098 17.9541C37.5959 14.5415 36.4418 11.272 34.5596 8.46391C32.6775 5.65582 30.1315 3.40489 27.1696 1.93029C24.2078 0.4557 20.9309 -0.192296 17.6582 0.0494061C14.3855 0.291108 11.2285 1.41427 8.49457 3.30952C6.14582 4.95066 4.17406 7.11501 2.72093 9.64709C1.26781 12.1792 0.369398 15.0161 0.0902333 17.9541C-0.183618 20.8729 0.167736 23.8188 1.1188 26.5781C2.06987 29.3373 3.5968 31.8407 5.58882 33.9067L17.4354 46.3091C17.6432 46.528 17.8904 46.7018 18.1627 46.8204C18.4351 46.939 18.7273 47 19.0224 47C19.3174 47 19.6096 46.939 19.882 46.8204C20.1543 46.7018 20.4016 46.528 20.6093 46.3091L32.4112 33.9067C34.4032 31.8407 35.9301 29.3373 36.8812 26.5781C37.8323 23.8188 38.1836 20.8729 37.9098 17.9541ZM29.2819 30.6134L19 41.3575L8.71809 30.6134C7.20283 29.03 6.04212 27.1154 5.31941 25.0073C4.59669 22.8992 4.32992 20.65 4.53828 18.4213C4.74798 16.1583 5.4363 13.9722 6.55346 12.0212C7.67063 10.0702 9.18873 8.40292 10.998 7.14001C13.3694 5.49392 16.153 4.61585 19 4.61585C21.847 4.61585 24.6306 5.49392 27.002 7.14001C28.8058 8.39804 30.3205 10.0579 31.4374 12.0004C32.5543 13.9429 33.2456 16.1197 33.4617 18.3746C33.6769 20.6108 33.4135 22.869 32.6905 24.9858C31.9676 27.1025 30.8033 29.0248 29.2819 30.6134ZM19 9.47568C17.0106 9.47568 15.066 10.0921 13.4119 11.247C11.7578 12.4019 10.4686 14.0434 9.70726 15.964C8.94597 17.8845 8.74678 19.9978 9.13488 22.0367C9.52299 24.0755 10.481 25.9483 11.8876 27.4182C13.2943 28.8881 15.0866 29.8892 17.0377 30.2947C18.9888 30.7003 21.0112 30.4921 22.8492 29.6966C24.6871 28.9011 26.258 27.5539 27.3632 25.8255C28.4685 24.097 29.0584 22.0649 29.0584 19.9862C29.0525 17.2005 27.9909 14.5307 26.1058 12.5609C24.2208 10.5912 21.6658 9.48185 19 9.47568ZM19 25.8253C17.8948 25.8253 16.8144 25.4829 15.8955 24.8413C14.9765 24.1996 14.2603 23.2877 13.8374 22.2207C13.4144 21.1538 13.3038 19.9797 13.5194 18.847C13.735 17.7143 14.2672 16.6739 15.0487 15.8573C15.8302 15.0406 16.8259 14.4845 17.9098 14.2592C18.9938 14.0339 20.1174 14.1495 21.1384 14.5915C22.1595 15.0334 23.0322 15.7819 23.6462 16.7421C24.2603 17.7024 24.588 18.8313 24.588 19.9862C24.588 21.5348 23.9993 23.02 22.9513 24.1151C21.9034 25.2101 20.482 25.8253 19 25.8253Z" fill="white"/>
</svg>
