<svg width="706" height="896" viewBox="0 0 706 896" fill="none" xmlns="http://www.w3.org/2000/svg">
<g filter="url(#filter0_f_25_14)">
<path fill-rule="evenodd" clip-rule="evenodd" d="M28.578 587.062C21.7166 584.256 16.0058 579.949 13.3939 573.676C9.67442 564.738 16.4368 557.248 24.9189 555.038C32.9096 552.955 41.7536 555.757 43.3354 564.968C43.8698 568.073 43.4604 571.104 42.482 573.979C41.1718 577.832 38.8142 581.396 36.642 584.422C44.6758 586.52 53.1794 587.077 58.7048 587.297C72.1821 587.82 85.7413 586.622 99.3177 585.092C108.386 576.428 118.575 569.026 129.466 563.648C143.172 556.886 157.981 553.341 173.083 554.525C178.695 554.97 184.246 555.943 189.672 557.468C195.111 558.993 200.43 561.076 205.567 563.726C209.002 565.501 212.36 567.501 215.566 569.774C218.803 572.072 221.885 574.644 224.73 577.533C231.936 584.843 236.634 592.558 239.53 600.576C240.211 600.537 240.905 600.752 241.491 601.251C241.879 601.583 242.521 601.813 243.275 602.072C246.995 603.344 252.658 604.248 255.296 605.686C262.252 609.48 268.855 613.904 274.885 619.155C280.953 624.441 286.44 630.542 291.12 637.671C299.482 650.363 304.645 664.297 307.507 678.921C308.425 683.63 309.106 688.406 309.576 693.237C315.183 702.081 320.394 711.127 325.225 720.421C332.944 735.279 339.69 750.783 345.521 767.133C345.409 765.676 345.323 764.219 345.258 762.762C345.077 758.63 345.086 754.484 345.258 750.319C344.422 739.997 343.663 729.72 342.521 719.477C341.228 707.929 339.448 696.43 336.496 684.969C330.078 660.156 317.135 634.043 310.985 607.519C306.701 589.043 305.658 570.376 312.076 551.772C316.144 539.925 322.631 530.103 330.298 521.381C330.574 521.068 330.85 520.755 331.13 520.442C326.367 507.877 321.825 495.238 318.609 482.238C318.226 480.693 317.864 479.143 317.519 477.588C310.834 471.775 304.727 465.521 300.167 458.153C294.396 448.834 290.982 437.804 291.711 423.802C292.176 414.913 294.362 407.076 297.775 400.133C276.178 406.45 259.287 402.059 250.365 393.659C248.71 392.119 243.301 386.008 239.638 381.006C238.142 378.962 236.944 377.075 236.31 375.706C236.039 375.124 235.858 374.582 235.741 374.098C235.591 374 235.44 373.907 235.289 373.809C233.643 372.763 232.005 371.687 230.388 370.563C228.755 369.424 227.147 368.235 225.583 366.979C224.936 366.461 221.553 364.549 221.837 363.4C221.488 363.239 221.157 362.994 220.872 362.672C220.631 362.403 220.437 362.1 220.295 361.777C214.623 365.991 208.877 369.732 202.723 371.678C195.853 373.853 188.47 373.873 180.108 369.932C170.962 365.625 163.536 357.597 158.14 347.931C152.843 338.436 149.503 327.371 148.413 316.791C148.214 314.943 148.128 313.085 148.111 311.232C147.857 311.848 147.577 312.459 147.271 313.051C144.879 317.715 141.836 319.089 138.866 318.781C134.953 318.37 130.815 314.386 128.255 309.931C125.126 304.495 123.105 298.109 122.062 291.484C121.031 284.967 120.945 278.225 121.648 271.972C122.044 268.446 123.096 264.32 125.16 261.523C126.785 259.328 128.979 257.861 131.914 257.812C132.53 257.803 133.134 257.832 133.724 257.896C133.306 256.096 133.069 254.341 133.125 252.713C133.289 247.98 135.379 243.903 141.724 242.123C142.499 241.903 143.284 241.737 144.077 241.605C145.189 241.419 146.314 241.301 147.43 241.199C149.154 241.033 150.895 240.901 152.636 240.832C154.404 240.764 156.166 240.749 157.92 240.822C160.644 240.935 163.377 241.248 166.092 241.693C168.769 242.133 171.432 242.71 174.057 243.345C177.54 244.196 181.044 245.105 184.487 246.24C186.832 247.012 189.151 247.887 191.409 248.914L197.602 253.133C197.891 252.669 198.227 252.234 198.594 251.823C201.542 248.562 208.037 247.565 211.287 247.159C212.136 247.051 213.006 246.968 213.877 246.944C211.89 245.174 209.955 243.33 208.058 241.429C198.059 231.386 189.284 219.623 181.686 207.576C176.897 200.017 172.286 192.023 168.575 183.579C166.071 177.864 163.976 171.948 162.519 165.812C161.412 161.162 160.692 156.102 160.683 151.076C160.679 145.898 161.437 140.764 163.278 136.124C164.976 131.822 167.471 128.199 170.363 124.923C176.479 117.99 184.513 112.705 189.737 104.975C199.214 90.9237 202.387 67.9443 212.136 53.1642C216.821 46.0601 222.924 40.7309 231.608 38.697C237.952 37.2106 244.068 38.5698 249.529 41.6989C254.8 44.7107 259.446 49.3995 263.058 54.7043C263.799 55.7946 268.183 62.6395 269.476 66.9762C270.045 68.8732 270.01 70.4964 269.614 71.7579C279.587 73.8113 289.422 78.8473 297.34 85.1641C302.038 74.4323 305.335 62.7764 310.537 52.4259C313.95 45.6397 318.148 39.3912 323.937 34.2282C331.57 27.4078 340.478 25.4032 348.818 27.2611C357.089 29.1043 364.804 34.7905 370.122 43.4737C374.79 51.0863 377.984 59.9944 380.246 69.4502C380.268 69.3573 380.29 69.2644 380.307 69.1715C382.927 56.9044 388.461 45.7179 399.322 36.8733C405.796 31.4511 413.265 28.5274 420.946 27.7597C428.592 26.9921 436.453 28.4002 443.767 31.7591C445.875 32.7174 451.09 34.8002 454.163 37.6702C454.779 38.2422 455.309 38.8534 455.757 39.489C455.697 37.46 455.775 35.475 456.02 33.5388C457.003 25.7943 460.503 18.8418 468.549 13.6152C474.079 10.0217 480.053 9.34206 485.923 10.5497C494.22 12.256 502.309 17.7857 508.399 23.7506C517.709 32.8592 524.208 43.8355 528.143 55.8093C528.941 54.7336 530.229 53.8976 531.971 53.5798C535.712 52.9002 542.254 54.4843 543.728 55.0612C549.861 57.452 554.848 61.9403 558.714 67.5629C562.451 72.99 565.14 79.4584 566.808 85.9953C571.295 103.523 571.084 121.515 567.64 138.853C564.235 155.999 557.68 172.51 549.379 187.241C538.759 206.27 525.669 223.485 510.671 238.094C495.616 252.757 478.622 264.794 460.072 273.184C441.013 281.848 417.886 285.28 398.43 295.259C393.728 297.674 389.25 300.481 385.112 303.864C385.16 303.859 385.207 303.854 385.255 303.849C387.483 303.62 389.707 303.282 391.909 302.95C422.881 298.294 452.119 286.409 479.35 269.077C495.288 258.932 510.399 247.071 524.747 233.855C526.389 232.34 528.031 230.809 529.673 229.259C536.44 220.439 544.806 212.308 554.064 205.825C559.628 200.52 565.261 195.279 571.002 190.253C581.816 180.788 593.017 172.09 604.874 165.181C611.779 161.157 620.86 157.099 628.725 157.877C634.518 158.449 639.72 161.465 643.198 168.672C645.5 173.439 646.745 178.705 647.284 184.137C648.056 191.95 647.362 200.115 646.366 207.556C645.78 211.942 644.974 216.205 643.97 220.351C647.97 227.851 650.594 236.285 651.874 245.091C655.176 267.84 649.448 293.069 635.315 310.787C630.574 316.737 625.075 322.106 619.049 326.526C612.994 330.965 606.408 334.446 599.517 336.583C596.289 337.58 592.319 338.646 588.544 338.597C585.712 338.563 582.988 337.913 580.678 336.304C578.35 334.686 577.269 332.417 576.954 329.914C576.566 326.794 577.523 323.196 578.708 320.272C580.484 315.872 582.923 311.755 585.673 307.844C589.634 302.216 594.241 297.024 598.362 292.003C610.559 277.125 622.209 261.655 630.536 244.191C633.945 237.038 636.798 229.553 638.893 221.637C632.915 211.34 623.954 203.19 611.891 199.083C596.28 193.768 579.479 197.518 564.459 206.089C561.425 207.82 558.464 209.746 555.598 211.844C548.538 218.659 541.582 225.553 534.639 232.198C531.988 235.586 529.587 239.092 527.48 242.646C518.58 257.666 512.903 274.485 503.589 288.541C502.844 289.666 502.072 290.78 501.275 291.871C502.745 292.272 504.111 292.805 504.568 292.981C507.326 294.042 510.072 295.425 512.752 297.014C516.657 299.332 520.424 302.075 523.872 304.827C530.389 310.02 536.608 316.547 541.754 323.983C546.943 331.483 551.051 339.893 553.279 348.781C555.236 356.565 554.969 364.089 552.628 370.543C550.249 377.095 545.75 382.585 539.151 386.086C531.048 390.418 522.221 391.459 513.429 390.34C500.59 388.707 487.798 382.414 477.553 374.914C459.744 361.982 442.802 343.55 423.562 332.637C414.515 327.503 404.951 324.081 394.517 323.846C400.128 328.897 405.818 333.864 410.809 339.497C415.558 344.86 419.704 350.796 422.678 357.861C426.518 366.979 427.936 376.938 427.656 386.942C427.385 396.715 425.501 406.533 422.721 415.597C417.86 431.468 410.455 445.456 401.387 458.007C392.401 470.44 381.785 481.465 370.394 491.512C365.683 495.678 360.752 499.746 355.83 503.902C356.546 504.689 357.244 505.486 357.925 506.297C365.597 515.401 370.299 526.338 372.993 538.072C376.945 555.273 376.557 574.204 374.906 591.453C372.794 613.929 368.726 636.057 364.502 658.157C364.666 669.71 364.433 681.244 363.912 692.665C363.869 693.604 363.821 694.542 363.778 695.481C364.256 694.572 364.748 693.677 365.248 692.797C366.028 689.232 366.954 685.879 368.01 682.735C368.17 682.036 368.329 681.341 368.489 680.647C377.385 642.501 392.771 606.859 417.817 576.971C437.384 553.581 460.36 534.166 485.087 517.963C509.718 501.819 536.082 488.858 562.584 478.424C568.881 475.94 575.286 473.667 581.76 471.672C582.066 471.579 582.372 471.481 582.678 471.388C582.591 471.09 582.54 470.767 582.527 470.435C582.484 468.699 583.268 466.69 584.807 464.895C586.781 462.588 590.026 460.427 591.306 459.537C596.112 456.207 601.456 453.919 606.994 452.619C612.472 451.333 618.144 451.01 623.661 451.582C627.282 451.954 630.872 452.575 634.449 453.313C642.552 454.975 650.581 457.244 658.736 458.461C677.432 461.248 695.883 464.079 713.24 470.699C724.881 475.138 736.04 481.274 746.457 490.217C752.116 495.072 756.969 500.773 761.033 507.133C765.08 513.47 768.347 520.457 770.851 527.903C771.636 530.235 773.442 534.596 773.786 538.278C774.006 540.654 773.648 542.8 772.584 544.389C771.653 545.783 770.274 546.487 768.653 546.594C766.421 546.746 763.593 545.563 762.102 544.971C758.891 543.695 755.861 542.018 752.913 540.155C748.664 537.476 744.586 534.406 740.35 531.677C726.178 522.569 710.253 512.595 693.72 507.691C682.811 504.454 671.636 503.442 660.55 506.444C647.866 509.896 638.151 517.352 629.98 526.822C617.351 541.456 608.344 560.812 597.926 577.993C591.043 589.36 583.324 599.535 574.601 608.423C565.856 617.332 556.107 624.954 545.176 631.193C534.979 637.011 524.364 641.626 513.429 644.574C502.426 647.537 491.099 648.813 479.54 647.928C461.334 646.545 438.379 647.713 417.08 656.23C399.391 663.305 382.841 675.489 371.252 695.657C371.204 695.887 371.157 696.122 371.114 696.356C370.958 697.148 370.584 697.823 370.084 698.317C364.287 730.786 362.83 764.688 363.761 798.047C364.144 811.546 364.58 825.515 365.786 839.366C366.873 843.82 367.898 848.318 368.791 852.806C370.484 861.314 371.687 869.796 371.928 877.888C372.238 879.11 372.566 880.323 372.902 881.535C373.398 883.335 372.514 885.251 370.928 885.818C370.467 885.98 369.997 886.014 369.553 885.931C369.334 885.98 369.105 886.004 368.872 885.999C367.39 885.955 366.183 884.709 365.967 883.105C365.855 882.934 365.756 882.748 365.67 882.552C360.356 870.114 351.732 861.089 342.694 852.503C333.13 843.424 323.1 834.839 315.554 823.706C311.774 818.132 308.602 811.932 306.395 804.736C305.632 802.247 304.994 799.739 304.464 797.216C288.569 790.435 271.971 782.617 258.089 771.235C251.188 765.578 244.948 759.046 239.771 751.345C239.069 751.438 238.332 751.267 237.69 750.807C235.117 748.93 232.793 746.578 230.647 743.992C227.66 740.384 225.01 736.326 222.385 732.624C215.304 722.646 208.899 711.552 201.382 701.773C196.499 695.432 191.146 689.648 184.798 685.14C172.527 676.472 159.386 673.587 145.922 673.435C125.178 673.206 103.718 679.273 83.3061 680.388C73.8888 680.945 63.5535 680.892 53.9121 678.462C47.2359 676.775 40.8916 673.949 35.3662 669.441C33.3966 667.842 31.5993 666.033 29.9055 664.097C27.4617 661.3 25.255 658.23 23.0914 655.145C22.432 654.201 21.7941 653.228 21.1907 652.236C20.5787 651.234 20.0012 650.202 19.4581 649.151C19.1478 648.549 17.9238 646.97 18.0703 646.54C17.9625 646.344 17.8677 646.134 17.7945 645.909C17.5359 645.102 17.5057 644.438 17.5746 643.924C16.6738 642.79 15.7946 641.577 15.0404 640.301C13.9672 638.477 13.1655 636.522 12.8035 634.493C12.6871 633.828 12.7518 633.168 12.9586 632.581C9.80804 626.616 9.20896 618.774 12.5406 610.13C13.9456 606.492 15.7817 603.241 17.8677 600.214C21.0916 595.531 24.9275 591.389 28.578 587.062ZM17.4712 631.031C17.9367 631.398 18.3116 631.911 18.5401 632.527C22.182 637.05 28.1471 639.436 35.0818 638.722C44.7793 637.725 53.2311 632.899 60.9417 626.401C72.7855 616.417 82.8837 602.517 92.8226 591.712C93.0639 591.448 93.3053 591.189 93.551 590.925C81.8494 592.113 70.165 592.905 58.5453 592.426C52.2657 592.172 42.3182 591.443 33.3147 588.73C29.3237 593.599 24.9792 598.132 21.4019 603.344C19.5486 606.042 17.9108 608.927 16.6652 612.169C13.8249 619.561 14.4327 626.22 17.4712 631.031ZM230.539 733.089C227.609 724.611 226.509 715.913 226.544 707.098C226.535 707.073 226.522 707.054 226.509 707.029C222.092 697.094 219.385 686.353 215.536 676.129C214.614 673.685 213.627 671.265 212.524 668.903C206.641 656.328 197.796 644.071 187.125 634.962C176.484 625.878 164.041 619.908 150.977 619.923C144.137 619.957 137.642 621.326 131.38 623.57C105.365 632.899 83.0432 656.108 55.0327 659.154C48.4126 659.897 42.1027 659.516 36.2498 657.629C34.3103 657.003 32.4226 656.216 30.5865 655.238C31.6683 656.749 32.7845 658.22 33.9612 659.623C35.405 661.34 36.9394 662.948 38.6289 664.376C43.5035 668.488 49.1452 671.089 55.0844 672.697C64.2474 675.171 74.1044 675.323 83.0864 674.927C103.576 673.919 125.139 668.165 145.956 668.312C160.282 668.414 174.273 671.25 187.422 680.3C194.271 684.989 200.081 691.056 205.399 697.73C213.11 707.406 219.756 718.402 227.048 728.278C228.199 729.838 229.354 731.461 230.539 733.089ZM303.119 789.178C302.408 783.502 302.145 777.757 302.176 771.983C302.249 755.79 304.615 739.342 305.546 723.506C306.033 714.495 306.007 705.538 305.274 696.757C294.607 679.811 282.466 663.613 268.734 647.801C260.882 638.771 252.447 630.029 243.439 622.113C243.452 622.456 243.461 622.798 243.465 623.14C243.866 641.612 238.517 661.129 235.005 680.564C233.604 688.308 232.496 696.043 232.229 703.69C232.742 704.819 232.681 706.115 232.169 707.147C232.173 716.622 233.612 725.936 237.565 734.942C243.211 747.815 251.675 757.735 261.558 765.759C274.04 775.894 288.767 783.032 303.119 789.178ZM363.127 865.254C363.101 865.098 363.076 864.941 363.045 864.785C362.951 864.785 362.851 864.775 362.757 864.761C362.882 864.927 363.002 865.093 363.127 865.254ZM359.403 860.6C358.77 858.18 358.572 854.439 358.378 853.198C357.598 848.098 356.899 843.004 356.3 837.899C355.878 834.315 355.503 830.727 355.175 827.123C351.555 822.053 346.909 818.02 341.789 814.617C331.845 808.011 320.144 803.802 310.175 799.631C310.468 800.702 310.783 801.768 311.123 802.834C313.213 809.375 316.183 814.998 319.7 820.034C327.143 830.688 337.013 838.774 346.4 847.399C350.943 851.574 355.369 855.877 359.403 860.6ZM364.519 700.219C364.119 699.857 363.808 699.402 363.606 698.894C363.42 702.453 363.222 706.003 363.011 709.557C363.476 706.433 363.976 703.318 364.519 700.219ZM589.53 469.423C593.461 468.367 597.413 467.423 601.374 466.612C602.827 466.313 608.753 464.715 612.179 465.233C614.196 465.536 615.563 466.597 616.153 467.99C616.459 468.709 616.584 469.716 616.14 470.938C615.834 471.789 615.097 472.987 614.037 474.317C610.787 478.395 604.223 484.443 603.357 485.362C597.612 491.483 591.539 497.057 585.259 502.308C575.911 510.135 566.106 517.254 556.24 524.407C548.064 530.338 541.741 537.779 536.263 545.939C522.816 565.97 514.304 590.167 497.413 607.866C488.091 617.645 477.493 625.101 466.097 630.484C454.749 635.847 442.612 639.152 430.147 640.648C421.657 641.665 405.417 644.814 391.789 657.105C386.815 661.589 382.203 667.299 378.449 674.579C389.151 662.928 401.831 655.013 415.11 649.82C437.25 641.167 461.059 640.101 479.928 641.69C490.931 642.609 501.723 641.465 512.218 638.707C522.773 635.94 533.031 631.545 542.892 626C553.443 620.065 562.869 612.79 571.329 604.263C579.811 595.716 587.319 585.909 594.03 574.942C604.65 557.566 613.903 538.019 626.747 523.224C635.518 513.118 645.935 505.188 659.516 501.526C671.321 498.318 683.225 499.345 694.849 502.772C711.766 507.764 728.096 517.865 742.608 527.145C746.84 529.849 750.918 532.89 755.163 535.545C757.887 537.246 760.68 538.786 763.641 539.945C764.356 540.229 765.447 540.703 766.589 541.016C767.089 541.148 767.597 541.25 768.076 541.265C768.36 541.275 768.657 541.392 768.817 541.158C769.386 540.297 769.149 539.016 768.899 537.686C768.343 534.758 766.998 531.638 766.386 529.844C764.007 522.867 760.917 516.315 757.094 510.385C753.292 504.488 748.763 499.203 743.479 494.71C733.471 486.217 722.769 480.424 711.611 476.248C694.539 469.863 676.402 467.252 658.038 464.641C649.788 463.473 641.655 461.248 633.462 459.63C630.044 458.955 626.614 458.388 623.161 458.055C618.2 457.581 613.11 457.909 608.197 459.102C603.331 460.285 598.637 462.319 594.427 465.287C593.577 465.883 591.672 467.14 590.095 468.611C589.88 468.817 589.699 469.12 589.53 469.423ZM378.798 661.638C381.647 657.78 384.737 654.46 387.948 651.595C402.775 638.385 420.342 635.001 429.54 633.96C441.448 632.615 453.059 629.555 463.92 624.509C474.743 619.483 484.824 612.496 493.707 603.295C510.434 585.938 518.834 562.064 532.173 542.39C538.039 533.736 544.823 525.869 553.551 519.611C563.352 512.575 573.101 505.588 582.393 497.883C588.539 492.784 594.487 487.371 600.116 481.426C600.978 480.516 607.744 474.4 610.744 470.518C610.106 470.474 609.374 470.454 608.783 470.518C606.046 470.806 603.115 471.608 602.189 471.799C595.737 473.09 589.311 474.742 582.949 476.678C576.575 478.624 570.269 480.854 564.067 483.284C537.828 493.59 511.701 506.361 487.328 522.359C462.998 538.336 440.422 557.531 421.2 580.609C401.348 604.478 387.767 632.058 378.798 661.638ZM358.938 687.595C357.378 696.2 355.917 704.824 354.654 713.488C353.18 723.599 351.995 733.759 351.249 744.007C351.094 746.187 350.973 748.363 350.904 750.534C351.538 757.618 352.219 764.727 353.085 771.86C353.318 773.757 353.563 775.654 353.835 777.556C353.9 775.087 353.977 772.623 354.068 770.159C355.033 744.236 357.412 718.392 358.718 692.342C358.796 690.763 358.869 689.179 358.938 687.595ZM352.18 507.011C346.784 511.641 341.47 516.428 336.561 521.606C342.017 535.789 347.659 549.904 351.852 564.376C357.813 584.921 361.317 606.321 363.088 627.951C363.304 630.625 363.498 633.3 363.666 635.979C366.411 621.043 368.821 606.047 370.338 590.881C371.971 574.238 372.467 555.957 368.666 539.349C366.17 528.446 361.808 518.271 354.68 509.823C353.869 508.869 353.033 507.93 352.18 507.011ZM385.319 324.462C384.496 324.589 383.669 324.736 382.832 324.907C382.147 325.039 381.475 324.917 380.893 324.594C381.337 333.072 378.212 340.313 373.247 346.366C369.855 350.502 365.588 354.071 361.166 357.108C361.076 357.21 360.981 357.308 360.89 357.406C350.999 373.863 338.168 388.369 329.091 405.174C323.019 416.424 318.709 428.764 318.398 443.588C318.178 454.208 319.377 464.451 321.476 474.439C331.608 483.259 343.047 491.097 352.387 500.323C357.49 495.957 362.614 491.688 367.502 487.327C378.544 477.446 388.841 466.631 397.517 454.437C406.124 442.341 413.132 428.881 417.679 413.637C420.217 405.125 421.933 395.923 422.114 386.771C422.286 377.794 420.971 368.866 417.455 360.726C414.722 354.399 410.916 349.124 406.598 344.342C400.098 337.15 392.478 331.043 385.319 324.462ZM495.922 298.427C493.715 300.828 491.323 303.087 488.698 305.184C479.928 312.19 469.95 317.011 459.516 319.837C449.146 322.643 438.323 323.47 427.79 322.507C422.493 322.027 417.127 321.084 411.744 320.13C416.7 321.856 421.484 324.174 426.13 326.917C445.396 338.284 462.308 357.083 480.126 370.436C488.177 376.425 497.9 381.705 507.964 384.184C517.843 386.619 528.049 386.36 537.212 381.427C542.638 378.488 546.366 373.971 548.28 368.544C550.193 363.121 550.288 356.819 548.59 350.331C546.444 342.171 542.565 334.485 537.694 327.65C532.794 320.766 526.885 314.757 520.722 310.005C517.968 307.883 515.002 305.771 511.934 303.898C508.938 302.07 505.835 300.476 502.719 299.346C502.21 299.161 498.848 299.718 498.499 298.393C497.706 298.828 496.758 298.867 495.922 298.427ZM518.618 246.895C506.925 257.045 494.737 266.29 482.031 274.47C465.825 284.899 448.779 293.582 430.824 300.163C424.6 302.446 418.286 304.309 411.912 305.854C405.563 307.394 399.154 308.616 392.707 309.628C391.849 309.76 390.991 309.897 390.125 310.029C392.508 310.112 394.9 310.308 397.292 310.582C407.671 311.78 418.101 314.498 428.307 315.491C438.198 316.454 448.374 315.745 458.132 313.173C467.847 310.606 477.148 306.196 485.337 299.733C490.841 295.391 495.228 290.233 499.004 284.605C506.731 273.072 511.972 259.626 518.618 246.895ZM381.557 310.909C381.488 310.909 381.419 310.914 381.346 310.914C381.38 310.948 381.41 310.983 381.44 311.022C381.479 310.983 381.518 310.944 381.557 310.909ZM641.957 227.67C639.936 234.261 637.419 240.563 634.514 246.636C625.984 264.457 614.106 280.278 601.633 295.454C597.586 300.383 593.047 305.477 589.16 311.002C586.638 314.581 584.393 318.346 582.764 322.379C582.048 324.149 581.376 326.232 581.337 328.198C581.307 329.664 581.704 331.053 583.018 331.962C584.652 333.097 586.591 333.478 588.591 333.502C591.944 333.537 595.461 332.539 598.323 331.645C604.766 329.635 610.921 326.364 616.58 322.199C622.26 318.013 627.437 312.924 631.902 307.296C645.034 290.727 650.305 267.18 647.155 245.98C646.202 239.576 644.478 233.386 641.957 227.67ZM529.85 61.7007C530.199 63.0795 530.518 64.4681 530.803 65.8664C534.014 81.5999 533.225 98.5508 528.816 114.954C525.139 128.776 519.597 141.385 512.955 153.242C503.072 170.877 490.733 186.826 478.385 202.515C474.101 207.977 469.773 213.448 465.386 218.889C457.8 229.998 448.71 240.231 439.155 249.784C434.199 255.246 429.135 260.575 423.945 265.728C416.377 273.238 408.537 280.366 400.357 286.952C419.041 278.777 440.336 275.521 458.184 267.723C476.299 259.768 492.987 248.318 507.697 234.144C522.42 219.96 535.16 203.073 545.551 184.489C553.465 170.207 559.723 154.239 562.873 137.665C565.994 121.247 566.045 104.237 561.649 87.731C560.106 81.9666 557.684 76.256 554.322 71.5037C551.081 66.9176 546.948 63.2311 541.866 61.339C541.052 61.0358 538.255 60.3709 535.656 60.1949C534.479 60.1117 533.001 61.1238 532.548 60.5518C531.88 61.4269 530.863 61.8621 529.85 61.7007ZM456.507 47.0331C455.887 47.7616 454.986 48.1674 454.029 48.05C452.374 47.8447 451.18 46.1628 451.357 44.2853C451.404 43.8502 451.068 43.5324 450.753 43.1608C450.098 42.3981 449.228 41.6989 448.292 41.0682C445.831 39.4108 442.983 38.1885 441.629 37.5138C435.169 34.3064 428.169 32.7859 421.321 33.2944C414.481 33.8028 407.796 36.3061 401.964 41.0096C392.211 49.1159 387.177 59.2561 385.013 70.4036C383.901 76.1386 383.526 82.1182 383.617 88.2052C384.918 98.0717 385.655 107.997 386.418 117.174C386.664 118.861 386.905 120.533 387.147 122.2C387.492 122.42 387.832 122.664 388.177 122.933C393.107 126.83 396.668 133.563 399.055 141.258C402.331 151.824 403.426 164.194 403.313 172.642C403.279 175.419 403.145 178.255 402.861 181.066C402.576 183.936 402.128 186.787 401.477 189.529L399.956 194.526C400.478 194.683 399.749 196.11 399.633 196.585C399.439 197.352 399.116 197.866 398.87 198.169C398.167 199.044 397.357 199.342 396.538 199.313C396.189 202.393 395.314 205.287 394.09 208.045C392.37 211.898 389.897 215.457 387.229 218.86C387.267 220.4 387.285 221.94 387.28 223.48C389.832 217.437 392.879 211.565 396.538 205.899C399.004 202.065 401.753 198.531 404.675 195.172C408.964 190.243 413.614 185.701 418.239 181.159C419.329 180.093 420.497 178.993 421.683 177.859C417.804 173.17 413.403 168.007 410.628 162.653C408.235 158.043 406.999 153.281 407.804 148.543C407.917 147.854 408.093 147.213 408.326 146.612C403.193 138.188 403.24 129.905 406.244 122.694C410.688 112.035 422.062 103.724 432.673 101.44C444.491 98.8784 455.331 101.475 464.123 107.62C464.403 106.437 465.231 104.843 465.325 104.462C466.067 101.548 466.416 98.4335 466.511 95.3044C466.605 92.0677 466.425 88.8115 466.101 85.7215C465.334 78.3877 462.3 69.7191 459.766 60.894C458.438 56.2639 457.244 51.5947 456.507 47.0331ZM469.605 112.158C469.739 112.29 469.877 112.422 470.01 112.554C479.497 122 485.578 136.198 486.16 152.244C486.763 166.912 484.164 180.343 479.363 192.756C490.039 179.296 500.499 165.523 509.072 150.421C515.554 139.004 520.946 126.83 524.549 113.483C528.695 97.9543 529.471 81.9079 526.385 67.0349C523.316 52.245 516.407 38.6285 505.283 27.8722C499.779 22.5576 492.517 17.556 485.057 16.0892C480.333 15.1554 475.523 15.6834 471.101 18.6169C462.507 24.3178 460.468 32.4094 461.197 41.2491C462.395 55.8435 470.381 72.2908 471.829 84.9099C472.217 88.3177 472.446 91.9113 472.377 95.4902C472.303 99.1815 471.911 102.848 471.071 106.3C470.903 106.99 470.338 110.3 469.834 111.63C469.765 111.82 469.687 111.996 469.605 112.158ZM301.046 88.347C301.473 88.7382 301.887 89.1342 302.296 89.5351C305.119 92.2828 307.705 95.3386 310.171 98.5313C313.761 103.176 317.097 108.109 320.588 112.769C324.333 117.765 328.251 123.593 332.863 128.214C335.767 131.128 338.953 133.553 342.582 134.863C347.012 136.457 351.046 136.555 354.899 135.538C358.886 134.487 362.67 132.262 366.502 129.324C369.808 126.791 373.704 122.958 377.773 121.398C378.703 121.036 379.643 120.782 380.591 120.66C379.557 111.517 378.57 102.12 378.389 92.9038C377.725 86.8265 376.867 80.7296 375.674 74.8087C373.622 64.6489 370.579 55.0074 365.718 46.9158C361.27 39.5184 354.796 34.5998 347.805 32.9717C340.849 31.3582 333.401 33.0059 326.984 38.6481C321.687 43.3124 317.855 48.9937 314.718 55.1492C309.365 65.6464 305.917 77.4685 301.046 88.347ZM263.468 70.8827C263.489 70.5112 263.567 70.1493 263.696 69.8071C263.058 69.4013 263.114 67.1914 262.442 65.8126C260.899 62.6395 258.847 59.4175 258.395 58.7379C255.352 54.1616 251.43 50.0693 246.943 47.434C242.616 44.8916 237.759 43.6938 232.694 44.8183C225.428 46.4366 220.32 50.8858 216.36 56.7822C206.498 71.4548 203.162 94.395 193.586 108.344C188.185 116.225 179.97 121.638 173.656 128.693C171.148 131.494 168.954 134.575 167.467 138.271C165.881 142.241 165.247 146.646 165.235 151.081C165.226 155.652 165.877 160.258 166.868 164.492C168.579 171.757 171.238 178.705 174.432 185.349C177.665 192.072 181.44 198.482 185.328 204.608C192.775 216.303 201.348 227.739 211.14 237.454C220.846 247.081 231.75 255.006 243.9 259.812C247.956 261.416 252.141 262.57 256.391 263.484C263.683 265.048 271.161 265.919 278.518 267.053C272.527 262.922 266.808 258.355 261.541 253.285C249.878 242.054 240.401 228.36 234.961 211.458C233.668 207.444 232.651 203.312 231.875 199.122C231.1 194.952 230.561 190.727 230.225 186.508C229.949 183.032 229.858 179.546 229.97 176.065C230.082 172.583 230.393 169.112 230.91 165.665C230.975 165.23 231.044 164.79 231.117 164.355C225.721 151.447 221.648 136.423 221.282 121.96C220.932 108.285 223.876 95.1088 232 84.5481C239.539 74.7208 249.585 70.7654 260.114 70.7556C261.226 70.7507 262.347 70.7947 263.468 70.8827ZM196.758 259.91C196.064 259.783 195.301 259.494 194.512 259.044C192.715 258.013 190.612 255.837 189.168 255.162C187.099 254.194 184.974 253.368 182.824 252.63C179.522 251.505 176.156 250.601 172.816 249.745C170.32 249.11 167.79 248.533 165.247 248.088C162.735 247.643 160.213 247.325 157.692 247.193C156.072 247.11 154.442 247.1 152.809 247.149C151.158 247.198 149.507 247.305 147.87 247.447L143.017 248.166C139.918 249.002 138.612 250.674 138.517 252.982C138.422 255.172 139.021 257.617 139.857 260.057C142.232 261.558 144.266 263.728 145.986 266.334C150.581 273.311 152.796 283.447 153.102 290.8C153.361 296.819 152.701 302.857 152.585 308.88C152.537 311.325 152.585 313.765 152.839 316.195C153.882 326.041 157.007 336.348 161.972 345.168C166.881 353.895 173.596 361.171 181.888 365.023C189.125 368.377 195.495 368.353 201.417 366.431C208.938 363.987 215.73 358.584 222.622 353.162C229.789 347.52 237.052 341.853 245.133 338.89C250.818 336.808 256.291 336.353 261.666 336.808C273.704 337.834 285.207 343.692 297.62 345.276C305.731 346.302 313.713 344.611 321.157 341.203C328.712 337.741 335.716 332.505 341.763 326.472C345.163 323.074 348.853 318.791 351.408 313.945C352.318 312.22 353.085 310.42 353.624 308.567C335.22 314.082 316.282 314.796 297.628 312.029C286.707 310.411 275.889 307.58 265.321 303.864C254.757 300.153 244.426 295.577 234.552 290.243C228.445 286.991 222.316 283.73 216.528 279.838C212.584 277.188 208.8 274.25 205.291 270.818C203.499 269.072 200.9 266.985 199.085 264.589C198.055 263.235 197.275 261.768 196.848 260.237C196.814 260.125 196.788 260.017 196.758 259.91ZM245.374 378.61C245.831 379.246 246.305 379.887 246.784 380.522C249.62 384.287 252.671 387.924 253.805 389.049C261.92 396.974 277.759 401.072 297.878 394.867C299.059 394.505 300.249 394.104 301.456 393.664C302.382 392.242 303.365 390.858 304.395 389.513C314.812 375.902 330.229 366.422 344.685 359.166C348.068 357.46 351.99 355.367 355.869 352.834C356.27 352.38 356.671 351.92 357.076 351.461C357.71 350.752 358.541 350.4 359.369 350.414C359.468 350.341 359.572 350.263 359.671 350.189C364.532 341.281 368.342 331.679 370.019 320.707C370.213 319.441 370.381 318.189 370.523 316.948C370.256 316.63 370.036 316.253 369.881 315.818C369.834 315.676 369.782 315.535 369.73 315.393C369.23 314.835 368.722 314.283 368.204 313.74C366.795 317.857 364.989 321.724 362.869 325.377C357.86 334.011 351.133 341.447 343.965 348.18C333.177 358.403 321.075 367.204 308.145 373.374C295.081 379.603 281.147 383.162 266.605 382.258C260.226 381.906 253.74 381.133 247.534 379.3C246.81 379.085 246.09 378.855 245.374 378.61ZM315.911 469.33C314.489 460.916 313.735 452.315 313.929 443.466C314.149 433.072 316.204 423.821 319.42 415.289C325.346 399.566 335.289 386.316 344.948 372.822C336.224 380.371 327.794 386.242 319.79 390.731C314.894 393.479 310.153 395.693 305.602 397.463C300.693 404.944 297.426 413.73 296.805 424.168C295.801 441.178 301.658 453.357 310.373 463.468C312.119 465.497 313.972 467.443 315.911 469.33ZM334.664 516.648C339.129 512.027 343.887 507.696 348.719 503.486C341.013 496.006 331.953 489.43 323.363 482.472C326.359 494.084 330.397 505.403 334.664 516.648ZM348.12 721.169C348.512 718.27 348.934 715.37 349.374 712.471C352.167 694.185 355.852 676.071 359.442 657.937C359.334 648.104 358.934 638.258 358.166 628.46C356.507 607.231 353.137 586.222 347.353 566.044C343.418 552.325 338.19 538.913 333.044 525.463C325.98 533.55 320.01 542.663 316.248 553.615C310.239 571.172 311.343 588.779 315.455 606.174C321.708 632.625 334.828 658.597 341.375 683.326C343.711 692.117 345.37 700.932 346.655 709.782C347.206 713.571 347.685 717.37 348.12 721.169ZM310.313 705.01C310.498 711.234 310.377 717.522 310.007 723.829C309.149 739.562 306.809 755.907 306.852 771.992C306.869 778.524 307.287 785.012 308.369 791.393C309.662 791.936 310.951 792.468 312.231 792.996C322.553 797.265 334.673 801.602 344.987 808.393C348.021 810.387 350.896 812.593 353.538 815.062C353.283 814.035 353.038 813.018 352.796 812.011C345.047 779.561 334.436 750.475 320.558 723.526C317.321 717.243 313.907 711.078 310.313 705.01ZM108.132 584.06C120.902 582.545 133.673 580.99 146.396 580.545C159.166 580.095 171.889 580.75 184.517 583.616C201.697 587.517 217.691 595.702 232.41 606.38C233.793 607.382 235.164 608.404 236.522 609.45C234.341 599.799 229.712 590.558 221.256 581.924C218.64 579.245 215.803 576.864 212.825 574.737C209.817 572.585 206.662 570.693 203.434 569.011C198.594 566.489 193.577 564.504 188.448 563.042C183.306 561.575 178.048 560.636 172.725 560.196C158.429 559.013 144.396 562.347 131.397 568.703C123.161 572.732 115.342 577.978 108.132 584.06ZM31.8924 582.965C32.3277 582.398 32.7544 581.826 33.1682 581.249C35.0689 578.609 37.1764 575.524 38.3186 572.155C38.9952 570.17 39.3228 568.082 38.9564 565.936C37.8617 559.59 31.4269 558.539 25.9188 559.976C20.3287 561.438 14.9886 565.613 17.4453 571.51C19.721 576.971 25.018 580.369 31.1037 582.672C31.3666 582.77 31.6295 582.867 31.8924 582.965ZM227.57 692.073C228.091 687.824 228.785 683.556 229.574 679.288C233.074 660.328 238.444 641.308 238.116 623.277C238.078 621.272 237.97 619.282 237.776 617.307C235.142 615.156 232.466 613.083 229.742 611.093C215.558 600.742 200.145 592.773 183.565 588.959C171.307 586.138 158.946 585.473 146.538 585.879C131.561 586.363 116.515 588.378 101.486 590.069C99.6367 591.859 97.8351 593.702 96.0896 595.594C85.9956 606.507 75.712 620.529 63.6915 630.611C55.287 637.661 46.0421 642.809 35.4869 643.865C31.5131 644.266 27.8152 643.797 24.5439 642.614C28.5004 647.078 32.9526 649.982 37.7971 651.644C42.9992 653.429 48.6367 653.82 54.5586 653.258C82.1985 650.549 104.373 627.878 130.044 618.745C136.733 616.364 143.642 614.828 150.943 614.75C165.036 614.53 178.544 620.725 190.15 630.332C201.581 639.798 211.157 652.588 217.588 665.794C218.808 668.292 219.907 670.849 220.937 673.445C223.359 679.557 225.354 685.874 227.57 692.073ZM374.372 323.132C373.26 329.537 371.454 335.492 369.157 341.13C372.894 336.289 375.251 330.574 374.48 323.832C374.45 323.592 374.415 323.357 374.372 323.132ZM425.031 174.52C426.049 173.444 427.036 172.334 427.949 171.166C429.768 168.853 431.298 166.335 432.117 163.504C433.195 159.803 432.074 155.955 430.035 152.782C427.872 149.423 424.652 146.778 421.484 145.805C419.773 145.282 417.515 145.267 415.571 145.952C415.239 146.069 414.912 146.211 414.606 146.372C414.506 147.233 414.123 148.049 413.472 148.626C413.093 148.964 412.666 149.179 412.222 149.281C412.205 149.355 412.192 149.423 412.179 149.497C411.576 153.066 412.67 156.61 414.481 160.077C417.131 165.162 421.282 170.051 425.031 174.52ZM385.884 246.655C384.604 258.722 382.682 270.783 381.195 282.684C381.117 284.009 381.048 285.334 380.983 286.664C383.936 283.569 387.065 280.679 389.961 277.76C398.004 269.649 406.555 261.831 413.972 252.918C418.804 247.115 423.157 240.842 426.553 233.704C430.156 226.091 432.708 217.823 433.216 209.575C433.72 201.449 432.238 193.348 427.798 185.975C427.023 184.684 426.053 183.33 424.962 181.922C423.764 183.1 422.579 184.244 421.476 185.354C416.998 189.852 412.489 194.35 408.343 199.235C405.641 202.417 403.089 205.771 400.809 209.399C394.418 219.593 390.069 230.457 387.086 241.751C386.66 243.379 386.259 245.012 385.884 246.655ZM382.251 224.947C380.234 227.387 378.303 229.787 376.686 232.203C372.846 237.967 371.2 244.264 371.217 250.64C371.239 257.162 373.01 263.758 375.945 269.977C375.975 270.04 376.001 270.104 376.027 270.172C377.092 260.526 378.673 251.036 381.091 241.829C381.44 238.549 381.729 235.273 381.936 231.997C382.087 229.646 382.195 227.294 382.251 224.947ZM395.56 188.278L395.732 187.74C396.327 185.32 396.736 182.812 397.012 180.279C397.297 177.688 397.439 175.077 397.495 172.515C397.659 164.668 396.758 153.168 393.797 143.326C392.082 137.64 389.711 132.487 386.349 129.118C385.94 129.456 385.457 129.69 384.923 129.778C383.173 130.067 381.548 128.698 381.281 126.723C380.673 126.771 380.065 126.923 379.466 127.148C375.824 128.507 372.389 132.027 369.42 134.262C365.002 137.591 360.619 140.046 356.042 141.209C351.339 142.407 346.426 142.27 341.047 140.28C336.767 138.701 332.992 135.865 329.578 132.404C324.82 127.578 320.76 121.52 316.898 116.304C313.446 111.644 310.153 106.706 306.602 102.056C304.3 99.0398 301.891 96.1453 299.249 93.5443C299.094 93.3927 298.943 93.2411 298.788 93.0945C297.094 96.4191 295.215 99.6167 293.038 102.619C289.34 107.728 284.996 111.517 280.333 114.69C269.954 121.76 257.921 125.583 248.559 135.122C244.775 138.99 241.926 143.972 239.806 149.374C238.047 153.858 236.793 158.634 235.94 163.328C237.677 167.308 239.539 171.063 241.444 174.5C249.197 188.469 259.27 200.525 270.445 211.419C287.293 227.846 306.636 241.639 324.415 255.304C336.246 264.384 348.779 273.722 358.972 285.305C363.502 290.448 367.571 296.036 370.937 302.221C370.881 301.722 370.924 301.204 371.075 300.71C370.476 289.279 367.743 278.821 363.338 269.199C361.084 264.276 358.395 259.572 355.33 255.07C347.952 248.968 339.164 244.46 331.496 241.028C326.686 238.876 320.764 236.97 315.618 234.002C311.752 231.768 308.309 228.946 305.895 225.147C302.482 219.774 302.469 213.971 304.227 207.972C304.481 207.106 304.77 206.236 305.098 205.366C303.167 203.175 301.361 200.907 299.758 198.565C293.137 188.904 289.81 177.986 293.784 166.13C296.728 157.344 302.219 155.593 307.572 157.368C314.45 159.651 321.277 168.961 321.67 177.243C321.889 181.888 320.234 186.909 317.881 192.028C315.993 196.13 313.657 200.32 311.83 204.466C319.708 212.69 329.031 219.613 335.224 225.015C342.987 231.782 349.977 239.072 355.891 246.958C359.274 249.427 362.472 252.17 365.304 255.211C365.17 253.671 365.11 252.136 365.131 250.601C365.23 242.822 367.355 235.17 372.157 228.242C374.958 224.199 378.708 220.244 382.195 216.039C381.897 208.094 380.884 200.188 378.824 192.36C378.208 190.038 377.432 187.686 376.484 185.413C371.338 186.611 366.054 188.713 362.235 189.177C359.597 189.505 356.757 189.124 354.313 187.916C351.684 186.616 349.495 184.386 348.37 181.105C346.594 175.947 347.823 171.84 350.404 168.985C353.964 165.049 360.477 163.68 365.343 165.783C369.178 167.43 372.407 170.178 375.079 173.566C376.523 175.395 377.803 177.414 378.928 179.546C381.052 179.169 383.121 178.998 385.018 179.203C389.728 179.707 393.663 182.083 395.56 188.278ZM381.251 184.635C382.048 186.669 382.729 188.747 383.294 190.815C385.043 197.171 386.13 203.596 386.72 210.054C387.009 209.619 387.289 209.179 387.561 208.734C390.198 204.442 391.987 199.743 391.521 194.243C390.97 187.696 388.272 185.139 384.531 184.679C383.483 184.552 382.384 184.547 381.251 184.635ZM399.909 194.693L399.904 194.697C399.904 194.697 399.904 194.693 399.909 194.693ZM397.137 192.429C397.913 192.634 398.616 193.177 399.055 194.013C398.478 192.903 397.779 192.517 397.137 192.429ZM295.594 270.431C310.494 273.952 326.842 279.095 341.78 286.585C347.275 289.343 352.581 292.418 357.559 295.846C358.425 296.3 359.278 296.775 360.123 297.264C358.386 294.819 356.533 292.482 354.585 290.228C344.758 278.846 332.613 269.649 321.178 260.677C303.339 246.709 283.949 232.579 267.066 215.843C255.598 204.471 245.279 191.901 237.362 177.39C236.491 175.796 235.625 174.133 234.78 172.412C234.686 173.688 234.625 174.964 234.591 176.241C234.505 179.497 234.604 182.758 234.879 186.009C235.224 190.023 235.754 194.037 236.513 197.998C237.263 201.929 238.241 205.806 239.478 209.561C244.728 225.47 253.787 238.29 264.881 248.777C274.057 257.451 284.617 264.53 295.594 270.431ZM374.622 287.333C374.514 287.348 374.411 287.358 374.303 287.363C374.286 287.363 374.273 287.363 374.26 287.363C374.337 287.769 374.411 288.174 374.484 288.58C374.523 288.267 374.562 287.959 374.6 287.646C374.609 287.544 374.613 287.441 374.622 287.333ZM309.701 210.235C308.632 214.069 308.472 217.799 310.675 221.217C312.563 224.15 315.299 226.243 318.312 227.954C323.303 230.79 329.048 232.56 333.707 234.608C336.164 235.689 338.72 236.872 341.314 238.182C338.401 235.229 335.332 232.374 332.13 229.606C326.169 224.458 317.446 217.926 309.701 210.235Z" fill="#5A5A5A"/>
</g>
<defs>
<filter id="filter0_f_25_14" x="0.303894" y="0" width="783.544" height="896" filterUnits="userSpaceOnUse" color-interpolation-filters="sRGB">
<feFlood flood-opacity="0" result="BackgroundImageFix"/>
<feBlend mode="normal" in="SourceGraphic" in2="BackgroundImageFix" result="shape"/>
<feGaussianBlur stdDeviation="5" result="effect1_foregroundBlur_25_14"/>
</filter>
</defs>
</svg>
