<svg width="587" height="991" viewBox="0 0 587 991" fill="none" xmlns="http://www.w3.org/2000/svg">
<g filter="url(#filter0_f_25_17)">
<path fill-rule="evenodd" clip-rule="evenodd" d="M187.436 99.4119C185.668 95.3787 184.319 91.0374 183.389 88.3114C180.376 79.5755 178.347 69.9575 177.787 60.2969C177.232 50.5567 178.157 40.7792 181.127 31.8095C182.726 26.958 185.086 21.9365 188.54 17.967C190.976 15.1666 193.941 12.8764 197.546 11.4842C203.616 9.1142 209.98 10.0601 215.979 12.7808C221.581 15.3208 226.862 19.4336 231.169 23.5837C231.202 22.59 233.568 20.5495 233.785 20.2998C234.84 19.0829 236.037 18.0042 237.348 17.0637C238.593 16.1657 239.926 15.3792 241.296 14.6937C245.985 12.3557 251.282 10.8359 256.672 10.262C262.078 9.68812 267.577 10.0441 272.646 11.4576C282.495 14.1729 291.252 19.5878 298.687 26.4798C306.002 33.2655 312.055 41.4753 316.504 49.9828C324.695 65.1962 329.231 81.7276 330.977 98.6149C331.293 101.649 331.521 104.699 331.657 107.749C331.749 107.659 331.831 107.574 331.902 107.494L336.671 102.983C338.619 101.277 340.615 99.6298 342.649 98.0197C345.667 95.6391 348.762 93.3436 351.889 91.0905C359.977 85.24 368.853 80.0749 378.273 76.5094C387.829 72.896 397.94 70.9193 408.399 71.5676C414.169 71.9076 420.364 73.252 426.102 75.5742C431.933 77.9388 437.29 81.313 441.293 85.7023C443.811 88.4282 446.873 91.9991 448.63 96.5371C449.048 96.5584 449.494 96.5265 449.951 96.4681C452.888 96.0801 456.206 94.9111 459.067 94.842C463.222 94.7464 467.41 94.9749 471.582 95.4319C475.688 95.8783 479.778 96.5425 483.786 97.3183C487.626 98.0622 491.428 98.9656 495.126 100.156C498.895 101.367 502.561 102.866 506.036 104.816C515.174 109.933 523.593 117.468 525.622 125.848C527.036 131.699 525.605 138.059 519.144 144.452C517.877 145.722 516.517 146.902 515.103 148.012C513.036 149.633 510.844 151.105 508.625 152.518C491.819 163.364 467.834 170.16 449.815 182.366C444.164 186.192 439.128 190.581 435.174 195.847C436.213 195.613 437.246 195.385 438.285 195.167C456.467 191.272 474.981 188.934 493.217 188.689C509.169 188.403 526.438 190.581 541.291 197.154C551.44 201.644 560.457 208.18 567.24 217.352C570.682 221.996 573.859 227.64 575.496 233.527C576.654 237.699 577.024 241.998 576.252 246.185C574.413 256.17 566.337 261.68 557.613 262.557C552.468 263.072 547.121 261.935 542.7 259.156C543.978 263.869 544.108 268.827 542.694 273.137C541.084 278.057 537.544 282.202 531.474 284.381C527.471 285.826 523.267 286.767 518.965 287.436C518.834 287.776 518.698 288.074 518.665 288.185C518.383 289.195 518.051 290.194 517.665 291.172C517.289 292.133 516.871 293.079 516.414 294.004C515.5 295.853 514.483 297.639 513.379 299.376C511.769 301.911 509.99 304.345 508.158 306.736C504.573 311.423 500.549 315.53 496.198 319.255C489.764 324.75 482.617 329.41 475.122 333.852C464.005 340.489 452.584 346.595 441.483 353.221C434.157 357.589 426.978 362.196 420.087 367.26C403.759 379.434 389.934 392.99 373.634 402.326C362.522 408.692 350.279 413.135 335.382 413.953C330.662 414.213 325.837 414.319 321.111 413.783C317.804 413.405 314.552 412.709 311.397 411.562C310.288 411.147 309.505 410.26 309.195 409.224C308.7 409.314 308.21 409.394 307.715 409.468C299.361 410.706 290.811 409.659 282.463 405.148C281.353 404.542 280.69 403.453 280.592 402.294C280.227 402.108 279.945 401.869 279.722 401.604C274.566 403.091 269.034 403.761 262.921 403.485C260.49 403.378 258.026 403.187 255.584 402.863C254.241 402.682 252.903 402.464 251.581 402.193C255.802 409.691 260.914 415.871 264.596 423.449C266.418 427.195 267.919 431.255 268.839 435.926C271.319 448.413 271.286 461.001 269.79 473.526C269.72 474.1 269.649 474.674 269.573 475.248C272.619 467.803 274.821 459.976 276.165 452.005C278.705 436.908 278.139 421.302 274.354 406.795C273.869 404.871 275.071 402.927 277.04 402.454C279.004 401.976 280.994 403.155 281.484 405.079C285.247 420.537 285.59 437.116 282.642 453.094C279.896 467.994 274.305 482.384 265.978 494.856C263.427 505.994 260.174 516.983 256.987 527.695C252.914 541.548 248.584 555.322 244.206 569.079C237.652 589.697 230.93 610.261 224.175 630.831C220.335 642.628 216.718 654.483 213.705 666.471C210.708 678.406 208.304 690.473 206.814 702.743C206.662 703.981 206.526 705.219 206.395 706.463C206.281 708.849 206.183 711.234 206.096 713.62C206.276 712.85 206.455 712.074 206.64 711.304C212.286 687.816 221.472 665.041 233.867 642.25C241.857 627.547 251.233 613.391 262.274 600.712C273.385 587.954 286.183 576.689 300.971 567.857C315.765 559.009 331.613 552.426 346.342 543.812C352.493 540.209 358.449 536.25 364.034 531.601C367.352 528.838 370.458 525.872 373.416 522.769C376.402 519.639 379.241 516.377 381.999 513.04C382.412 512.535 387.557 505.962 389.733 503.448C390.249 502.858 390.646 502.449 390.853 502.274C392.49 500.892 393.964 501.912 394.339 502.242C395.014 502.832 395.623 504.155 395.356 505.967C395.036 508.151 393.562 511.69 393.311 512.423C391.924 516.52 390.309 520.521 388.531 524.454C386.752 528.365 384.811 532.206 382.755 535.995C374.341 551.501 364.181 566.204 352.939 580.1C341.724 593.953 329.432 606.999 316.684 619.21C297.11 637.978 277.301 656.072 260.403 676.509C249.291 689.942 239.447 704.401 231.762 720.746C224.686 735.795 219.302 751.63 215.843 767.848C212.389 784.039 210.861 800.608 211.486 817.16C211.649 821.427 211.959 825.71 212.378 829.988L213.547 836.694C213.961 833.33 214.439 829.972 214.994 826.603C216.99 814.509 219.965 802.303 224.648 789.565C233.051 766.647 245.985 746.88 260.996 728.547C283.251 701.367 310.108 677.359 333.376 650.784C337.835 645.683 342.083 640.428 346.157 635.045C350.247 629.651 354.163 624.136 357.959 618.535C358.454 617.807 362.065 611.335 364.018 609.23C365.465 607.663 367.074 607.684 367.803 607.955C369.152 608.46 370.583 610.495 371.083 613.699C371.562 613.891 372.051 614.156 372.541 614.518C374.673 616.08 377.468 619.938 377.952 620.634C380.726 624.662 382.961 629.072 384.734 633.658C386.48 638.175 387.775 642.867 388.71 647.527C392.164 664.659 393.175 682.604 391.598 700.299C390.015 718.015 385.838 735.487 378.85 751.63C370.539 770.909 357.665 786.638 342.154 799.683C327.518 811.984 310.522 821.911 292.71 830.046C260.213 874.395 225.627 918.622 209.691 960.538C209.539 961.866 209.36 963.195 209.147 964.512C208.99 967.121 208.718 969.964 208.217 972.063C207.902 973.397 207.407 974.492 206.841 975.337C206.901 975.703 206.967 976.07 207.026 976.431C207.347 978.387 205.977 980.225 203.975 980.533C203.883 980.549 203.79 980.56 203.698 980.565C202.784 981.049 201.675 981.15 200.636 980.762C200.152 980.581 199.733 980.31 199.385 979.975C197.65 979.391 196.644 977.691 197.106 976.011V975.958C197.563 974.178 198.069 972.393 198.607 970.602C196.268 957.812 192.864 944.862 188.36 932.305C183.036 917.469 176.188 903.191 167.791 890.379C157.337 874.496 145.491 859.724 133.711 845.026C121.697 830.035 109.797 815.098 99.6096 799.035C90.9129 785.325 83.4237 770.813 78.2187 754.733C74.1777 742.32 69.5765 727.415 67.8469 712.76C66.6449 702.546 66.8461 692.445 69.4894 683.321C70.1148 681.164 73.9438 671.737 78.3655 666.418C81.4929 662.65 85.1913 661.088 88.3567 662.14C88.3512 655.376 88.5579 648.611 88.9441 641.868C89.042 640.12 88.8244 630.183 90.0264 624.635C90.7225 621.431 92.3379 619.507 93.7738 619.093C95.0138 618.737 96.1722 619.034 97.1186 620.134C97.5918 620.682 98.0541 621.686 98.3369 622.887C98.7448 624.656 98.8808 626.989 98.9189 627.356C99.3214 631.012 99.7619 634.662 100.262 638.308C100.763 641.942 101.323 645.572 101.959 649.19C103.732 659.223 105.995 668.862 109.166 678.183C112.309 687.445 116.361 696.393 121.713 705.124C141.706 737.729 166.491 769.017 186.065 802.696C192.559 813.876 198.482 825.317 203.48 837.151C203.317 836.184 203.17 835.211 203.034 834.233C201.718 824.769 201.517 814.636 201.375 804.976C199.874 797.727 198.128 790.57 196.181 783.46C193.157 772.391 189.655 761.439 185.875 750.445C175.514 720.396 162.754 690.553 154.357 659.834C148.706 639.153 145.013 618.067 145.377 596.238C145.502 588.06 146.003 579.526 147.564 571.263C148.619 565.646 150.169 560.152 152.415 554.971C153.769 551.836 155.586 548.557 158.044 545.991C159.85 544.115 161.993 542.622 164.538 541.761C168.405 540.459 172.12 540.788 175.557 542.101C180.251 543.897 184.412 547.627 187.583 551.331C193.163 557.846 197.16 565.344 200.032 573.277C202.86 581.083 204.595 589.325 205.683 597.46C206.945 606.845 207.363 616.292 207.266 625.788C208.402 610.989 209.544 596.031 212.014 581.413C214.554 566.391 218.47 551.714 225.317 537.945C227.857 532.796 231.044 528.11 234.558 523.641C242.438 513.608 252.022 504.739 259.326 494.223C259.739 493.623 260.147 493.022 260.544 492.417C261.909 485.934 263.019 479.408 263.71 472.872C264.966 460.975 264.819 449.029 262.285 437.222C261.409 433.157 260.038 429.634 258.396 426.387C253.996 417.699 247.736 410.903 243.097 401.758C242.917 401.396 242.803 401.014 242.754 400.636C242.003 400.514 241.008 400.36 240.644 400.312L233.987 399.366C230.348 398.798 226.682 398.128 223.06 397.294C219.389 396.449 215.761 395.439 212.248 394.196C202.072 390.604 193.016 384.881 184.999 377.909C177.113 371.054 170.233 362.999 164.288 354.629C158.73 346.829 154.727 338.539 151.675 329.947C139.764 296.401 142.984 258.077 123.53 227.018C119.652 220.87 114.98 216.188 109.704 212.394C101.475 206.475 91.8212 202.691 81.4983 198.834C76.1955 196.862 69.435 194.056 64.7359 189.837C64.638 189.864 64.5346 189.89 64.4258 189.912C63.5556 190.092 59.7648 189.524 58.28 189.083C56.5069 188.557 54.7991 187.765 53.2219 186.771C51.699 185.815 50.2849 184.683 49.0394 183.45C45.3519 179.805 43.6006 175.065 43.3504 170.107C43.2416 167.886 43.432 165.627 43.8671 163.422C41.0063 162.886 37.3296 161.467 36.1548 161.095C29.9709 159.123 24.3689 156.387 20.0124 152.513C15.4601 148.464 12.2132 143.208 11.0547 136.269C9.65694 127.889 11.4517 119.732 15.2372 112.277C20.6651 101.585 30.183 92.3499 39.6629 86.1327C55.1472 75.9461 72.8615 71.7588 90.9347 71.5144C108.682 71.2806 126.787 74.8461 143.392 80.3194C158.349 85.1868 173.414 91.4784 187.436 99.4119ZM46.0209 156.743C46.0427 156.684 46.0698 156.631 46.097 156.573C50.6004 146.88 58.4051 139.446 67.7925 133.936C81.2753 126.018 98.0215 122.065 112.364 120.928C126.602 119.748 140.597 121.47 154.079 125.37C173.752 131.066 192.32 141.497 208.837 154.846C236.352 177.084 258.168 207.352 269.741 236.833C269.894 237.221 269.97 237.619 269.975 238.012C270.236 238.156 270.497 238.294 270.758 238.427C271.427 238.777 272.096 239.123 272.776 239.458C272.368 232.783 270.737 226.147 268.49 219.632C264.895 209.206 259.745 199.089 255.307 189.603C249.982 178.253 244.522 166.595 238.011 155.622C233.709 148.379 228.956 141.434 223.484 135.078C213.107 123.032 200.288 113.021 186.288 104.8C172.202 96.5212 156.924 90.049 141.771 85.038C125.694 79.788 108.187 76.3181 91.0217 76.6369C74.0036 76.9557 57.3445 81.0102 42.8446 90.7079C35.6219 95.5541 28.3664 102.308 23.3301 110.156C18.4678 117.734 15.6777 126.353 17.2712 135.238C18.2393 140.615 20.7956 144.68 24.3689 147.778C28.1109 151.02 32.9296 153.214 38.1999 154.819C39.3747 155.175 45.4661 154.835 46.0209 156.743ZM278.955 230.743C279.047 229.223 279.112 227.693 279.151 226.168C279.238 223.102 279.243 220.036 279.199 216.996C279.053 208.244 277.791 199.556 275.545 191.102C273.478 183.322 270.584 175.745 267.147 168.454C262.073 168.587 255.464 166.51 249.83 163.034C249.536 162.854 249.242 162.668 248.96 162.482C253.354 170.532 257.363 178.779 261.289 186.883C265.961 196.506 271.351 206.783 275.169 217.384C276.752 221.789 278.063 226.248 278.955 230.743ZM237.897 144.282C238.191 143.028 238.718 141.869 239.458 140.908C241.258 138.564 244.163 137.14 248.013 138.123C249.71 138.554 251.364 139.382 252.903 140.456C254.899 141.853 256.71 143.639 258.195 145.222C259.201 146.29 260.158 147.396 261.077 148.533C261.986 149.67 262.856 150.839 263.683 152.035C265.026 153.98 266.282 155.983 267.468 158.023C268.289 159.448 269.083 160.888 269.834 162.343C270.383 162.886 270.758 163.598 270.862 164.4C274.892 172.525 278.204 181.037 280.668 189.757C283.164 198.594 284.78 207.654 285.16 216.826C285.302 219.945 285.389 223.091 285.4 226.242C285.4 226.641 285.4 227.045 285.4 227.443C286.031 225.652 286.607 223.83 287.124 221.991C288.125 218.42 288.902 214.802 289.403 211.209C290.115 205.991 290.093 200.832 289.669 195.704C288.723 184.194 286.014 172.844 285.965 161.222C285.552 160.42 285.449 159.458 285.753 158.533C285.824 158.316 285.916 158.108 286.025 157.917C286.145 153.655 286.999 144.898 290.556 139.994C292.666 137.092 295.625 135.376 299.606 135.663C303.386 135.939 306.361 138.288 308.123 141.412C309.809 144.399 310.255 148.097 309.314 151.163C308.145 154.979 305.083 158.587 301.27 160.925C298.225 162.785 294.716 163.778 291.306 163.587C291.72 176.08 294.885 188.28 295.402 200.741C295.554 204.429 295.505 208.133 295.086 211.884C294.673 215.731 293.966 219.626 293.03 223.468C292.09 227.305 290.909 231.083 289.539 234.712C288.957 236.248 288.32 237.784 287.57 239.256C287.037 240.297 286.439 241.307 285.77 242.274C285.677 242.407 285.144 243.422 284.617 244.012C284.649 244.022 284.687 244.033 284.72 244.038C284.78 243.937 284.845 243.831 284.916 243.735C285.481 242.959 286.324 242.487 287.222 242.359C287.053 241.163 291.388 240.324 291.774 240.111C294.662 238.544 297.485 236.78 300.199 234.867C302.929 232.932 305.551 230.86 308.025 228.692C315.003 222.533 321.557 215.545 327.186 207.899C331.82 201.607 335.818 194.885 339.065 187.956C334.028 184.917 331.352 180.139 330.732 174.873C330.107 169.602 331.532 163.853 334.599 159.251C336.318 156.658 338.95 155.101 341.469 154.92C344.308 154.713 347.217 155.935 348.789 159.575C350.269 163.002 350.617 166.765 350.22 170.564C349.676 175.75 347.778 181.016 345.896 185.384C345.858 185.469 345.825 185.554 345.792 185.634C345.776 186.123 345.656 186.617 345.428 187.085C345.249 187.441 345.02 187.754 344.754 188.025C341.197 195.959 336.633 203.616 331.445 210.848C325.69 218.872 319.153 226.375 312.055 232.943C309.804 235.047 307.422 237.077 304.952 239.001C305.774 238.852 306.867 238.894 307.938 239.001C309.771 238.453 311.604 237.842 313.393 237.157C317.13 235.722 320.714 233.958 323.852 231.662C328.405 228.293 332.282 224.335 335.785 220.062C344.384 209.599 351.014 197.478 360.88 188.105C363.849 185.209 369.527 180.293 375.238 177.977C380.084 176.011 384.941 175.947 388.786 179.13C391.44 181.33 392.251 184.199 391.93 187.095C391.511 190.831 388.879 194.641 385.866 196.719C382.292 199.184 377.414 200.847 372.503 201.214C367.564 201.586 362.626 200.571 358.786 197.978C352.02 205.996 346.554 215.12 339.984 223.314C336.253 227.969 332.195 232.353 327.36 236.089C327.034 236.344 326.702 236.594 326.365 236.838C327.355 236.578 328.339 236.301 329.324 236.009C335.198 234.271 340.93 232.061 346.315 229.686C355.544 225.605 364.361 220.822 373.433 216.491C377.381 214.605 381.373 212.798 385.474 211.172C398.185 206.124 411.461 201.788 425.009 198.297C425.069 198.153 425.134 198.01 425.216 197.872C430.225 189.221 437.562 182.552 446.133 177.036C464.517 165.208 488.703 158.799 505.808 148.257C507.554 147.162 509.283 146.035 510.937 144.818C512.552 143.634 514.097 142.369 515.516 140.966C520.362 136.136 521.706 131.422 520.602 127.033C518.801 119.881 511.187 113.807 503.312 109.54C500.146 107.829 496.812 106.527 493.386 105.496C489.894 104.449 486.304 103.695 482.688 103.078C478.831 102.42 474.905 101.867 470.956 101.532C467.073 101.203 463.173 101.086 459.306 101.272C456.668 101.399 453.655 102.627 450.952 103.057C450.642 103.105 450.332 103.148 450.027 103.174C450.212 107.781 448.864 113.132 444.833 119.302C437.056 131.21 418.537 146.604 379.296 165.909C377.474 166.78 375.276 166.042 374.384 164.267C373.492 162.487 374.243 160.335 376.065 159.463C405.424 145.812 423.078 134.265 433.173 124.461C441.967 115.917 444.839 108.956 444.616 103.238C444.366 96.8825 440.368 92.2702 437.458 89.0394C433.961 85.1922 429.257 82.243 424.15 80.1919C418.95 78.0982 413.332 76.9398 408.1 76.6635C398.435 76.1959 389.118 78.1567 380.356 81.6319C371.485 85.155 363.186 90.2456 355.631 95.9314C353.129 97.8178 350.644 99.7307 348.207 101.702C345.798 103.652 343.443 105.666 341.159 107.76L337.025 111.841C336.699 112.218 336.1 113.446 335.557 113.765C334.975 115.003 333.648 115.816 332.179 115.709C332.054 115.699 331.934 115.683 331.82 115.667C331.782 126.932 330.602 138.219 328.475 149.24C328.073 151.179 326.131 152.439 324.146 152.045C322.161 151.652 320.877 149.755 321.28 147.816C324.804 131.911 326.349 115.385 325.032 99.1356C323.716 82.9125 319.572 66.9817 311.974 52.2624C307.737 44.281 302.043 36.5442 295.081 30.2367C288.228 24.0301 280.146 19.2317 271.123 16.9096C266.75 15.799 262.035 15.613 257.412 16.2188C252.805 16.8193 248.302 18.2327 244.337 20.337C243.298 20.8843 242.297 21.5114 241.362 22.2287C240.486 22.893 239.686 23.6475 238.996 24.4924C238.778 24.7581 237.527 27.0165 236.929 27.8614C236.662 28.2386 236.369 28.5362 236.07 28.7647C236.168 28.8816 236.265 28.9985 236.363 29.1154C247.524 42.1555 254.611 57.5922 258.565 73.8843C262.497 90.0862 263.307 107.138 261.795 123.531C261.594 125.497 259.788 126.937 257.771 126.736C255.758 126.539 254.284 124.775 254.491 122.809C256.302 107.154 255.965 90.8036 252.522 75.2181C249.096 59.7071 242.613 44.9559 232.257 32.41C227.949 27.2397 221.254 20.6824 213.83 17.2868C209.153 15.1454 204.187 14.2739 199.45 16.1338C195.942 17.5207 193.25 20.0341 191.156 23.0099C188.931 26.161 187.381 29.8434 186.261 33.393C183.628 41.7729 182.905 50.8808 183.59 59.9303C184.276 69.0382 186.402 78.0769 189.41 86.2655C190.465 89.135 192.031 93.928 194.115 98.0356C195.322 100.411 196.649 102.579 198.27 103.684C199.363 104.449 199.858 105.725 199.662 106.942C210.126 113.972 219.731 122.075 227.917 131.396C231.507 135.477 234.813 139.797 237.897 144.282ZM61.3094 188.817C61.4073 188.907 61.5215 188.992 61.652 189.077C61.527 188.998 61.4127 188.913 61.3094 188.817ZM59.5418 182.515C58.9163 180.82 58.5846 178.986 58.6063 176.999C58.7151 167.243 65.2961 161.499 74.2702 158.475C85.8875 154.569 101.617 155.414 109.911 156.998C124.302 159.745 138.307 165.936 151.083 174.098C163.75 182.196 175.209 192.25 184.618 202.819C188.757 207.463 192.913 212.299 196.377 217.517C197.666 219.456 198.863 221.449 199.929 223.506C201.62 221.603 203.828 219.935 206.64 218.569C210.23 216.815 214.211 216.045 218.274 215.976C224.066 215.88 230.027 217.219 235.161 219.037C244.119 222.198 252.011 227.278 260 232.188C248.688 205.763 229.374 179.124 205.21 159.081C189.432 145.993 171.603 135.684 152.627 130.136C139.775 126.385 126.396 124.86 112.815 126.034C99.2669 127.256 83.44 131.082 70.7838 138.734C62.5223 143.729 55.6313 150.377 51.7697 159.038C50.3175 162.296 49.5071 166.095 49.7519 169.751C49.9749 173.141 51.1442 176.404 53.7113 178.859C54.6359 179.741 55.6802 180.549 56.8006 181.229C57.6708 181.75 58.59 182.191 59.5418 182.515ZM232.502 392.453C226.807 387.681 221.358 381.873 217.039 375.417C212.569 368.722 209.311 361.341 208.19 353.715C207.565 349.475 207.527 345.229 207.837 340.984C208.522 331.53 210.948 322.082 212.052 312.756C212.737 306.927 212.808 301.167 212.242 295.465C211.677 289.764 210.48 284.126 208.631 278.541C205.232 268.301 194.457 249.825 195.235 235.738C195.311 234.441 195.469 233.171 195.735 231.949C195.643 231.79 195.567 231.625 195.501 231.45C194.18 227.884 192.374 224.531 190.296 221.327C187.066 216.348 183.177 211.725 179.31 207.277C170.418 197.043 159.562 187.271 147.504 179.374C135.5 171.515 122.322 165.505 108.725 162.763C101.149 161.238 86.7631 160.266 76.0976 163.741C69.4405 165.914 64.2355 169.868 64.0832 177.084C64.018 180.65 65.7312 183.477 68.195 185.788C72.372 189.699 78.5831 192.207 83.391 194.035C94.149 198.1 104.178 202.165 112.75 208.367C118.515 212.538 123.633 217.666 127.875 224.409C147.672 255.665 144.741 294.339 157.005 328.119C159.942 336.212 163.793 344.007 169.101 351.329C174.861 359.263 181.496 366.899 189.089 373.371C196.567 379.743 204.987 384.971 214.429 388.192C217.719 389.318 221.113 390.216 224.545 390.965C227.183 391.544 229.848 392.028 232.502 392.453ZM210.154 657.623C212.857 648.09 215.875 638.632 219.046 629.21C225.888 608.694 232.806 588.209 239.327 567.602C243.673 553.876 247.812 540.092 251.777 526.25C253.653 519.629 255.568 512.901 257.319 506.094C251.249 513.114 244.598 519.682 238.816 526.872C235.482 531.022 232.453 535.384 230.027 540.188C223.365 553.494 219.481 567.676 217.061 582.226C213.39 604.257 213.009 627.101 210.953 648.972C210.687 651.853 210.42 654.738 210.154 657.623ZM200.233 775.532C200.195 774.49 200.168 773.443 200.141 772.402C195.355 756.519 193.739 740.402 193.788 724.147C193.908 682.327 205.21 639.647 200.021 598.162C199.048 590.393 197.47 582.523 194.822 575.057C192.216 567.703 188.578 560.742 183.454 554.684C181.263 552.096 178.543 549.445 175.432 547.755C172.642 546.246 169.526 545.518 166.23 546.607C164.043 547.33 162.319 548.791 160.9 550.534C159.328 552.474 158.131 554.764 157.179 556.948C155.064 561.789 153.606 566.927 152.606 572.177C151.083 580.159 150.604 588.406 150.479 596.318C150.163 617.669 153.802 638.292 159.42 658.505C167.91 689.081 180.882 718.727 191.395 748.612C194.561 757.582 197.541 766.53 200.233 775.532ZM202.507 910.949C202.566 905.997 202.866 901.102 203.578 896.309C204.524 889.997 206.189 883.849 208.973 877.956C208.718 877.578 208.527 877.148 208.43 876.68C203.284 851.339 192.902 828.107 180.235 805.9C160.97 772.12 136.452 740.71 116.736 708.009C111.232 698.885 107.082 689.543 103.868 679.883C100.676 670.291 98.4022 660.387 96.64 650.072C96.0091 646.385 95.4598 642.692 94.9703 638.988C94.7201 637.096 94.4862 635.199 94.2632 633.297C94.0837 637.319 94.1653 641.161 94.1055 642.16C93.4855 652.565 93.2788 663.022 93.6704 673.453C94.0565 683.868 95.0464 694.251 96.7542 704.528C100.534 727.032 108.616 747.517 118.868 767.008C143.142 813.154 179.316 853.841 199.385 902.697C200.522 905.449 201.56 908.196 202.507 910.949ZM281.652 834.823C270.182 839.531 258.255 843.857 247.268 849.585C238.359 854.235 230.087 859.819 223.245 867.354C220.656 870.208 218.519 873.152 216.756 876.181C215.908 895.316 215.119 915.551 211.823 938.443C228.923 904.748 255.584 869.857 281.652 834.823ZM371.453 623.142C371.366 627.175 371.11 630.815 371.121 631.873C371.241 644.509 370.419 657.097 368.804 669.595C367.194 682.072 364.79 694.464 361.717 706.712C356.942 725.826 347.946 745.323 336.536 765.021C325.723 783.678 312.697 802.51 299.051 821.347C313.334 814.275 326.909 805.937 338.814 795.899C353.701 783.348 365.965 768.145 373.851 749.59C380.481 733.919 384.397 716.984 385.762 699.826C387.122 682.683 385.931 665.318 382.412 648.771C381.493 644.466 380.242 640.136 378.572 635.97C376.935 631.878 374.89 627.946 372.361 624.364C372.231 624.183 371.899 623.721 371.453 623.142ZM217.54 860.372C217.888 861.584 218.198 862.8 218.41 863.922C218.546 863.773 218.682 863.624 218.818 863.481C226.204 855.505 235.08 849.601 244.641 844.723C258.456 837.672 273.706 832.777 287.733 826.635C303.642 805.119 319.033 783.571 331.559 762.247C342.812 743.08 351.71 724.089 356.474 705.448C359.542 693.401 361.962 681.222 363.588 668.947C365.214 656.677 366.052 644.318 365.965 631.915C365.954 630.661 366.346 625.703 366.362 620.841C366.362 620.235 366.357 619.63 366.346 619.034C366.172 618.848 366.014 618.641 365.878 618.413C365.345 617.499 365.296 616.441 365.66 615.533C364.099 617.966 362.511 620.825 362.201 621.277C358.362 626.957 354.397 632.548 350.258 638.01C346.113 643.483 341.8 648.84 337.27 654.031C314.117 680.616 287.352 704.635 265.227 731.847C250.662 749.76 238.12 769.065 230.022 791.436C225.54 803.849 222.712 815.731 220.846 827.501C219.106 838.442 218.187 849.293 217.54 860.372ZM324.168 364.736C324.2 364.704 324.238 364.673 324.271 364.641C330.847 358.168 336.987 351.26 342.73 344.172C352.64 331.929 360.591 318.118 369.761 305.296C373.797 299.653 378.061 294.201 382.82 289.142C394.367 276.835 408.687 266.67 424.226 258.619C439.672 250.622 456.326 244.713 472.642 240.882C483.813 238.246 500.228 234.925 514.347 236.785C522.864 237.911 530.56 240.903 536.015 246.828C536.271 246.594 536.565 246.392 536.891 246.238C538.707 245.361 540.916 246.089 541.808 247.864C544.696 253.683 551.037 256.255 556.955 255.75C562.84 255.25 568.393 251.69 569.741 244.984C570.568 240.903 569.921 236.668 568.518 232.635C567.033 228.357 564.7 224.303 562.219 220.849C554.643 210.317 543.787 203.542 531.74 199.407C519.454 195.188 505.939 193.7 493.282 193.791C475.4 194.009 457.218 196.198 439.395 200.077C436.643 200.677 433.896 201.315 431.166 201.995C430.192 203.053 428.642 203.456 427.25 202.994C413.642 206.56 400.338 211.061 387.612 216.242C383.652 217.857 379.791 219.642 375.983 221.518C366.911 225.982 358.117 230.918 348.887 235.148C343.301 237.709 337.34 240.095 331.233 241.998C325.032 243.932 318.685 245.367 312.42 245.994C312.104 246.026 311.452 246.116 310.614 246.217C318.538 246.35 326.506 246.637 333.648 248.613C340.696 250.569 346.978 254.081 351.813 260.357C362.675 274.444 363.403 290.109 358.971 305.609C352.732 327.417 336.073 348.917 324.168 364.736ZM266.048 241.668C264.923 241.589 263.867 240.999 263.231 240.053C253.458 234.309 244.25 227.571 233.421 223.729C229.581 222.368 225.23 221.284 220.879 221.019C216.724 220.764 212.568 221.242 208.914 223.017C205.813 224.531 203.703 226.529 202.349 228.862C202.365 228.899 202.382 228.936 202.392 228.973C203.034 230.669 202.273 232.539 200.69 233.373C200.168 235.988 200.239 238.847 200.685 241.801C202.561 254.278 210.779 268.492 213.618 276.952C215.614 282.887 216.914 288.887 217.545 294.95C218.17 301.013 218.127 307.145 217.425 313.346C216.528 321.306 214.652 329.362 213.743 337.429C213.161 342.594 212.976 347.764 213.77 352.913C214.82 359.747 217.822 366.336 221.874 372.314C225.975 378.366 231.164 383.797 236.565 388.229C243.32 393.766 249.286 394.281 254.524 391.757C263.095 387.623 269.627 376.506 274.354 367.197C284.399 347.36 289.343 325.074 297.811 304.504C301.569 295.375 306.007 286.575 311.816 278.445C315.444 273.365 321.514 266.048 328.475 261.255C331.836 258.938 335.41 257.227 339.032 256.462C336.867 255.288 334.561 254.4 332.152 253.72C317.418 249.565 299.073 252.705 284.986 249.379C279.004 247.97 273.532 245.643 268.3 242.885C267.544 242.487 266.799 242.083 266.048 241.668ZM319.18 406.365C320.116 406.556 321.062 406.715 322.014 406.843C326.327 407.427 330.743 407.422 335.073 407.279C348.86 406.816 360.271 402.953 370.653 397.251C386.91 388.319 400.697 375.034 416.998 363.243C422.268 359.38 427.723 355.804 433.249 352.344C446.03 344.342 459.295 337.088 472.174 329.203C478.114 325.542 483.83 321.758 489.089 317.48C494.251 313.277 498.966 308.585 503.018 303.059C504.41 301.156 505.77 299.222 507.032 297.235C508.256 295.301 509.376 293.308 510.344 291.236L511.383 288.371C504.182 289.078 496.894 289.418 490.035 290.502C479.218 292.219 468.416 294.764 457.963 298.276C447.547 301.773 437.491 306.226 428.114 311.752C417.645 317.922 408.605 325.409 400.235 333.518C380.052 353.078 363.659 376.172 340.99 393.627C334.382 398.718 326.969 403.346 319.18 406.365ZM512.993 283.031C514.097 281.23 516.028 281.564 517.431 282.478C517.654 282.446 517.877 282.415 518.1 282.377C522.081 281.777 525.981 280.932 529.684 279.614C535.216 277.648 537.843 273.424 538.435 268.652C539.066 263.609 537.538 257.998 534.77 253.513C530.201 246.148 522.391 242.869 513.667 241.732C500.184 239.968 484.526 243.268 473.866 245.808C457.984 249.602 441.782 255.42 426.771 263.279C411.836 271.107 398.081 280.964 387.019 292.883C382.466 297.787 378.393 303.075 374.542 308.537C365.394 321.519 357.48 335.489 347.593 347.897C341.762 355.209 335.518 362.34 328.829 369.03C322.101 375.757 314.916 382.038 307.242 387.623C304.865 389.355 302.461 391.034 300.025 392.671C297.588 394.302 295.124 395.897 292.612 397.443L288.206 399.978C296.109 403.612 304.218 403.57 312.017 401.444C320.888 399.026 329.356 393.978 336.786 388.361C359.395 371.262 375.804 348.492 395.955 329.266C404.728 320.903 414.18 313.192 425.112 306.853C434.875 301.194 445.339 296.645 456.157 293.09C466.931 289.551 478.054 286.99 489.187 285.295C496.829 284.126 504.998 283.881 512.993 283.031ZM515.261 288.595C514.787 288.52 514.336 288.35 513.939 288.106C513.89 288.111 513.841 288.116 513.792 288.122C514.282 288.43 514.809 288.552 515.261 288.595ZM334.512 109.678C334.104 109.322 333.528 109.056 332.69 109.009C333.376 109.056 334.001 109.301 334.512 109.678Z" fill="#5A5A5A"/>
</g>
<defs>
<filter id="filter0_f_25_17" x="0.582275" y="0" width="586.076" height="991" filterUnits="userSpaceOnUse" color-interpolation-filters="sRGB">
<feFlood flood-opacity="0" result="BackgroundImageFix"/>
<feBlend mode="normal" in="SourceGraphic" in2="BackgroundImageFix" result="shape"/>
<feGaussianBlur stdDeviation="5" result="effect1_foregroundBlur_25_17"/>
</filter>
</defs>
</svg>
