<svg width="38" height="37" viewBox="0 0 38 37" fill="none" xmlns="http://www.w3.org/2000/svg">
<path d="M29.0167 23.0992C26.4008 22.8676 24.974 26.3416 23.0715 27.268C19.98 28.8892 14.2727 23.0992 14.2727 23.0992C14.2727 23.0992 8.32758 17.5408 9.75441 14.53C10.9434 12.6772 14.5105 11.2876 14.2727 8.73997C14.0349 6.42396 8.80319 -1.91367 6.18733 0.402341C0.479996 5.49756 0.00438568 7.58196 0.00438568 11.7508C-0.23342 18.9304 9.2788 27.9628 9.2788 27.9628C10.23 28.8892 18.5532 37.2269 25.9252 36.9953C30.2057 36.9953 32.3459 36.5321 37.5777 30.9736C39.9557 28.426 31.6325 23.3308 29.0167 23.0992Z" fill="white"/>
</svg>
