<svg width="26" height="26" viewBox="0 0 26 26" fill="none" xmlns="http://www.w3.org/2000/svg">
<rect width="26" height="26" rx="11" fill="#D7D7D7"/>
<path d="M22.5258 6.8984C22.4072 6.77758 22.2886 6.77758 22.0515 6.77758C21.6958 6.77758 21.4587 6.77758 21.103 6.65675C19.0875 6.17347 17.6647 4.60279 17.5462 2.54882V2.06553C17.5462 1.70307 17.3091 1.46143 16.9534 1.46143H13.278C12.9223 1.46143 12.6852 1.70307 12.6852 2.06553V17.1682C12.6852 18.6181 11.4996 19.7055 10.1954 19.7055C9.36545 19.7055 8.65409 19.343 8.17984 18.7389C7.34991 17.6515 7.58703 15.96 8.65409 15.1143C9.12833 14.7518 9.60258 14.7518 10.5511 14.7518C10.6696 14.7518 10.9068 14.7518 11.0253 14.631C11.1439 14.5102 11.2624 14.3893 11.2624 14.1477V10.1606C11.2624 9.91894 11.0253 9.55647 10.7882 9.55647C8.89121 9.31483 6.99423 9.79811 5.57149 11.0063C4.26732 12.2145 3.31883 13.906 3.08171 15.96C2.72602 18.2556 3.55595 20.6721 5.09725 22.2427C6.51998 23.8134 8.53552 24.5383 10.4325 24.5383C12.3295 24.5383 14.2265 23.8134 15.6492 22.3636C17.0719 20.9137 17.9019 18.9806 17.9019 16.9266V10.2814C19.3246 11.0063 20.8659 11.4896 22.4072 11.4896C22.7629 11.4896 23 11.248 23 10.8855V7.26086C22.7629 7.14004 22.6443 7.01922 22.5258 6.8984Z" fill="#323232"/>
</svg>
