<svg width="92" height="92" viewBox="0 0 92 92" fill="none" xmlns="http://www.w3.org/2000/svg">
<path d="M12.7051 11.7044C14.4223 10.3662 15.6774 9.06637 18.0224 9.46322C14.8107 13.8045 11.248 13.9462 11.248 22.2747C11.2479 24.3249 10.2793 29.9493 10.7158 31.8118C11.0795 33.3585 15.2943 32.3721 14.6758 33.7982C14.0545 35.2285 12.8547 35.6826 14.6181 37.0179C15.5988 37.7599 17.5284 37.9608 18.747 38.6136C19.7098 39.1297 20.4004 41.6361 20.4004 41.6361C17.3696 39.7904 16.6901 42.7156 15.5888 42.6859C15.8178 42.6846 13.4339 41.5706 13.2588 41.555C12.8916 41.7344 12.602 41.852 12.3574 41.9339C11.7607 42.2945 11.0984 42.5148 10.2871 42.7367C10.5352 43.1068 10.5496 43.5185 10.7529 43.6429C9.49059 43.6447 8.20573 43.6125 6.95896 43.6849C7.08994 44.8479 7.4219 46.0403 8.02341 47.1615C7.37826 47.1292 6.82682 47.2535 6.24802 46.9994C6.3437 47.0914 6.5864 47.3285 6.72752 47.4212C5.87962 48.6259 4.71782 47.9585 4.56052 49.5638C4.43854 50.8064 5.83408 51.2916 6.18748 52.3656C3.79588 52.4818 3.28775 54.8758 5.56052 55.6693C7.56013 56.3683 10.6623 55.6143 12.7803 55.7757C11.1635 56.5518 8.49243 56.5912 7.374 57.8597C9.08776 59.5076 13.9988 58.4818 16.3662 58.599C16.3566 58.6288 16.3541 59.1876 16.3613 59.2347C13.8948 60.778 11.7209 62.9433 9.07322 64.4974C7.40847 65.4751 6.40474 65.653 6.69236 68.2757C6.93756 70.5065 8.09763 70.8679 10.2041 71.3958C10.4159 79.263 20.3268 72.0911 23.5381 74.9525C23.4131 74.3258 23.3588 73.6792 23.3935 73.013C24.4788 72.2787 26.3949 70.73 27.1699 69.5872L27.5937 69.7992C27.629 70.91 26.7427 71.6413 26.7412 72.5482C26.74 73.4362 27.3408 74.4666 27.5937 75.3079C28.1953 77.3104 29.217 78.5689 29.8867 80.1439C29.4569 80.1678 29.1673 80.4412 28.6855 80.4222C28.7698 81.7878 31.144 81.6299 32.2158 82.1224C32.275 82.0674 32.2227 82.6914 32.2226 82.6908C32.0876 82.7451 31.9477 82.7573 31.8037 82.7269C32.5543 84.3476 35.6218 84.103 37.3428 84.8353C39.6311 85.8082 40.4251 86.7488 43.2695 86.7464C45.293 86.7446 46.8584 86.4373 48.5381 86.0726C45.7206 83.8966 44.0482 81.0708 44.3926 77.641C47.1701 79.8851 48.4324 82.8223 52.3174 84.7699C54.8706 86.0489 62.9599 87.9581 61.7226 83.3148C62.8856 83.8732 64.1876 84.3265 65.6064 84.2386C65.7798 84.1242 65.642 83.7383 65.7051 83.5726C66.037 83.5714 66.6328 83.6066 66.9394 83.4984C67.6241 81.6982 63.3825 81.0497 65.6562 79.5687C66.8886 80.0184 68.1554 80.1271 69.6054 80.0482C69.7579 77.8285 70.5378 74.1634 68.5322 72.3587C68.9603 72.5961 69.4034 72.8018 69.9326 72.9818C70.6591 74.5903 71.4787 76.3377 71.917 78.0814C72.5386 77.9164 73.1841 77.7066 73.5088 77.1605C74.386 75.6871 72.63 74.3877 73.9336 72.7122C75.5977 70.5724 80.0627 69.1299 82.2783 68.5277C81.6857 68.0463 80.8906 67.4805 80.3633 66.8753C80.9151 66.9798 81.4968 66.8409 81.999 67.0179C82.4532 64.9999 75.1694 63.9046 73.9551 63.0208C76.6859 62.7284 79.6091 63.4843 81.8545 62.597C81.2674 62.6734 80.9147 62.416 80.373 62.3538C80.5213 61.4665 81.3362 61.365 82.0029 60.7425C80.0499 59.3908 77.1778 60.2293 75.5478 58.1419C77.5552 57.4148 83.1615 55.2265 83.7451 52.8568C83.9191 52.1518 82.9055 50.943 83.0849 50.0921C83.2465 49.3251 83.9389 48.6368 84.4131 48.0257C85.4523 46.6833 85.9144 44.4882 86.9082 43.5296C87.5952 44.8899 86.2082 46.5301 86.0615 47.9788C85.8773 49.802 86.4931 50.5616 87.3906 51.9447C88.0173 52.911 89.2974 54.4436 89.4619 55.5941C89.7296 57.472 88.391 57.8175 87.8086 59.2591C86.5483 62.3779 89.4691 65.2706 87.708 68.2728C86.3829 70.5295 84.26 72.2781 82.8769 74.4583C81.3898 76.8023 80.7047 77.3331 78.0097 78.2767C76.22 78.9034 74.2446 79.8368 72.2217 79.9935C72.3358 82.0624 71.6458 84.0489 69.3222 85.7035C66.9951 87.3597 64.4734 87.6051 62.2383 88.9007C59.1611 90.6839 60.1762 92.2316 55.6513 90.6859L57.6523 90.9329C57.3635 90.5975 57.1069 90.3797 56.9287 89.9886C55.1463 89.5013 53.4518 88.8817 51.917 88.1361C51.8579 88.1665 51.7995 88.1965 51.7363 88.2269C49.387 89.3403 44.4649 88.974 42.1572 87.8607C39.4071 86.5338 36.7069 85.865 33.9472 84.8431C30.8624 83.7004 27.3535 81.5548 25.2558 78.6995H25.166C21.2379 78.6864 17.57 77.904 13.7969 77.516C9.87843 77.1129 8.86366 75.0646 6.75584 72.055C4.68931 69.1036 2.69963 67.495 1.90134 63.8314C1.13538 60.3167 0.492636 56.8408 0.295876 53.1204C0.206186 51.4271 -0.315452 48.0359 0.284157 46.4769C0.81037 45.1099 2.97224 43.8856 4.07908 43.1136C4.30564 42.9558 4.55748 42.7699 4.83006 42.5697L4.71384 42.4749C3.12335 41.0028 1.82422 37.1624 1.53709 35.0599C1.01028 31.2019 4.13575 30.6004 5.30662 27.6507C6.49232 24.6622 4.77017 20.8462 6.25388 17.9593C7.54068 15.4575 10.5512 13.3829 12.7051 11.7044Z" fill="#D7D7D7"/>
<path d="M20.2812 47.2777C19.9948 44.0159 23.3682 37.1953 27.4892 40.3499C27.4306 43.8587 24.7979 46.0694 25.9375 49.6917C26.6233 51.8731 28.0605 53.6019 28.3242 55.4945C29.3449 54.4701 30.2003 53.3993 31.3681 52.5394C32.4738 51.7255 34.3785 49.6351 35.5732 49.6058C35.9045 56.1404 32.3126 59.2399 29.0644 64.1439C29.4459 64.1899 29.6565 64.4129 30.0654 64.4339C29.8002 64.9862 29.9797 65.261 29.6426 65.4613C31.9406 65.9655 35.5453 61.9025 36.6748 60.2396C36.6604 60.8794 36.4114 61.5625 36 62.2484C37.1623 61.666 38.0486 63.0336 37.5937 65.4808C37.5824 65.543 38.2758 72.4987 40.4297 62.3099C40.8638 60.2562 41.4205 60.5478 43.3584 59.2826C43.3754 59.243 47.7472 51.7189 43.8984 49.4788C58.0422 55.0465 49.4478 58.5991 43.2344 63.0384C42.6037 65.2047 43.0728 67.7259 42.0176 69.7845C38.5691 76.3741 31.7583 69.4906 34.1806 64.6937C34.2596 64.5078 34.3402 64.3454 34.4209 64.181C31.6714 66.8545 27.1295 68.9544 25.0127 67.7913L26.0722 67.5794C25.1532 67.2069 24.1489 66.7932 24.2021 65.7103C25.0009 65.2266 25.9337 64.7338 26.039 63.7982C24.4218 63.7654 20.0801 64.0777 19.7539 61.8968C21.7188 60.9927 22.8447 61.2736 24.4287 59.5814C25.2162 58.7412 25.89 57.9438 26.6572 57.1341C26.3786 57.0068 26.1109 56.8691 25.8974 56.7035L25.3095 57.3099C23.0578 56.2585 20.4914 49.6764 20.2812 47.2777Z" fill="#D7D7D7"/>
<path d="M67.4463 71.6888C67.8768 71.864 68.235 72.092 68.5322 72.3587C68.1734 72.1602 67.8236 71.9394 67.4463 71.6888Z" fill="#D7D7D7"/>
<path d="M63.8174 36.1146C64.255 35.6148 64.4895 35.2815 65.2793 35.5218C63.8209 39.7612 69.1046 38.4099 71.4482 38.8636C76.1782 39.7803 70.7012 42.0136 68.7363 42.306C66.0427 42.7066 63.5219 43.6691 60.9365 44.3675C61.8298 44.5266 62.7171 44.8594 63.4023 45.4896C65.0963 47.0472 67.1772 48.3162 68.3379 50.1536C69.6384 52.2153 71.4302 55.3385 70.4726 57.6478C69.7162 59.4721 68.0576 62.1735 66.4306 63.3079L65.7011 62.7025C68.1582 60.0044 70.8926 53.4674 67.3467 51.0462C65.0386 49.4703 62.3251 49.2391 60.1445 48.054C60.1445 48.2256 60.1414 48.4067 60.1318 48.6058C60.0606 50.1157 59.6705 52.2981 59.2519 53.7015C58.2174 57.1726 56.1173 60.5066 53.7656 63.1478C56.3355 66.6092 51.4461 68.5764 51.8037 67.641C53.1874 64.025 50.7264 62.7443 53.8496 59.4818C56.0105 57.2234 56.9762 55.3957 56.9697 52.1029C56.9673 50.6438 56.4029 47.9543 56.626 46.0091C55.1947 46.4778 53.9598 46.6755 53.8984 45.8968C56.0738 44.8916 56.667 42.7546 59.1103 41.9994C60.7843 41.4823 65.7514 42.4454 66.1211 40.1722C65.3168 40.1722 64.514 39.8809 63.8545 39.4671C63.6724 38.1428 64.5626 37.1361 64.0293 35.9027L63.8174 36.1146Z" fill="#D7D7D7"/>
<path fill-rule="evenodd" clip-rule="evenodd" d="M38.3066 32.6497L38.4619 33.0863C38.4916 33.1543 38.4916 33.24 38.5058 33.3158C38.5172 33.3933 38.5247 33.4718 38.5312 33.5482C38.5444 33.6235 38.5239 33.7054 38.5185 33.7826L38.4873 34.0111C38.4777 34.0863 38.442 34.1568 38.4199 34.2279L38.3398 34.4359C38.2657 34.5619 38.1902 34.6847 38.1113 34.7982C38.0168 34.9016 37.9223 35.0022 37.8242 35.0931C37.7167 35.1755 37.6131 35.2567 37.5068 35.3314C37.3944 35.399 37.2776 35.4598 37.167 35.5208L37.4043 35.222C37.4747 35.1187 37.538 35.0114 37.6025 34.9105C37.6574 34.803 37.6969 34.6893 37.747 34.5872C37.7787 34.4767 37.8059 34.368 37.831 34.264L37.8359 34.1038C37.8348 34.0515 37.8483 34.0021 37.8359 33.9515L37.8047 33.8031C37.7921 33.7553 37.796 33.7072 37.7676 33.6624C37.7486 33.6239 37.7315 33.5862 37.7158 33.5492L37.5869 33.6224L37.1553 33.9193L36.7519 34.2396L36.3886 34.5882L36.0644 34.9574L35.7959 35.348C35.7379 35.4712 35.6757 35.5826 35.6094 35.6956L35.3984 36.2279L35.3965 36.2318H35.3779L35.3857 36.2474L35.3828 36.3265L35.3701 36.514C35.3641 36.652 35.3641 36.8014 35.3701 36.9681C35.3815 37.3041 35.4193 37.6858 35.3984 38.1605C35.3883 38.3966 35.3582 38.6702 35.2763 38.972C35.2273 39.1269 35.1627 39.2944 35.082 39.4535C34.978 39.6155 34.8853 39.7881 34.7383 39.9232C34.6125 40.0468 34.478 40.1694 34.3379 40.2542C34.3856 40.3608 34.4405 40.4724 34.5019 40.5911L34.7627 41.0824C34.8529 41.261 34.9533 41.4554 35.0459 41.68C35.1391 41.8958 35.2302 42.1444 35.2929 42.4105C35.3599 42.6723 35.4024 42.96 35.4072 43.2415C35.4162 43.3766 35.4095 43.5346 35.3916 43.6966L35.3642 43.9349L35.3359 44.0833L35.3066 44.223L35.2773 44.3607L35.2422 44.474C35.2077 44.575 35.1727 44.6854 35.1338 44.7835C35.1603 44.7706 35.1852 44.756 35.2109 44.7454C35.3412 44.6863 35.4791 44.6201 35.5957 44.5794L35.9511 44.4505L36.2715 44.3392C36.3641 44.3027 36.4728 44.2694 36.5547 44.2318C36.6341 44.1941 36.7259 44.1587 36.7988 44.1204C36.8566 44.0843 36.9221 44.0523 36.9814 44.0169C36.9723 43.9175 36.9629 43.8186 36.957 43.7201C36.9737 43.4469 36.9872 43.1737 37.0117 42.9095C37.0559 42.6542 37.1074 42.3985 37.1582 42.1497L37.3408 41.43C37.4041 41.1982 37.4617 40.9656 37.5322 40.7337L37.709 40.0443C37.7454 39.8219 37.7885 39.5937 37.8369 39.3558C37.8524 39.1143 37.8634 38.8695 37.8838 38.6244C37.9651 38.8563 38.037 39.0894 38.1094 39.3226C38.1542 39.5653 38.1919 39.8183 38.2236 40.0765L38.2656 40.8245C38.274 41.0701 38.2672 41.3133 38.2666 41.5589L38.2695 42.2708L38.3095 42.9515C38.3382 43.1667 38.3742 43.375 38.4023 43.5824C38.4657 43.7755 38.5251 43.9618 38.5771 44.1478L38.6865 44.5365L38.4355 44.8548C38.3352 44.9827 38.2302 45.1108 38.122 45.2357C38.0098 45.3491 37.8882 45.448 37.7676 45.5531C37.6463 45.6504 37.5246 45.7218 37.4004 45.806C37.2772 45.8867 37.1639 45.9437 37.0449 46.013L36.4209 46.3538C36.3189 46.4052 36.2501 46.4557 36.1689 46.5052C36.0817 46.5536 36.0296 46.6059 35.9687 46.6536L35.9502 46.6673L35.9463 46.6722L35.8232 46.8021L35.7617 46.8656C35.7385 46.8894 35.7196 46.9111 35.7265 46.9154C35.7265 46.9332 35.7245 46.9482 35.7197 46.9613L35.4277 47.5003C35.3245 47.6496 35.246 47.7915 35.1094 47.9408C34.9671 48.0836 34.8325 48.2496 34.6611 48.3519C34.4997 48.4553 34.3137 48.5962 34.1553 48.6458C33.9915 48.7128 33.8236 48.7754 33.6562 48.8333L33.1787 49.0003L32.7275 48.6829C32.504 48.5263 32.2941 48.4081 32.0556 48.1595C31.9976 48.1003 31.9431 48.0526 31.8857 47.9808C31.8266 47.9031 31.7692 47.8223 31.7148 47.7386C31.603 47.5909 31.515 47.3611 31.4492 47.138C31.3877 46.9198 31.3813 46.658 31.3974 46.4398C31.4255 46.2341 31.4719 46.004 31.5371 45.8587C31.5682 45.7781 31.602 45.6934 31.6367 45.6175L31.7392 45.4261C31.8116 45.2892 31.8771 45.197 31.9453 45.0911C32.2132 44.6977 32.4426 44.4163 32.6035 44.1742C32.6823 44.0554 32.7407 43.9499 32.7754 43.8675C32.7926 43.8394 32.7726 43.8194 32.7558 43.8011L32.7744 43.8001L32.7939 43.7923L32.8066 43.7738L32.8183 43.7396L32.8476 43.599C32.8554 43.556 32.8694 43.4979 32.873 43.4661C32.8712 43.45 32.8701 43.4338 32.8701 43.4183C32.8713 43.3903 32.8784 43.3584 32.873 43.3031C32.8742 43.2039 32.8626 43.1102 32.8369 43.0033C32.8148 42.8982 32.7777 42.7844 32.7217 42.6507C32.672 42.5222 32.601 42.3749 32.5215 42.2122L32.2676 41.682C32.1804 41.492 32.0878 41.2866 32.0078 41.0638C31.9247 40.8474 31.8525 40.6095 31.7969 40.3704C31.7353 40.1307 31.7081 39.8811 31.6806 39.6341L31.5527 38.4749L32.79 38.3109C32.8874 38.2984 33.0098 38.2997 33.0469 38.2835C33.088 38.2835 33.0864 38.2747 33.0918 38.2777C33.1098 38.2841 33.0897 38.2817 33.0908 38.2952C33.0962 38.3132 33.0804 38.3018 33.0947 38.3167C33.1001 38.3072 33.1118 38.2975 33.1279 38.2747C33.1536 38.212 33.1871 38.1091 33.208 37.9661C33.2516 37.6828 33.2643 37.303 33.3086 36.8792C33.3295 36.6652 33.3629 36.4361 33.4101 36.1976C33.4412 36.0733 33.471 35.9502 33.5068 35.8265L33.5791 35.6341L33.6181 35.5384L33.6367 35.4915L33.6845 35.3851L33.9775 34.8929C34.1221 34.6898 34.2736 34.4876 34.4277 34.2952C34.5868 34.1326 34.7479 33.9788 34.9082 33.8245C35.0791 33.6859 35.2542 33.5547 35.4258 33.4232C35.6069 33.3054 35.7929 33.1982 35.9746 33.0882C36.1634 32.9902 36.3545 32.9009 36.5439 32.8119C36.7394 32.7354 36.9385 32.6693 37.1328 32.5999L37.7324 32.4408L38.1885 32.3206L38.3066 32.6497ZM35.3047 36.1859C35.3043 36.1378 35.2184 36.1947 35.2178 36.1722V36.1771L35.3047 36.1859Z" fill="#D7D7D7"/>
<path d="M43.0576 27.6429C46.7686 27.2734 46.1346 33.7151 46.2763 35.8822C47.8137 34.1726 49.7191 32.8142 51.2715 31.0472C51.3869 32.838 51.1962 32.9734 50.3066 34.2552C49.7086 35.1169 48.6964 35.5425 49.0205 36.931C50.3485 37.1564 51.7347 35.4963 52.8135 34.8451C54.0865 34.0773 55.7071 33.2205 57.2187 33.3939C57.4142 37.2129 56.2497 37.3019 53.4746 39.1185C53.0916 40.719 54.6343 41.4365 54.2959 42.9056C54.0722 43.8767 52.7409 44.6248 51.9599 45.0189C49.283 46.3671 47.6527 45.2301 46.4101 48.5775C44.4267 49.1581 44.1762 47.3598 44.3281 45.8607H44.54C44.5491 43.0642 45.384 40.8457 43.4814 38.8695C41.3694 36.6755 41.3511 36.083 44.5029 35.0199C44.8904 33.4418 39.2235 28.0238 43.0576 27.6429Z" fill="#D7D7D7"/>
<path fill-rule="evenodd" clip-rule="evenodd" d="M55.9941 6.47396C57.1057 6.23718 58.0212 6.15175 59.0849 6.62044C60.0154 7.03005 60.9491 7.01574 61.7695 7.58919C62.491 8.09427 63.2378 8.5184 64.0107 8.94759C64.8162 9.39547 65.3786 9.9237 66.0801 10.5384C66.956 11.3067 67.8034 12.0064 68.4687 12.847C70.1529 12.7536 71.8691 12.8937 73.5625 12.8128C75.2122 12.7339 76.9163 12.0702 78.6455 12.39C80.6527 12.7613 82.3404 14.1543 83.6953 15.7542C83.8148 14.8544 83.8665 13.8856 84.0752 13.0199C82.4679 13.0988 82.3951 11.6892 81.6592 10.8538C80.8783 9.96832 79.6273 9.64999 78.4297 9.63021C76.6382 9.59971 73.0746 10.5385 72.4658 12.5638C72.2655 12.6236 72.0549 12.5417 71.8672 12.6009L71.6553 12.389C74.9226 9.209 84.7106 5.56863 87.6963 10.5413C90.1993 14.7098 92.7769 22.4917 91.7783 27.6419C91.3799 29.6972 89.3678 32.978 87.9668 34.4525C87.8968 34.2827 87.8357 34.0954 87.7783 33.9017C87.752 33.9877 87.7318 34.0704 87.7031 34.1576C87.4256 35.0001 86.7277 35.6907 86.4258 36.5296C86.0474 37.5801 86.1326 38.6425 85.8008 39.6702C85.2565 41.3575 83.626 42.5776 82.8457 44.1292C81.8626 44.2799 79.9864 44.1963 78.8301 43.929C78.2871 43.8836 77.9542 43.9094 78.0439 43.138C78.9288 43.0197 79.7842 43.1214 80.5107 43.5101C80.5992 43.3161 80.7431 42.8846 80.7861 42.6839C80.1386 42.2594 79.6708 41.6247 79.7383 40.8079C80.1885 40.793 79.3257 40.5471 79.5254 39.3255C81.4203 39.0875 81.7098 37.5196 82.7197 36.3763C83.8828 35.0596 85.0088 34.5689 85.1816 32.5472C84 32.5705 83.1853 31.6581 82.247 31.6576C81.095 31.6571 80.3316 32.4227 79.4892 32.9339C77.8496 33.9289 76.0651 34.8465 74.2246 35.2327C75.747 33.1512 74.5514 32.9035 79.459 31.7386C77.3535 31.6806 76.4755 32.6042 73.0234 32.4798C74.9746 32.127 76.7334 30.0405 77.9765 29.055C79.1363 28.1356 79.4953 27.9272 80.9404 27.3939C80.9852 25.8106 80.3334 24.8387 82.1738 24.2425C77.3495 24.328 81.5625 19.9526 81.581 17.9183C77.8014 20.3472 78.0862 16.3868 75.3047 15.806C74.8412 16.9266 73.7847 17.386 72.9111 16.4945C73.0677 19.3341 72.0426 19.3373 70.7558 17.1087C70.3762 16.4513 70.0248 15.8546 69.6836 15.2747C70.2578 16.9521 70.8408 18.5579 71.7803 20.1029C72.9026 21.9488 73.1043 24.0788 72.9961 26.3021C72.9386 27.4792 72.7507 28.2429 71.9902 29.1224C71.3791 29.8292 70.8449 30.3985 70.1728 30.9642C69.463 31.5623 68.3691 33.7172 67.3467 33.5755L67.1367 33.6439C67.7323 33.1984 67.2253 31.4463 67.501 30.7611C67.8077 30.7892 67.9626 31.0543 68.1426 31.3031C68.8367 30.8683 69.5324 30.1559 70.1572 29.6029C70.8345 29.0039 71.5439 28.4896 71.6553 27.5003C71.8986 25.3333 71.3512 22.9879 70.9326 20.9476C70.7501 20.0574 70.1922 19.1691 69.9053 18.304C69.5901 17.3551 68.5371 15.7309 67.1582 14.7562C66.0162 13.949 64.7965 13.5022 63.6826 12.6634C63.2879 12.3662 61.1929 9.45381 60.5644 9.65951C60.2985 9.74661 60.1147 10.4471 59.7949 10.4447C59.5367 10.4412 59.3284 9.8067 59.1377 9.60287C58.6336 9.98616 58.5235 10.0316 58.3076 10.6517C58.142 11.1263 57.9502 11.5383 57.873 12.0531C57.0882 12.2243 56.9243 10.3996 56.8818 9.88216C56.3551 10.2433 56.5239 10.4734 56.4892 10.9876C56.4701 11.2704 56.5052 11.3518 56.3857 11.6244C56.311 11.7947 56.0715 11.8457 56.0361 12.1224C55.0873 12.2848 54.9452 10.7863 54.9775 10.1693C54.9225 10.1167 54.8885 10.0836 54.8359 10.0286C54.5334 10.1284 54.0314 9.85153 53.8388 9.99544C53.5949 10.1784 53.9505 11.2737 54.0605 11.4896C53.9362 11.5206 53.7833 11.505 53.6601 11.4876C53.5142 11.2697 53.1943 10.3883 52.9277 10.3148C52.4166 10.174 52.0032 11.0401 51.9404 11.4173C51.4071 11.4347 50.6719 10.4725 50.0771 10.6839C49.5796 10.8603 46.3459 14.6518 45.8974 15.4417C45.3856 16.3415 44.5016 16.8472 43.9551 17.6663C43.9427 17.6849 43.933 17.7069 43.9248 17.7318C43.9357 18.08 43.9719 18.4355 44 18.7865C44.0887 19.3017 44.1916 19.8683 44.1172 20.2298C43.9527 21.0299 42.6451 21.6935 41.9365 21.5589C41.9283 21.396 41.932 21.2319 41.9404 21.0667L41.3623 20.4388C41.7548 19.8977 42.1108 19.3163 42.4678 18.7318C42.8295 17.7379 43.3107 16.7733 43.706 15.9193C44.4265 14.3623 45.443 12.8793 46.7099 11.6673C48.0267 10.4086 48.4288 9.77776 53.209 7.28841C54.1296 6.81026 54.988 6.68916 55.9941 6.47396ZM84.7373 17.1019C86.6478 19.8005 86.1278 22.4954 86.9033 25.5277C87.0462 26.0838 87.1981 26.5986 87.3476 27.0902C87.411 25.6646 87.2672 24.757 87.7031 23.7757C88.035 23.0277 89.7308 22.0921 88.0039 21.4613C87.9477 20.5057 87.8981 19.4228 88.0888 18.5277C86.8953 18.2425 85.2431 18.5345 85.6054 16.6576C85.2144 16.688 84.7945 16.6439 84.3789 16.6117C84.5009 16.7749 84.6219 16.9381 84.7373 17.1019Z" fill="#D7D7D7"/>
<path d="M32.7402 43.763C32.7336 43.7765 32.7441 43.7883 32.7558 43.8011L32.7363 43.804C32.7423 43.7765 32.6768 43.8732 32.6767 43.7406L32.7402 43.763Z" fill="#D7D7D7"/>
<path d="M29.2881 3.06673C35.5534 2.12608 41.6079 -0.552873 48.3535 0.101889C49.286 0.19286 52.8902 0.938959 53.1826 2.05111C53.4082 2.91349 50.6234 5.14282 50.2246 6.20833C48.5124 6.43097 48.1979 4.34917 47.0254 3.54915C45.8654 2.75704 44.7452 2.89104 43.3037 3.5433C44.6378 5.05675 46.252 6.99777 47.2685 8.54232C44.7553 7.83552 42.969 5.3752 40.2578 4.80892C38.8867 4.52252 37.125 4.33368 35.6445 4.55013C33.3641 4.8838 34.0322 5.50325 32.8955 6.88509C31.4867 8.59648 31.3439 7.17452 29.5117 7.29232C28.5575 7.35421 28.5374 9.46886 27.6465 9.89876C27.4654 9.98605 27.2639 10.1196 27.0488 10.2845C27.0261 10.3813 27.0123 10.4821 27.0117 10.5872C27.0093 10.8892 27.1399 10.9581 27.0127 11.2767C26.9451 11.4459 26.7368 11.5257 26.6943 11.7523C26.6447 12.019 26.9158 12.1986 26.6933 12.4408C26.5307 12.6168 26.3134 12.5031 26.0761 12.4906C26.5252 12.7644 26.9784 13.35 26.8965 13.8636C26.5239 13.8397 26.0642 13.3322 25.6953 13.1869C25.6911 13.4559 25.7169 13.7196 25.583 13.9564C25.2026 13.7734 23.8453 13.0791 23.3574 13.182C22.7071 13.3187 22.4014 12.89 22.3965 13.3851C22.0953 13.3401 21.9166 13.1186 21.5615 13.1927C21.6823 13.5789 24.6047 15.0028 24.5771 15.3519C24.509 16.1779 23.4962 15.1167 23.2666 14.9701C22.8791 14.7225 22.9434 14.789 22.6289 15.0492C22.4715 15.1791 22.1668 15.4832 22.1386 15.6702C22.0795 16.0673 22.3847 16.084 22.5498 16.3734C22.699 16.6369 22.7031 16.9587 22.6064 17.2533C22.3025 17.1388 21.5564 16.535 21.2246 16.9281C21.0034 17.1899 21.3214 17.4678 21.4111 17.6693C21.5552 17.9934 21.634 18.142 21.6006 18.5247C21.3059 18.472 20.9467 18.1562 20.7207 18.4769C20.5784 18.6777 18.6143 18.4798 18.6435 18.6898C18.7392 19.3296 18.8521 20.0625 19.0674 20.6497L18.9619 20.1722C19.4702 21.3454 20.4966 22.6646 20.4326 24.0345C20.4209 24.0195 20.407 24.0067 20.3935 23.9945C20.5814 24.4799 20.668 24.9994 20.7978 25.5062C20.9557 25.0267 21.2182 24.5648 21.4502 24.1468C21.9327 23.2775 21.73 22.1503 22.6875 21.5433C23.6393 20.94 24.7332 21.1023 25.749 20.7132C26.1998 20.5404 26.6696 20.2195 27.1347 20.1214C27.6759 20.0072 28.2341 20.0881 28.7597 19.9105C29.784 19.5643 30.9423 19.2215 32.042 19.1683C32.6357 19.1396 33.0728 19.3441 33.666 19.3441C34.2614 19.3441 34.8323 19.2649 35.3955 19.2386C35.515 19.2332 35.6865 19.2476 35.8574 19.2865C36.9547 19.018 38.0728 18.9949 39.3047 19.5169C39.1828 20.2856 37.8279 20.5119 37.2031 20.7523C36.2937 21.1008 35.4671 21.1365 34.5732 21.3978C34.174 21.5144 33.8424 21.7668 33.4521 21.93C32.9893 22.1232 32.4816 22.1016 32.0439 22.2601C31.6863 22.3899 31.1681 22.6529 30.9248 22.889C30.4806 23.3194 30.8167 23.4643 30.6885 24.0911C30.1875 23.7366 29.4529 23.4886 28.8095 23.7054C28.6595 24.2119 29.1038 24.6396 29.4883 24.889C29.4894 25.201 29.3715 25.475 29.1533 25.6878C28.7145 25.4659 28.264 24.8178 27.7881 24.7083C27.2356 24.5816 26.6063 25.0731 26.2344 25.4349C24.764 26.8657 26.9 27.0838 26.914 28.2747C26.5494 28.2544 26.1289 28.1998 25.8144 28.0433C25.4826 27.8789 25.4817 27.5265 25.001 27.5941C25.0111 28.1245 25.9416 28.3419 25.7383 28.9076C25.2493 28.8165 24.8814 28.4308 24.3799 28.3812C24.683 28.6927 25.0871 29.4079 24.9443 29.888C24.3933 29.4177 22.6247 29.3032 23.0703 30.431L22.8672 30.3304C22.89 31.7642 23.6152 33.1515 23.9453 34.5452C24.2718 35.9236 25.1889 37.3773 24.8535 38.8626C24.2897 38.8298 24.0497 38.5267 24.1064 37.9827C23.6712 37.8949 22.7464 38.1915 22.4717 37.6761C22.3335 37.4166 22.6446 36.2978 22.6572 35.9593C22.6716 35.5646 22.9178 34.6067 22.6562 34.307C22.2628 33.8591 21.5561 34.3616 21.1465 34.431C21.2146 33.9193 21.8675 33.8367 21.8672 33.263C21.4892 33.3479 21.0103 33.4628 20.6347 33.4144C20.7047 32.9923 21.0045 33.2814 21.1689 33.0482C21.3335 32.8154 21.2794 32.7285 21.3486 32.4945C21.4903 32.0133 21.4665 31.4887 21.3369 31.0404C21.1127 30.2708 20.7161 29.4775 20.4668 28.7074C20.2151 27.9331 19.8211 27.0344 19.7636 26.1986C19.718 25.5278 19.6687 24.4601 19.9023 23.7396C19.9014 23.7386 19.9003 23.7377 19.8994 23.7367C19.7499 23.5764 19.7279 23.2279 19.6513 23.0306C19.5043 22.6516 19.2806 22.3032 19.1084 21.932C18.8967 21.4751 18.8817 21.0816 18.7519 20.5931C18.6448 20.1891 18.2927 19.8679 18.1582 19.4925C16.6764 18.5645 16.4944 16.4531 17.081 15.3265C17.2521 14.9982 17.7094 14.2397 17.9043 13.8744C17.8864 13.8726 17.8671 13.8728 17.8486 13.8704L17.9619 13.7738C18.0617 13.5969 18.1684 13.4326 18.2861 13.3011C18.3297 13.2527 18.3873 13.1954 18.4511 13.1351C18.2455 13.278 19.7248 11.2223 22.1523 10.9339C22.1855 10.1943 21.5658 9.33207 21.6465 9.00326C21.9174 7.89843 22.4953 8.368 23.1386 7.72103C24.0474 6.80554 24.3576 5.43007 25.206 4.49251C26.2453 3.34442 27.9062 3.27483 29.2881 3.06673Z" fill="#D7D7D7"/>
<path d="M31.4433 28.4554C33.6116 26.7739 37.9174 23.4116 41.1601 23.89C41.1231 25.249 39.2783 25.8657 38.3847 26.8695C37.4746 27.8932 36.8675 29.0975 35.7715 30.0452C33.6989 31.8363 30.8543 33.5375 30.251 36.0785L30.1992 35.6937C25.0221 34.3818 28.9145 30.4162 31.4433 28.4554Z" fill="#D7D7D7"/>
</svg>
